<svg xmlns="http://www.w3.org/2000/svg" xmlns:xlink="http://www.w3.org/1999/xlink" contentStyleType="text/css" data-diagram-type="CLASS" height="1145px" preserveAspectRatio="none" style="width:1489px;height:1145px;background:#FFFFFF;" version="1.1" viewBox="0 0 1489 1145" width="1489px" zoomAndPan="magnify"><defs/><g><!--class Person--><g class="entity" data-entity="Person" data-source-line="2" data-uid="ent0002" id="entity_Person"><rect fill="#F1F1F1" height="194.6719" rx="2.5" ry="2.5" style="stroke:#181818;stroke-width:0.5;" width="229.0684" x="457.42" y="196.49"/><ellipse cx="543.9322" cy="212.49" fill="#ADD1B2" rx="11" ry="11" style="stroke:#181818;stroke-width:1;"/><path d="M546.901,218.1306 Q546.3228,218.4275 545.6822,218.5681 Q545.0416,218.7244 544.3385,218.7244 Q541.8385,218.7244 540.5103,217.0838 Q539.1978,215.4275 539.1978,212.3025 Q539.1978,209.1775 540.5103,207.5213 Q541.8385,205.865 544.3385,205.865 Q545.0416,205.865 545.6822,206.0213 Q546.3385,206.1775 546.901,206.4744 L546.901,209.1931 Q546.276,208.615 545.6822,208.3494 Q545.0885,208.0681 544.4635,208.0681 Q543.1197,208.0681 542.4322,209.1463 Q541.7447,210.2088 541.7447,212.3025 Q541.7447,214.3963 542.4322,215.4744 Q543.1197,216.5369 544.4635,216.5369 Q545.0885,216.5369 545.6822,216.2713 Q546.276,215.99 546.901,215.4119 L546.901,218.1306 Z " fill="#000000"/><text fill="#000000" font-family="sans-serif" font-size="14" lengthAdjust="spacing" textLength="47.5439" x="564.4322" y="217.3367">Person</text><line style="stroke:#181818;stroke-width:0.5;" x1="458.42" x2="685.4884" y1="228.49" y2="228.49"/><rect fill="none" height="6" style="stroke:#C82930;stroke-width:1;" width="6" x="465.42" y="239.1384"/><text fill="#000000" font-family="sans-serif" font-size="14" lengthAdjust="spacing" textLength="95.1016" x="477.42" y="245.4851">name : String</text><rect fill="none" height="6" style="stroke:#C82930;stroke-width:1;" width="6" x="465.42" y="255.4353"/><text fill="#000000" font-family="sans-serif" font-size="14" lengthAdjust="spacing" textLength="57.9482" x="477.42" y="261.782">age : int</text><line style="stroke:#181818;stroke-width:0.5;" x1="458.42" x2="685.4884" y1="269.0838" y2="269.0838"/><ellipse cx="468.42" cy="282.7322" fill="#84BE84" rx="3" ry="3" style="stroke:#038048;stroke-width:1;"/><text fill="#000000" font-family="sans-serif" font-size="14" lengthAdjust="spacing" textLength="202.6172" x="477.42" y="286.0789">Person(name:String, age:int)</text><ellipse cx="468.42" cy="299.0291" fill="#84BE84" rx="3" ry="3" style="stroke:#038048;stroke-width:1;"/><text fill="#000000" font-family="sans-serif" font-size="14" lengthAdjust="spacing" textLength="58.4678" x="477.42" y="302.3757">Person()</text><ellipse cx="468.42" cy="315.3259" fill="#84BE84" rx="3" ry="3" style="stroke:#038048;stroke-width:1;"/><text fill="#000000" font-family="sans-serif" font-size="14" lengthAdjust="spacing" textLength="130.6143" x="477.42" y="318.6726">getName() : String</text><ellipse cx="468.42" cy="331.6228" fill="#84BE84" rx="3" ry="3" style="stroke:#038048;stroke-width:1;"/><text fill="#000000" font-family="sans-serif" font-size="14" lengthAdjust="spacing" textLength="203.0684" x="477.42" y="334.9695">setName(name:String) : void</text><ellipse cx="468.42" cy="347.9197" fill="#84BE84" rx="3" ry="3" style="stroke:#038048;stroke-width:1;"/><text fill="#000000" font-family="sans-serif" font-size="14" lengthAdjust="spacing" textLength="92.8594" x="477.42" y="351.2664">getAge() : int</text><ellipse cx="468.42" cy="364.2166" fill="#84BE84" rx="3" ry="3" style="stroke:#038048;stroke-width:1;"/><text fill="#000000" font-family="sans-serif" font-size="14" lengthAdjust="spacing" textLength="120.8936" x="477.42" y="367.5632">setAge(int) : void</text><ellipse cx="468.42" cy="380.5134" fill="#84BE84" rx="3" ry="3" style="stroke:#038048;stroke-width:1;"/><text fill="#000000" font-family="sans-serif" font-size="14" lengthAdjust="spacing" textLength="122.1582" x="477.42" y="383.8601">toString() : String</text></g><!--class Employee--><g class="entity" data-entity="Employee" data-source-line="15" data-uid="ent0003" id="entity_Employee"><rect fill="#F1F1F1" height="194.6719" rx="2.5" ry="2.5" style="stroke:#181818;stroke-width:0.5;" width="451.6055" x="430.15" y="451.16"/><ellipse cx="617.0343" cy="467.16" fill="#ADD1B2" rx="11" ry="11" style="stroke:#181818;stroke-width:1;"/><path d="M620.003,472.8006 Q619.4249,473.0975 618.7843,473.2381 Q618.1437,473.3944 617.4405,473.3944 Q614.9405,473.3944 613.6124,471.7538 Q612.2999,470.0975 612.2999,466.9725 Q612.2999,463.8475 613.6124,462.1913 Q614.9405,460.535 617.4405,460.535 Q618.1437,460.535 618.7843,460.6913 Q619.4405,460.8475 620.003,461.1444 L620.003,463.8631 Q619.378,463.285 618.7843,463.0194 Q618.1905,462.7381 617.5655,462.7381 Q616.2218,462.7381 615.5343,463.8163 Q614.8468,464.8788 614.8468,466.9725 Q614.8468,469.0663 615.5343,470.1444 Q616.2218,471.2069 617.5655,471.2069 Q618.1905,471.2069 618.7843,470.9413 Q619.378,470.66 620.003,470.0819 L620.003,472.8006 Z " fill="#000000"/><text fill="#000000" font-family="sans-serif" font-size="14" lengthAdjust="spacing" textLength="69.3369" x="637.5343" y="472.0067">Employee</text><line style="stroke:#181818;stroke-width:0.5;" x1="431.15" x2="880.7555" y1="483.16" y2="483.16"/><rect fill="none" height="6" style="stroke:#C82930;stroke-width:1;" width="6" x="438.15" y="493.8084"/><text fill="#000000" font-family="sans-serif" font-size="14" lengthAdjust="spacing" textLength="126.9434" x="450.15" y="500.1551">workplace : String</text><rect fill="none" height="6" style="stroke:#C82930;stroke-width:1;" width="6" x="438.15" y="510.1053"/><text fill="#000000" font-family="sans-serif" font-size="14" lengthAdjust="spacing" textLength="74.252" x="450.15" y="516.452">salary : int</text><line style="stroke:#181818;stroke-width:0.5;" x1="431.15" x2="880.7555" y1="523.7538" y2="523.7538"/><ellipse cx="441.15" cy="537.4022" fill="#84BE84" rx="3" ry="3" style="stroke:#038048;stroke-width:1;"/><text fill="#000000" font-family="sans-serif" font-size="14" lengthAdjust="spacing" textLength="425.6055" x="450.15" y="540.7489">Employee(name:String, age:int, workplace:String, salary:int)</text><ellipse cx="441.15" cy="553.6991" fill="#84BE84" rx="3" ry="3" style="stroke:#038048;stroke-width:1;"/><text fill="#000000" font-family="sans-serif" font-size="14" lengthAdjust="spacing" textLength="80.2607" x="450.15" y="557.0457">Employee()</text><ellipse cx="441.15" cy="569.9959" fill="#84BE84" rx="3" ry="3" style="stroke:#038048;stroke-width:1;"/><text fill="#000000" font-family="sans-serif" font-size="14" lengthAdjust="spacing" textLength="163.249" x="450.15" y="573.3426">getWorkplace() : String</text><ellipse cx="441.15" cy="586.2928" fill="#84BE84" rx="3" ry="3" style="stroke:#038048;stroke-width:1;"/><text fill="#000000" font-family="sans-serif" font-size="14" lengthAdjust="spacing" textLength="191.2832" x="450.15" y="589.6395">setWorkplace(String) : void</text><ellipse cx="441.15" cy="602.5897" fill="#84BE84" rx="3" ry="3" style="stroke:#038048;stroke-width:1;"/><text fill="#000000" font-family="sans-serif" font-size="14" lengthAdjust="spacing" textLength="109.7578" x="450.15" y="605.9364">getSalary() : int</text><ellipse cx="441.15" cy="618.8866" fill="#84BE84" rx="3" ry="3" style="stroke:#038048;stroke-width:1;"/><text fill="#000000" font-family="sans-serif" font-size="14" lengthAdjust="spacing" textLength="137.792" x="450.15" y="622.2332">setSalary(int) : void</text><ellipse cx="441.15" cy="635.1834" fill="#84BE84" rx="3" ry="3" style="stroke:#038048;stroke-width:1;"/><text fill="#000000" font-family="sans-serif" font-size="14" lengthAdjust="spacing" textLength="122.1582" x="450.15" y="638.5301">toString() : String</text></g><!--class ITEmployee--><g class="entity" data-entity="ITEmployee" data-source-line="27" data-uid="ent0004" id="entity_ITEmployee"><rect fill="#F1F1F1" height="243.5625" rx="2.5" ry="2.5" style="stroke:#181818;stroke-width:0.5;" width="618.4092" x="43.75" y="705.83"/><ellipse cx="307.6958" cy="721.83" fill="#ADD1B2" rx="11" ry="11" style="stroke:#181818;stroke-width:1;"/><path d="M310.6646,727.4706 Q310.0864,727.7675 309.4458,727.9081 Q308.8052,728.0644 308.1021,728.0644 Q305.6021,728.0644 304.2739,726.4238 Q302.9614,724.7675 302.9614,721.6425 Q302.9614,718.5175 304.2739,716.8613 Q305.6021,715.205 308.1021,715.205 Q308.8052,715.205 309.4458,715.3613 Q310.1021,715.5175 310.6646,715.8144 L310.6646,718.5331 Q310.0396,717.955 309.4458,717.6894 Q308.8521,717.4081 308.2271,717.4081 Q306.8833,717.4081 306.1958,718.4863 Q305.5083,719.5488 305.5083,721.6425 Q305.5083,723.7363 306.1958,724.8144 Q306.8833,725.8769 308.2271,725.8769 Q308.8521,725.8769 309.4458,725.6113 Q310.0396,725.33 310.6646,724.7519 L310.6646,727.4706 Z " fill="#000000"/><text fill="#000000" font-family="sans-serif" font-size="14" lengthAdjust="spacing" textLength="82.0176" x="328.1958" y="726.6767">ITEmployee</text><line style="stroke:#181818;stroke-width:0.5;" x1="44.75" x2="661.1592" y1="737.83" y2="737.83"/><rect fill="none" height="6" style="stroke:#C82930;stroke-width:1;" width="6" x="51.75" y="748.4784"/><text fill="#000000" font-family="sans-serif" font-size="14" lengthAdjust="spacing" textLength="124.0791" x="63.75" y="754.8251">position : Position</text><rect fill="none" height="6" style="stroke:#C82930;stroke-width:1;" width="6" x="51.75" y="764.7753"/><text fill="#000000" font-family="sans-serif" font-size="14" lengthAdjust="spacing" textLength="104.2959" x="63.75" y="771.122">project : String</text><rect fill="none" height="6" style="stroke:#C82930;stroke-width:1;" width="6" x="51.75" y="781.0722"/><text fill="#000000" font-family="sans-serif" font-size="14" lengthAdjust="spacing" textLength="109.2178" x="63.75" y="787.4189">baseSalary : int</text><line style="stroke:#181818;stroke-width:0.5;" x1="44.75" x2="661.1592" y1="794.7206" y2="794.7206"/><ellipse cx="54.75" cy="808.3691" fill="#84BE84" rx="3" ry="3" style="stroke:#038048;stroke-width:1;"/><text fill="#000000" font-family="sans-serif" font-size="14" lengthAdjust="spacing" textLength="592.4092" x="63.75" y="811.7157">ITEmployee(name:String, age:int, workplace:String, position:Position, project:String)</text><ellipse cx="54.75" cy="824.6659" fill="#84BE84" rx="3" ry="3" style="stroke:#038048;stroke-width:1;"/><text fill="#000000" font-family="sans-serif" font-size="14" lengthAdjust="spacing" textLength="92.9414" x="63.75" y="828.0126">ITEmployee()</text><ellipse cx="54.75" cy="840.9628" fill="#84BE84" rx="3" ry="3" style="stroke:#038048;stroke-width:1;"/><text fill="#000000" font-family="sans-serif" font-size="14" lengthAdjust="spacing" textLength="137.7646" x="63.75" y="844.3095">getProject() : String</text><ellipse cx="54.75" cy="857.2597" fill="#84BE84" rx="3" ry="3" style="stroke:#038048;stroke-width:1;"/><text fill="#000000" font-family="sans-serif" font-size="14" lengthAdjust="spacing" textLength="165.7988" x="63.75" y="860.6064">setProject(String) : void</text><ellipse cx="54.75" cy="873.5566" fill="#84BE84" rx="3" ry="3" style="stroke:#038048;stroke-width:1;"/><text fill="#000000" font-family="sans-serif" font-size="14" lengthAdjust="spacing" textLength="157.5479" x="63.75" y="876.9032">getPosition() : Position</text><ellipse cx="54.75" cy="889.8534" fill="#84BE84" rx="3" ry="3" style="stroke:#038048;stroke-width:1;"/><text fill="#000000" font-family="sans-serif" font-size="14" lengthAdjust="spacing" textLength="185.582" x="63.75" y="893.2001">setPosition(Position) : void</text><ellipse cx="54.75" cy="906.1503" fill="#84BE84" rx="3" ry="3" style="stroke:#038048;stroke-width:1;"/><text fill="#000000" font-family="sans-serif" font-size="14" lengthAdjust="spacing" textLength="143.8486" x="63.75" y="909.497">getBaseSalary() : int</text><ellipse cx="54.75" cy="922.4472" fill="#84BE84" rx="3" ry="3" style="stroke:#038048;stroke-width:1;"/><text fill="#000000" font-family="sans-serif" font-size="14" lengthAdjust="spacing" textLength="171.8828" x="63.75" y="925.7939">setBaseSalary(int) : void</text><ellipse cx="54.75" cy="938.7441" fill="#84BE84" rx="3" ry="3" style="stroke:#038048;stroke-width:1;"/><text fill="#000000" font-family="sans-serif" font-size="14" lengthAdjust="spacing" textLength="122.1582" x="63.75" y="942.0907">toString() : String</text></g><!--class UniEmployee--><g class="entity" data-entity="UniEmployee" data-source-line="42" data-uid="ent0005" id="entity_UniEmployee"><rect fill="#F1F1F1" height="194.6719" rx="2.5" ry="2.5" style="stroke:#181818;stroke-width:0.5;" width="524.4424" x="696.73" y="730.28"/><ellipse cx="908.5279" cy="746.28" fill="#ADD1B2" rx="11" ry="11" style="stroke:#181818;stroke-width:1;"/><path d="M911.4966,751.9206 Q910.9185,752.2175 910.2779,752.3581 Q909.6372,752.5144 908.9341,752.5144 Q906.4341,752.5144 905.106,750.8738 Q903.7935,749.2175 903.7935,746.0925 Q903.7935,742.9675 905.106,741.3113 Q906.4341,739.655 908.9341,739.655 Q909.6372,739.655 910.2779,739.8113 Q910.9341,739.9675 911.4966,740.2644 L911.4966,742.9831 Q910.8716,742.405 910.2779,742.1394 Q909.6841,741.8581 909.0591,741.8581 Q907.7154,741.8581 907.0279,742.9363 Q906.3404,743.9988 906.3404,746.0925 Q906.3404,748.1863 907.0279,749.2644 Q907.7154,750.3269 909.0591,750.3269 Q909.6841,750.3269 910.2779,750.0613 Q910.8716,749.78 911.4966,749.2019 L911.4966,751.9206 Z " fill="#000000"/><text fill="#000000" font-family="sans-serif" font-size="14" lengthAdjust="spacing" textLength="92.3467" x="929.0279" y="751.1267">UniEmployee</text><line style="stroke:#181818;stroke-width:0.5;" x1="697.73" x2="1220.1724" y1="762.28" y2="762.28"/><rect fill="none" height="6" style="stroke:#C82930;stroke-width:1;" width="6" x="704.73" y="772.9284"/><text fill="#000000" font-family="sans-serif" font-size="14" lengthAdjust="spacing" textLength="124.0791" x="716.73" y="779.2751">position : Position</text><rect fill="none" height="6" style="stroke:#C82930;stroke-width:1;" width="6" x="704.73" y="789.2253"/><text fill="#000000" font-family="sans-serif" font-size="14" lengthAdjust="spacing" textLength="109.2178" x="716.73" y="795.572">baseSalary : int</text><line style="stroke:#181818;stroke-width:0.5;" x1="697.73" x2="1220.1724" y1="802.8738" y2="802.8738"/><ellipse cx="707.73" cy="816.5222" fill="#84BE84" rx="3" ry="3" style="stroke:#038048;stroke-width:1;"/><text fill="#000000" font-family="sans-serif" font-size="14" lengthAdjust="spacing" textLength="498.4424" x="716.73" y="819.8689">UniEmployee(name:String, age:int, workplace:String, position:Position)</text><ellipse cx="707.73" cy="832.8191" fill="#84BE84" rx="3" ry="3" style="stroke:#038048;stroke-width:1;"/><text fill="#000000" font-family="sans-serif" font-size="14" lengthAdjust="spacing" textLength="103.2705" x="716.73" y="836.1657">UniEmployee()</text><ellipse cx="707.73" cy="849.1159" fill="#84BE84" rx="3" ry="3" style="stroke:#038048;stroke-width:1;"/><text fill="#000000" font-family="sans-serif" font-size="14" lengthAdjust="spacing" textLength="157.5479" x="716.73" y="852.4626">getPosition() : Position</text><ellipse cx="707.73" cy="865.4128" fill="#84BE84" rx="3" ry="3" style="stroke:#038048;stroke-width:1;"/><text fill="#000000" font-family="sans-serif" font-size="14" lengthAdjust="spacing" textLength="185.582" x="716.73" y="868.7595">setPosition(Position) : void</text><ellipse cx="707.73" cy="881.7097" fill="#84BE84" rx="3" ry="3" style="stroke:#038048;stroke-width:1;"/><text fill="#000000" font-family="sans-serif" font-size="14" lengthAdjust="spacing" textLength="143.8486" x="716.73" y="885.0564">getBaseSalary() : int</text><ellipse cx="707.73" cy="898.0066" fill="#84BE84" rx="3" ry="3" style="stroke:#038048;stroke-width:1;"/><text fill="#000000" font-family="sans-serif" font-size="14" lengthAdjust="spacing" textLength="171.8828" x="716.73" y="901.3532">setBaseSalary(int) : void</text><ellipse cx="707.73" cy="914.3034" fill="#84BE84" rx="3" ry="3" style="stroke:#038048;stroke-width:1;"/><text fill="#000000" font-family="sans-serif" font-size="14" lengthAdjust="spacing" textLength="122.1582" x="716.73" y="917.6501">toString() : String</text></g><!--class ITPosition--><g class="entity" data-entity="ITPosition" data-source-line="54" data-uid="ent0006" id="entity_ITPosition"><rect fill="#F1F1F1" height="129.4844" rx="2.5" ry="2.5" style="stroke:#181818;stroke-width:0.5;" width="99.6895" x="303.11" y="1009.4"/><ellipse cx="318.11" cy="1025.4" fill="#EB937F" rx="11" ry="11" style="stroke:#181818;stroke-width:1;"/><path d="M322.2194,1031.4 L314.5006,1031.4 L314.5006,1019.0094 L322.2194,1019.0094 L322.2194,1021.1656 L316.9538,1021.1656 L316.9538,1023.8375 L321.7194,1023.8375 L321.7194,1025.9938 L316.9538,1025.9938 L316.9538,1029.2438 L322.2194,1029.2438 L322.2194,1031.4 Z " fill="#000000"/><text fill="#000000" font-family="sans-serif" font-size="14" lengthAdjust="spacing" textLength="67.6895" x="332.11" y="1030.2467">ITPosition</text><line style="stroke:#181818;stroke-width:0.5;" x1="304.11" x2="401.7995" y1="1041.4" y2="1041.4"/><text fill="#000000" font-family="sans-serif" font-size="14" lengthAdjust="spacing" textLength="52.1992" x="309.11" y="1058.3951">INTERN</text><text fill="#000000" font-family="sans-serif" font-size="14" lengthAdjust="spacing" textLength="49.7246" x="309.11" y="1074.692">JUNIOR</text><text fill="#000000" font-family="sans-serif" font-size="14" lengthAdjust="spacing" textLength="56.5811" x="309.11" y="1090.9889">MEDIOR</text><text fill="#000000" font-family="sans-serif" font-size="14" lengthAdjust="spacing" textLength="53.0811" x="309.11" y="1107.2857">SENIOR</text><text fill="#000000" font-family="sans-serif" font-size="14" lengthAdjust="spacing" textLength="71.1279" x="309.11" y="1123.5826">MANAGER</text><line style="stroke:#181818;stroke-width:0.5;" x1="304.11" x2="401.7995" y1="1130.8844" y2="1130.8844"/></g><!--class UniPosition--><g class="entity" data-entity="UniPosition" data-source-line="62" data-uid="ent0007" id="entity_UniPosition"><rect fill="#F1F1F1" height="96.8906" rx="2.5" ry="2.5" style="stroke:#181818;stroke-width:0.5;" width="110.0186" x="903.94" y="1025.69"/><ellipse cx="918.94" cy="1041.69" fill="#EB937F" rx="11" ry="11" style="stroke:#181818;stroke-width:1;"/><path d="M923.0494,1047.69 L915.3306,1047.69 L915.3306,1035.2994 L923.0494,1035.2994 L923.0494,1037.4556 L917.7838,1037.4556 L917.7838,1040.1275 L922.5494,1040.1275 L922.5494,1042.2838 L917.7838,1042.2838 L917.7838,1045.5338 L923.0494,1045.5338 L923.0494,1047.69 Z " fill="#000000"/><text fill="#000000" font-family="sans-serif" font-size="14" lengthAdjust="spacing" textLength="78.0186" x="932.94" y="1046.5367">UniPosition</text><line style="stroke:#181818;stroke-width:0.5;" x1="904.94" x2="1012.9586" y1="1057.69" y2="1057.69"/><text fill="#000000" font-family="sans-serif" font-size="14" lengthAdjust="spacing" textLength="37.2422" x="909.94" y="1074.6851">PROF</text><text fill="#000000" font-family="sans-serif" font-size="14" lengthAdjust="spacing" textLength="73.5205" x="909.94" y="1090.982">LECTURER</text><text fill="#000000" font-family="sans-serif" font-size="14" lengthAdjust="spacing" textLength="47.0381" x="909.94" y="1107.2789">ADMIN</text><line style="stroke:#181818;stroke-width:0.5;" x1="904.94" x2="1012.9586" y1="1114.5806" y2="1114.5806"/></g><!--class EmployeeFactory--><g class="entity" data-entity="EmployeeFactory" data-source-line="75" data-uid="ent0013" id="entity_EmployeeFactory"><rect fill="#F1F1F1" height="64.2969" rx="2.5" ry="2.5" style="stroke:#181818;stroke-width:0.5;" width="352.0059" x="1130.95" y="39.6"/><ellipse cx="1241.8221" cy="55.6" fill="#B4A7E5" rx="11" ry="11" style="stroke:#181818;stroke-width:1;"/><path d="M1237.7439,51.3656 L1237.7439,49.2094 L1245.1346,49.2094 L1245.1346,51.3656 L1242.6658,51.3656 L1242.6658,59.4438 L1245.1346,59.4438 L1245.1346,61.6 L1237.7439,61.6 L1237.7439,59.4438 L1240.2127,59.4438 L1240.2127,51.3656 L1237.7439,51.3656 Z " fill="#000000"/><text fill="#000000" font-family="sans-serif" font-size="14" font-style="italic" lengthAdjust="spacing" textLength="121.7617" x="1262.3221" y="60.4467">EmployeeFactory</text><line style="stroke:#181818;stroke-width:0.5;" x1="1131.95" x2="1481.9559" y1="71.6" y2="71.6"/><line style="stroke:#181818;stroke-width:0.5;" x1="1131.95" x2="1481.9559" y1="79.6" y2="79.6"/><ellipse cx="1141.95" cy="93.2484" fill="#84BE84" rx="3" ry="3" style="stroke:#038048;stroke-width:1;"/><text fill="#000000" font-family="sans-serif" font-size="14" lengthAdjust="spacing" textLength="326.0059" x="1150.95" y="96.5951">createEmployee(workplace:String) : Employee</text></g><!--class EmployeeFactoryImpl--><g class="entity" data-entity="EmployeeFactoryImpl" data-source-line="79" data-uid="ent0014" id="entity_EmployeeFactoryImpl"><rect fill="#F1F1F1" height="64.2969" rx="2.5" ry="2.5" style="stroke:#181818;stroke-width:0.5;" width="352.0059" x="1121.95" y="261.68"/><ellipse cx="1217.5506" cy="277.68" fill="#ADD1B2" rx="11" ry="11" style="stroke:#181818;stroke-width:1;"/><path d="M1220.5193,283.3206 Q1219.9412,283.6175 1219.3006,283.7581 Q1218.66,283.9144 1217.9568,283.9144 Q1215.4568,283.9144 1214.1287,282.2738 Q1212.8162,280.6175 1212.8162,277.4925 Q1212.8162,274.3675 1214.1287,272.7113 Q1215.4568,271.055 1217.9568,271.055 Q1218.66,271.055 1219.3006,271.2113 Q1219.9568,271.3675 1220.5193,271.6644 L1220.5193,274.3831 Q1219.8943,273.805 1219.3006,273.5394 Q1218.7068,273.2581 1218.0818,273.2581 Q1216.7381,273.2581 1216.0506,274.3363 Q1215.3631,275.3988 1215.3631,277.4925 Q1215.3631,279.5863 1216.0506,280.6644 Q1216.7381,281.7269 1218.0818,281.7269 Q1218.7068,281.7269 1219.3006,281.4613 Q1219.8943,281.18 1220.5193,280.6019 L1220.5193,283.3206 Z " fill="#000000"/><text fill="#000000" font-family="sans-serif" font-size="14" lengthAdjust="spacing" textLength="152.3047" x="1238.0506" y="282.5267">EmployeeFactoryImpl</text><line style="stroke:#181818;stroke-width:0.5;" x1="1122.95" x2="1472.9559" y1="293.68" y2="293.68"/><line style="stroke:#181818;stroke-width:0.5;" x1="1122.95" x2="1472.9559" y1="301.68" y2="301.68"/><ellipse cx="1132.95" cy="315.3284" fill="#84BE84" rx="3" ry="3" style="stroke:#038048;stroke-width:1;"/><text fill="#000000" font-family="sans-serif" font-size="14" lengthAdjust="spacing" textLength="326.0059" x="1141.95" y="318.6751">createEmployee(workplace:String) : Employee</text></g><!--class FileService--><g class="entity" data-entity="FileService" data-source-line="86" data-uid="ent0016" id="entity_FileService"><rect fill="#F1F1F1" height="80.5938" rx="2.5" ry="2.5" style="stroke:#181818;stroke-width:0.5;" width="355.1162" x="37.39" y="31.45"/><ellipse cx="166.9398" cy="47.45" fill="#B4A7E5" rx="11" ry="11" style="stroke:#181818;stroke-width:1;"/><path d="M162.8617,43.2156 L162.8617,41.0594 L170.2523,41.0594 L170.2523,43.2156 L167.7836,43.2156 L167.7836,51.2938 L170.2523,51.2938 L170.2523,53.45 L162.8617,53.45 L162.8617,51.2938 L165.3304,51.2938 L165.3304,43.2156 L162.8617,43.2156 Z " fill="#000000"/><text fill="#000000" font-family="sans-serif" font-size="14" font-style="italic" lengthAdjust="spacing" textLength="76.1865" x="187.4398" y="52.2967">FileService</text><rect fill="#FFFFFF" height="15.9688" style="stroke:#181818;stroke-width:1;stroke-dasharray:2,2;" width="9.3301" x="386.1761" y="28.45"/><text fill="#000000" font-family="sans-serif" font-size="12" font-style="italic" lengthAdjust="spacing" textLength="7.3301" x="387.1761" y="40.5887">T</text><line style="stroke:#181818;stroke-width:0.5;" x1="38.39" x2="391.5062" y1="63.45" y2="63.45"/><line style="stroke:#181818;stroke-width:0.5;" x1="38.39" x2="391.5062" y1="71.45" y2="71.45"/><ellipse cx="48.39" cy="85.0984" fill="#84BE84" rx="3" ry="3" style="stroke:#038048;stroke-width:1;"/><text fill="#000000" font-family="sans-serif" font-size="14" lengthAdjust="spacing" textLength="329.1162" x="57.39" y="88.4451">writeToFile(filename:String, list:List&lt;T&gt;) : void</text><ellipse cx="48.39" cy="101.3953" fill="#84BE84" rx="3" ry="3" style="stroke:#038048;stroke-width:1;"/><text fill="#000000" font-family="sans-serif" font-size="14" lengthAdjust="spacing" textLength="280.8408" x="57.39" y="104.742">readFromFile(filename:String) : List&lt;T&gt;</text></g><!--class EmployeeFileService--><g class="entity" data-entity="EmployeeFileService" data-source-line="91" data-uid="ent0017" id="entity_EmployeeFileService"><rect fill="#F1F1F1" height="80.5938" rx="2.5" ry="2.5" style="stroke:#181818;stroke-width:0.5;" width="415.9014" x="7" y="253.53"/><ellipse cx="137.939" cy="269.53" fill="#ADD1B2" rx="11" ry="11" style="stroke:#181818;stroke-width:1;"/><path d="M140.9077,275.1706 Q140.3296,275.4675 139.689,275.6081 Q139.0483,275.7644 138.3452,275.7644 Q135.8452,275.7644 134.5171,274.1238 Q133.2046,272.4675 133.2046,269.3425 Q133.2046,266.2175 134.5171,264.5613 Q135.8452,262.905 138.3452,262.905 Q139.0483,262.905 139.689,263.0613 Q140.3452,263.2175 140.9077,263.5144 L140.9077,266.2331 Q140.2827,265.655 139.689,265.3894 Q139.0952,265.1081 138.4702,265.1081 Q137.1265,265.1081 136.439,266.1863 Q135.7515,267.2488 135.7515,269.3425 Q135.7515,271.4363 136.439,272.5144 Q137.1265,273.5769 138.4702,273.5769 Q139.0952,273.5769 139.689,273.3113 Q140.2827,273.03 140.9077,272.4519 L140.9077,275.1706 Z " fill="#000000"/><text fill="#000000" font-family="sans-serif" font-size="14" lengthAdjust="spacing" textLength="145.5234" x="158.439" y="274.3767">EmployeeFileService</text><line style="stroke:#181818;stroke-width:0.5;" x1="8" x2="421.9014" y1="285.53" y2="285.53"/><line style="stroke:#181818;stroke-width:0.5;" x1="8" x2="421.9014" y1="293.53" y2="293.53"/><ellipse cx="18" cy="307.1784" fill="#84BE84" rx="3" ry="3" style="stroke:#038048;stroke-width:1;"/><text fill="#000000" font-family="sans-serif" font-size="14" lengthAdjust="spacing" textLength="389.9014" x="27" y="310.5251">writeToFile(filename:String, list:List&lt;Employee&gt;) : void</text><ellipse cx="18" cy="323.4753" fill="#84BE84" rx="3" ry="3" style="stroke:#038048;stroke-width:1;"/><text fill="#000000" font-family="sans-serif" font-size="14" lengthAdjust="spacing" textLength="341.626" x="27" y="326.822">readFromFile(filename:String) : List&lt;Employee&gt;</text></g><!--class ListIterator--><g class="entity" data-entity="ListIterator" data-source-line="100" data-uid="ent0020" id="entity_ListIterator"><rect fill="#F1F1F1" height="113.1875" rx="2.5" ry="2.5" style="stroke:#181818;stroke-width:0.5;" width="193.1797" x="902.36" y="15.15"/><ellipse cx="950.61" cy="31.15" fill="#B4A7E5" rx="11" ry="11" style="stroke:#181818;stroke-width:1;"/><path d="M946.5319,26.9156 L946.5319,24.7594 L953.9225,24.7594 L953.9225,26.9156 L951.4538,26.9156 L951.4538,34.9938 L953.9225,34.9938 L953.9225,37.15 L946.5319,37.15 L946.5319,34.9938 L949.0006,34.9938 L949.0006,26.9156 L946.5319,26.9156 Z " fill="#000000"/><text fill="#000000" font-family="sans-serif" font-size="14" font-style="italic" lengthAdjust="spacing" textLength="76.8496" x="971.11" y="35.9967">ListIterator</text><rect fill="#FFFFFF" height="15.9688" style="stroke:#181818;stroke-width:1;stroke-dasharray:2,2;" width="9.3301" x="1089.2096" y="12.15"/><text fill="#000000" font-family="sans-serif" font-size="12" font-style="italic" lengthAdjust="spacing" textLength="7.3301" x="1090.2096" y="24.2887">T</text><line style="stroke:#181818;stroke-width:0.5;" x1="903.36" x2="1094.5397" y1="47.15" y2="47.15"/><line style="stroke:#181818;stroke-width:0.5;" x1="903.36" x2="1094.5397" y1="55.15" y2="55.15"/><ellipse cx="913.36" cy="68.7984" fill="#84BE84" rx="3" ry="3" style="stroke:#038048;stroke-width:1;"/><text fill="#000000" font-family="sans-serif" font-size="14" lengthAdjust="spacing" textLength="88.9424" x="922.36" y="72.1451">getNext() : T</text><ellipse cx="913.36" cy="85.0953" fill="#84BE84" rx="3" ry="3" style="stroke:#038048;stroke-width:1;"/><text fill="#000000" font-family="sans-serif" font-size="14" lengthAdjust="spacing" textLength="167.1797" x="922.36" y="88.442">getCurrentElement() : T</text><ellipse cx="913.36" cy="101.3922" fill="#84BE84" rx="3" ry="3" style="stroke:#038048;stroke-width:1;"/><text fill="#000000" font-family="sans-serif" font-size="14" lengthAdjust="spacing" textLength="140.2734" x="922.36" y="104.7389">hasMore() : boolean</text><ellipse cx="913.36" cy="117.6891" fill="#84BE84" rx="3" ry="3" style="stroke:#038048;stroke-width:1;"/><text fill="#000000" font-family="sans-serif" font-size="14" lengthAdjust="spacing" textLength="142.3105" x="922.36" y="121.0357">resetIterator() : void</text></g><!--class EmployeeIterator--><g class="entity" data-entity="EmployeeIterator" data-source-line="107" data-uid="ent0021" id="entity_EmployeeIterator"><rect fill="#F1F1F1" height="162.0781" rx="2.5" ry="2.5" style="stroke:#181818;stroke-width:0.5;" width="275.9082" x="793" y="212.79"/><ellipse cx="865.8472" cy="228.79" fill="#ADD1B2" rx="11" ry="11" style="stroke:#181818;stroke-width:1;"/><path d="M868.8159,234.4306 Q868.2378,234.7275 867.5972,234.8681 Q866.9565,235.0244 866.2534,235.0244 Q863.7534,235.0244 862.4253,233.3838 Q861.1128,231.7275 861.1128,228.6025 Q861.1128,225.4775 862.4253,223.8213 Q863.7534,222.165 866.2534,222.165 Q866.9565,222.165 867.5972,222.3213 Q868.2534,222.4775 868.8159,222.7744 L868.8159,225.4931 Q868.1909,224.915 867.5972,224.6494 Q867.0034,224.3681 866.3784,224.3681 Q865.0347,224.3681 864.3472,225.4463 Q863.6597,226.5088 863.6597,228.6025 Q863.6597,230.6963 864.3472,231.7744 Q865.0347,232.8369 866.3784,232.8369 Q867.0034,232.8369 867.5972,232.5713 Q868.1909,232.29 868.8159,231.7119 L868.8159,234.4306 Z " fill="#000000"/><text fill="#000000" font-family="sans-serif" font-size="14" lengthAdjust="spacing" textLength="121.7139" x="886.3472" y="233.6367">EmployeeIterator</text><line style="stroke:#181818;stroke-width:0.5;" x1="794" x2="1067.9082" y1="244.79" y2="244.79"/><rect fill="none" height="6" style="stroke:#C82930;stroke-width:1;" width="6" x="801" y="255.4384"/><text fill="#000000" font-family="sans-serif" font-size="14" lengthAdjust="spacing" textLength="224.4648" x="813" y="261.7851">employeeList : List&lt;Employee&gt;</text><rect fill="none" height="6" style="stroke:#C82930;stroke-width:1;" width="6" x="801" y="271.7353"/><text fill="#000000" font-family="sans-serif" font-size="14" lengthAdjust="spacing" textLength="70.417" x="813" y="278.082">index : int</text><line style="stroke:#181818;stroke-width:0.5;" x1="794" x2="1067.9082" y1="285.3838" y2="285.3838"/><ellipse cx="804" cy="299.0322" fill="#84BE84" rx="3" ry="3" style="stroke:#038048;stroke-width:1;"/><text fill="#000000" font-family="sans-serif" font-size="14" lengthAdjust="spacing" textLength="249.9082" x="813" y="302.3789">EmployeeIterator(List&lt;Employee&gt;)</text><ellipse cx="804" cy="315.3291" fill="#84BE84" rx="3" ry="3" style="stroke:#038048;stroke-width:1;"/><text fill="#000000" font-family="sans-serif" font-size="14" lengthAdjust="spacing" textLength="149.7275" x="813" y="318.6757">getNext() : Employee</text><ellipse cx="804" cy="331.6259" fill="#84BE84" rx="3" ry="3" style="stroke:#038048;stroke-width:1;"/><text fill="#000000" font-family="sans-serif" font-size="14" lengthAdjust="spacing" textLength="227.9648" x="813" y="334.9726">getCurrentElement() : Employee</text><ellipse cx="804" cy="347.9228" fill="#84BE84" rx="3" ry="3" style="stroke:#038048;stroke-width:1;"/><text fill="#000000" font-family="sans-serif" font-size="14" lengthAdjust="spacing" textLength="140.2734" x="813" y="351.2695">hasMore() : boolean</text><ellipse cx="804" cy="364.2197" fill="#84BE84" rx="3" ry="3" style="stroke:#038048;stroke-width:1;"/><text fill="#000000" font-family="sans-serif" font-size="14" lengthAdjust="spacing" textLength="142.3105" x="813" y="367.5664">resetIterator() : void</text></g><!--class App--><g class="entity" data-entity="App" data-source-line="121" data-uid="ent0024" id="entity_App"><rect fill="#F1F1F1" height="129.4844" rx="2.5" ry="2.5" style="stroke:#181818;stroke-width:0.5;" width="272.333" x="594.78" y="7"/><ellipse cx="713.0212" cy="23" fill="#ADD1B2" rx="11" ry="11" style="stroke:#181818;stroke-width:1;"/><path d="M715.99,28.6406 Q715.4118,28.9375 714.7712,29.0781 Q714.1306,29.2344 713.4275,29.2344 Q710.9275,29.2344 709.5993,27.5938 Q708.2868,25.9375 708.2868,22.8125 Q708.2868,19.6875 709.5993,18.0313 Q710.9275,16.375 713.4275,16.375 Q714.1306,16.375 714.7712,16.5313 Q715.4275,16.6875 715.99,16.9844 L715.99,19.7031 Q715.365,19.125 714.7712,18.8594 Q714.1775,18.5781 713.5525,18.5781 Q712.2087,18.5781 711.5212,19.6563 Q710.8337,20.7188 710.8337,22.8125 Q710.8337,24.9063 711.5212,25.9844 Q712.2087,27.0469 713.5525,27.0469 Q714.1775,27.0469 714.7712,26.7813 Q715.365,26.5 715.99,25.9219 L715.99,28.6406 Z " fill="#000000"/><text fill="#000000" font-family="sans-serif" font-size="14" lengthAdjust="spacing" textLength="27.3506" x="733.5212" y="27.8467">App</text><line style="stroke:#181818;stroke-width:0.5;" x1="595.78" x2="866.113" y1="39" y2="39"/><rect fill="none" height="6" style="stroke:#C82930;stroke-width:1;" width="6" x="602.78" y="49.6484"/><text fill="#000000" font-family="sans-serif" font-size="14" lengthAdjust="spacing" textLength="246.333" x="614.78" y="55.9951">uniEmployeeList : List&lt;Employee&gt;</text><rect fill="none" height="6" style="stroke:#C82930;stroke-width:1;" width="6" x="602.78" y="65.9453"/><text fill="#000000" font-family="sans-serif" font-size="14" lengthAdjust="spacing" textLength="234.0762" x="614.78" y="72.292">itEmployeeList : List&lt;Employee&gt;</text><line style="stroke:#181818;stroke-width:0.5;" x1="595.78" x2="866.113" y1="79.5938" y2="79.5938"/><ellipse cx="605.78" cy="93.2422" fill="#84BE84" rx="3" ry="3" style="stroke:#038048;stroke-width:1;"/><text fill="#000000" font-family="sans-serif" font-size="14" lengthAdjust="spacing" textLength="177.085" x="614.78" y="96.5889">main(args:String[]) : void</text><ellipse cx="605.78" cy="109.5391" fill="#84BE84" rx="3" ry="3" style="stroke:#038048;stroke-width:1;"/><text fill="#000000" font-family="sans-serif" font-size="14" lengthAdjust="spacing" textLength="76.3096" x="614.78" y="112.8857">init() : void</text><ellipse cx="605.78" cy="125.8359" fill="#84BE84" rx="3" ry="3" style="stroke:#038048;stroke-width:1;"/><text fill="#000000" font-family="sans-serif" font-size="14" lengthAdjust="spacing" textLength="80.541" x="614.78" y="129.1826">end() : void</text></g><!--reverse link Person to Employee--><g class="link" data-entity-1="Person" data-entity-2="Employee" data-source-line="68" data-uid="lnk8" id="link_Person_Employee"><path codeLine="68" d="M609.7437,408.5124 C616.2237,428.0224 617.37,431.44 623.85,450.94" fill="none" id="Person-backto-Employee" style="stroke:#181818;stroke-width:1;"/><polygon fill="none" points="604.07,391.43,604.0496,410.4037,615.4378,406.6212,604.07,391.43" style="stroke:#181818;stroke-width:1;"/></g><!--reverse link Employee to ITEmployee--><g class="link" data-entity-1="Employee" data-entity-2="ITEmployee" data-source-line="69" data-uid="lnk9" id="link_Employee_ITEmployee"><path codeLine="69" d="M537.1158,658.1761 C516.1058,677.3861 507.08,685.65 485.31,705.56" fill="none" id="Employee-backto-ITEmployee" style="stroke:#181818;stroke-width:1;"/><polygon fill="none" points="550.4,646.03,533.067,653.7481,541.1645,662.6042,550.4,646.03" style="stroke:#181818;stroke-width:1;"/></g><!--reverse link Employee to UniEmployee--><g class="link" data-entity-1="Employee" data-entity-2="UniEmployee" data-source-line="70" data-uid="lnk10" id="link_Employee_UniEmployee"><path codeLine="70" d="M774.7829,658.1777 C804.5029,685.3577 823.54,702.77 853.27,729.96" fill="none" id="Employee-backto-UniEmployee" style="stroke:#181818;stroke-width:1;"/><polygon fill="none" points="761.5,646.03,770.7336,662.6053,778.8321,653.75,761.5,646.03" style="stroke:#181818;stroke-width:1;"/></g><!--link ITEmployee to ITPosition--><g class="link" data-entity-1="ITEmployee" data-entity-2="ITPosition" data-source-line="71" data-uid="lnk11" id="link_ITEmployee_ITPosition"><path codeLine="71" d="M352.95,949.8 C352.95,970.34 352.95,984.91 352.95,1003.21" fill="none" id="ITEmployee-to-ITPosition" style="stroke:#181818;stroke-width:1;"/><polygon fill="#181818" points="352.95,1009.21,356.95,1000.21,352.95,1004.21,348.95,1000.21,352.95,1009.21" style="stroke:#181818;stroke-width:1;"/></g><!--link UniEmployee to UniPosition--><g class="link" data-entity-1="UniEmployee" data-entity-2="UniPosition" data-source-line="72" data-uid="lnk12" id="link_UniEmployee_UniPosition"><path codeLine="72" d="M958.95,925.26 C958.95,959.7 958.95,990.98 958.95,1019.49" fill="none" id="UniEmployee-to-UniPosition" style="stroke:#181818;stroke-width:1;"/><polygon fill="#181818" points="958.95,1025.49,962.95,1016.49,958.95,1020.49,954.95,1016.49,958.95,1025.49" style="stroke:#181818;stroke-width:1;"/></g><!--reverse link EmployeeFactory to EmployeeFactoryImpl--><g class="link" data-entity-1="EmployeeFactory" data-entity-2="EmployeeFactoryImpl" data-source-line="83" data-uid="lnk15" id="link_EmployeeFactory_EmployeeFactoryImpl"><path codeLine="83" d="M1304.925,122.265 C1303.215,164.105 1300.95,219.54 1299.24,261.35" fill="none" id="EmployeeFactory-backto-EmployeeFactoryImpl" style="stroke:#181818;stroke-width:1;stroke-dasharray:7,7;"/><polygon fill="none" points="1305.66,104.28,1298.93,122.02,1310.9199,122.51,1305.66,104.28" style="stroke:#181818;stroke-width:1;"/></g><!--reverse link FileService to EmployeeFileService--><g class="link" data-entity-1="FileService" data-entity-2="EmployeeFileService" data-source-line="96" data-uid="lnk18" id="link_FileService_EmployeeFileService"><path codeLine="96" d="M214.95,130.35 C214.95,170.2 214.95,213.31 214.95,253.17" fill="none" id="FileService-backto-EmployeeFileService" style="stroke:#181818;stroke-width:1;stroke-dasharray:7,7;"/><polygon fill="none" points="214.95,112.35,208.95,130.35,220.95,130.35,214.95,112.35" style="stroke:#181818;stroke-width:1;"/></g><!--link EmployeeFileService to Employee--><g class="link" data-entity-1="EmployeeFileService" data-entity-2="Employee" data-source-line="97" data-uid="lnk19" id="link_EmployeeFileService_Employee"><path codeLine="97" d="M284.34,334.58 C338.68,365.71 411.394,407.3772 481.854,447.7472" fill="none" id="EmployeeFileService-to-Employee" style="stroke:#181818;stroke-width:1;"/><polygon fill="#181818" points="487.06,450.73,481.2395,442.7851,482.7216,448.2443,477.2624,449.7265,487.06,450.73" style="stroke:#181818;stroke-width:1;"/></g><!--reverse link ListIterator to EmployeeIterator--><g class="link" data-entity-1="ListIterator" data-entity-2="EmployeeIterator" data-source-line="117" data-uid="lnk22" id="link_ListIterator_EmployeeIterator"><path codeLine="117" d="M976.3861,145.7677 C968.5161,171.2377 964.37,184.67 955.75,212.55" fill="none" id="ListIterator-backto-EmployeeIterator" style="stroke:#181818;stroke-width:1;stroke-dasharray:7,7;"/><polygon fill="none" points="981.7,128.57,970.6535,143.9964,982.1186,147.539,981.7,128.57" style="stroke:#181818;stroke-width:1;"/></g><!--link EmployeeIterator to Employee--><g class="link" data-entity-1="EmployeeIterator" data-entity-2="Employee" data-source-line="118" data-uid="lnk23" id="link_EmployeeIterator_Employee"><path codeLine="118" d="M843.56,375.12 C817.3,399.25 792.6286,421.921 765.3486,446.981" fill="none" id="EmployeeIterator-to-Employee" style="stroke:#181818;stroke-width:1;"/><polygon fill="#181818" points="760.93,451.04,770.264,447.8972,764.6122,447.6575,764.8519,442.0057,760.93,451.04" style="stroke:#181818;stroke-width:1;"/></g><!--link App to EmployeeFileService--><g class="link" data-entity-1="App" data-entity-2="EmployeeFileService" data-source-line="129" data-uid="lnk25" id="link_App_EmployeeFileService"><path codeLine="129" d="M594.35,130.75 C545.62,151.47 490.32,175 439.95,196.49 C396.47,215.04 353.8052,233.2971 313.2152,250.6871" fill="none" id="App-to-EmployeeFileService" style="stroke:#181818;stroke-width:1;"/><polygon fill="#181818" points="307.7,253.05,317.548,253.1825,312.296,251.081,314.3975,245.8289,307.7,253.05" style="stroke:#181818;stroke-width:1;"/></g><!--link App to EmployeeIterator--><g class="link" data-entity-1="App" data-entity-2="EmployeeIterator" data-source-line="130" data-uid="lnk26" id="link_App_EmployeeIterator"><path codeLine="130" d="M789.07,136.7 C810.63,160.43 831.3347,183.2097 854.0547,208.2097" fill="none" id="App-to-EmployeeIterator" style="stroke:#181818;stroke-width:1;"/><polygon fill="#181818" points="858.09,212.65,854.9972,203.2994,854.7272,208.9498,849.0768,208.6798,858.09,212.65" style="stroke:#181818;stroke-width:1;"/></g><!--link App to EmployeeFactoryImpl--><g class="link" data-entity-1="App" data-entity-2="EmployeeFactoryImpl" data-source-line="131" data-uid="lnk27" id="link_App_EmployeeFactoryImpl"><path codeLine="131" d="M867.54,130.13 C873.4,132.33 879.22,134.46 884.95,136.49 C972.8,167.69 998.64,163.8 1085.95,196.49 C1136.87,215.56 1187.4035,238.5781 1229.0235,258.6081" fill="none" id="App-to-EmployeeFactoryImpl" style="stroke:#181818;stroke-width:1;"/><polygon fill="#181818" points="1234.43,261.21,1228.0549,253.7028,1229.9246,259.0417,1224.5857,260.9114,1234.43,261.21" style="stroke:#181818;stroke-width:1;"/></g><!--link App to Employee--><g class="link" data-entity-1="App" data-entity-2="Employee" data-source-line="132" data-uid="lnk28" id="link_App_Employee"><path codeLine="132" d="M729.53,136.73 C727.15,201.42 720.82,304.01 703.95,391.16 C700.17,410.67 696.5529,425.4409 690.8429,444.9809" fill="none" id="App-to-Employee" style="stroke:#181818;stroke-width:1;"/><polygon fill="#181818" points="689.16,450.74,695.5238,443.2233,690.5625,445.9407,687.845,440.9793,689.16,450.74" style="stroke:#181818;stroke-width:1;"/></g><!--SRC=[pPPDSjem583tFeLsWG5o08PcXYQcGoSG1iXqqUb20OMgjIL6Klv8UeWU8SkiUmIcz-gJPScoR5fWLHP6VdzwxtlFia_Gk-o7-WbU8outQlkQFEN2Q95WAT642CaPUeuGwY26KuAwQAO4PQjCWbTQG9c2krPktD1cNMFKrXPTq3Tz0tEp8ceCbesc7xA5P2xsecYBUqwNrgs_CbvsNsb4UXlVKd7Zxk_m8ufERDbnkaxu4o5e-oPHGkHc-ofIlE5AOLgcu2mDXmSklgyJl0XWI9nWyUJbPTrgYRIBC4vb8XIyN017x9FrgS5MwEgnpRBe8RbSkYSymsCu3uYikQIAmg1qqIHV6hdWtyX2bJdTO4bc8QiYvDwqxAPTksNRxcVd9epiC4wCNGr4gwb7Q7VA7BrAZQjLsaNe_TuL7ZR1qnpKY6j6z-n4BNJF_NZgpKgevl-7Yx2x52R1RfN16exdyNGCYu_Nu-7L51QZ-C8iPh6LzCVz3_7KXO0oIp4cqwi1_5t6v_FhQQmz-XUZuLZRvqTdxwNJSGzovBgLYOlH31GUpSXxs3gTCw-8oE- -Ldd9USVS02yKXxPFi594C7ko0JWYRlKXPcDOm-SCv48Gh8ZhQJW86gzBqSrZ46e8jyU52tFglPoUraNtwwG9cH5nJw4aUEf1ILB2u9sseDjVrQezyzxyBC_oGL15vbph6hTmAJqK2PMgUmaNi2_D79Is70YUrhbfmzod1fENya49s017vE5STJf-0cN4XIAgorQFc-jNqOCXqCNGczt3fdEmLWLt_Ir07irvFBUIypiXe86nwQEd-uhbY0lp2hpXF26OvVN3sM23DnoQ2dQNfJaoIIxMgLKfQGlAbkInviNkzWgQKgd9eTfTMiday0fzhkLMMcbKANz74mU_Vy9xT2LmMluAwg_NER6xuk3v2pJrBviMIZ5b3InMCf_IprzA0qqPLOsIXB1bgMoTar-6FxUXpe6eE7ddIQZx0m00]--></g></svg>