<svg xmlns="http://www.w3.org/2000/svg" xmlns:xlink="http://www.w3.org/1999/xlink" contentStyleType="text/css" data-diagram-type="CLASS" height="1384px" preserveAspectRatio="none" style="width:1537px;height:1384px;background:#FFFFFF;" version="1.1" viewBox="0 0 1537 1384" width="1537px" zoomAndPan="magnify"><defs/><g><!--class Person--><g class="entity" data-entity="Person" data-source-line="2" data-uid="ent0002" id="entity_Person"><rect fill="#F1F1F1" height="194.6719" rx="2.5" ry="2.5" style="stroke:#181818;stroke-width:0.5;" width="229.0684" x="7" y="434.86"/><ellipse cx="93.5122" cy="450.86" fill="#ADD1B2" rx="11" ry="11" style="stroke:#181818;stroke-width:1;"/><path d="M96.481,456.5006 Q95.9028,456.7975 95.2622,456.9381 Q94.6216,457.0944 93.9185,457.0944 Q91.4185,457.0944 90.0903,455.4538 Q88.7778,453.7975 88.7778,450.6725 Q88.7778,447.5475 90.0903,445.8913 Q91.4185,444.235 93.9185,444.235 Q94.6216,444.235 95.2622,444.3913 Q95.9185,444.5475 96.481,444.8444 L96.481,447.5631 Q95.856,446.985 95.2622,446.7194 Q94.6685,446.4381 94.0435,446.4381 Q92.6997,446.4381 92.0122,447.5163 Q91.3247,448.5788 91.3247,450.6725 Q91.3247,452.7663 92.0122,453.8444 Q92.6997,454.9069 94.0435,454.9069 Q94.6685,454.9069 95.2622,454.6413 Q95.856,454.36 96.481,453.7819 L96.481,456.5006 Z " fill="#000000"/><text fill="#000000" font-family="sans-serif" font-size="14" lengthAdjust="spacing" textLength="47.5439" x="114.0122" y="455.7067">Person</text><line style="stroke:#181818;stroke-width:0.5;" x1="8" x2="235.0684" y1="466.86" y2="466.86"/><rect fill="none" height="6" style="stroke:#C82930;stroke-width:1;" width="6" x="15" y="477.5084"/><text fill="#000000" font-family="sans-serif" font-size="14" lengthAdjust="spacing" textLength="95.1016" x="27" y="483.8551">name : String</text><rect fill="none" height="6" style="stroke:#C82930;stroke-width:1;" width="6" x="15" y="493.8053"/><text fill="#000000" font-family="sans-serif" font-size="14" lengthAdjust="spacing" textLength="57.9482" x="27" y="500.152">age : int</text><line style="stroke:#181818;stroke-width:0.5;" x1="8" x2="235.0684" y1="507.4538" y2="507.4538"/><ellipse cx="18" cy="521.1022" fill="#84BE84" rx="3" ry="3" style="stroke:#038048;stroke-width:1;"/><text fill="#000000" font-family="sans-serif" font-size="14" lengthAdjust="spacing" textLength="202.6172" x="27" y="524.4489">Person(name:String, age:int)</text><ellipse cx="18" cy="537.3991" fill="#84BE84" rx="3" ry="3" style="stroke:#038048;stroke-width:1;"/><text fill="#000000" font-family="sans-serif" font-size="14" lengthAdjust="spacing" textLength="58.4678" x="27" y="540.7457">Person()</text><ellipse cx="18" cy="553.6959" fill="#84BE84" rx="3" ry="3" style="stroke:#038048;stroke-width:1;"/><text fill="#000000" font-family="sans-serif" font-size="14" lengthAdjust="spacing" textLength="130.6143" x="27" y="557.0426">getName() : String</text><ellipse cx="18" cy="569.9928" fill="#84BE84" rx="3" ry="3" style="stroke:#038048;stroke-width:1;"/><text fill="#000000" font-family="sans-serif" font-size="14" lengthAdjust="spacing" textLength="203.0684" x="27" y="573.3395">setName(name:String) : void</text><ellipse cx="18" cy="586.2897" fill="#84BE84" rx="3" ry="3" style="stroke:#038048;stroke-width:1;"/><text fill="#000000" font-family="sans-serif" font-size="14" lengthAdjust="spacing" textLength="92.8594" x="27" y="589.6364">getAge() : int</text><ellipse cx="18" cy="602.5866" fill="#84BE84" rx="3" ry="3" style="stroke:#038048;stroke-width:1;"/><text fill="#000000" font-family="sans-serif" font-size="14" lengthAdjust="spacing" textLength="151.6895" x="27" y="605.9332">setAge(age:int) : void</text><ellipse cx="18" cy="618.8834" fill="#84BE84" rx="3" ry="3" style="stroke:#038048;stroke-width:1;"/><text fill="#000000" font-family="sans-serif" font-size="14" lengthAdjust="spacing" textLength="122.1582" x="27" y="622.2301">toString() : String</text></g><!--class Employee--><g class="entity" data-entity="Employee" data-source-line="15" data-uid="ent0003" id="entity_Employee"><rect fill="#F1F1F1" height="194.6719" rx="2.5" ry="2.5" style="stroke:#181818;stroke-width:0.5;" width="451.6055" x="648.73" y="689.53"/><ellipse cx="835.6143" cy="705.53" fill="#ADD1B2" rx="11" ry="11" style="stroke:#181818;stroke-width:1;"/><path d="M838.583,711.1706 Q838.0049,711.4675 837.3643,711.6081 Q836.7237,711.7644 836.0205,711.7644 Q833.5205,711.7644 832.1924,710.1238 Q830.8799,708.4675 830.8799,705.3425 Q830.8799,702.2175 832.1924,700.5613 Q833.5205,698.905 836.0205,698.905 Q836.7237,698.905 837.3643,699.0613 Q838.0205,699.2175 838.583,699.5144 L838.583,702.2331 Q837.958,701.655 837.3643,701.3894 Q836.7705,701.1081 836.1455,701.1081 Q834.8018,701.1081 834.1143,702.1863 Q833.4268,703.2488 833.4268,705.3425 Q833.4268,707.4363 834.1143,708.5144 Q834.8018,709.5769 836.1455,709.5769 Q836.7705,709.5769 837.3643,709.3113 Q837.958,709.03 838.583,708.4519 L838.583,711.1706 Z " fill="#000000"/><text fill="#000000" font-family="sans-serif" font-size="14" lengthAdjust="spacing" textLength="69.3369" x="856.1143" y="710.3767">Employee</text><line style="stroke:#181818;stroke-width:0.5;" x1="649.73" x2="1099.3355" y1="721.53" y2="721.53"/><rect fill="none" height="6" style="stroke:#C82930;stroke-width:1;" width="6" x="656.73" y="732.1784"/><text fill="#000000" font-family="sans-serif" font-size="14" lengthAdjust="spacing" textLength="126.9434" x="668.73" y="738.5251">workplace : String</text><rect fill="none" height="6" style="stroke:#C82930;stroke-width:1;" width="6" x="656.73" y="748.4753"/><text fill="#000000" font-family="sans-serif" font-size="14" lengthAdjust="spacing" textLength="74.252" x="668.73" y="754.822">salary : int</text><line style="stroke:#181818;stroke-width:0.5;" x1="649.73" x2="1099.3355" y1="762.1238" y2="762.1238"/><ellipse cx="659.73" cy="775.7722" fill="#84BE84" rx="3" ry="3" style="stroke:#038048;stroke-width:1;"/><text fill="#000000" font-family="sans-serif" font-size="14" lengthAdjust="spacing" textLength="425.6055" x="668.73" y="779.1189">Employee(name:String, age:int, workplace:String, salary:int)</text><ellipse cx="659.73" cy="792.0691" fill="#84BE84" rx="3" ry="3" style="stroke:#038048;stroke-width:1;"/><text fill="#000000" font-family="sans-serif" font-size="14" lengthAdjust="spacing" textLength="80.2607" x="668.73" y="795.4157">Employee()</text><ellipse cx="659.73" cy="808.3659" fill="#84BE84" rx="3" ry="3" style="stroke:#038048;stroke-width:1;"/><text fill="#000000" font-family="sans-serif" font-size="14" lengthAdjust="spacing" textLength="163.249" x="668.73" y="811.7126">getWorkplace() : String</text><ellipse cx="659.73" cy="824.6628" fill="#84BE84" rx="3" ry="3" style="stroke:#038048;stroke-width:1;"/><text fill="#000000" font-family="sans-serif" font-size="14" lengthAdjust="spacing" textLength="267.5449" x="668.73" y="828.0095">setWorkplace(workplace:String) : void</text><ellipse cx="659.73" cy="840.9597" fill="#84BE84" rx="3" ry="3" style="stroke:#038048;stroke-width:1;"/><text fill="#000000" font-family="sans-serif" font-size="14" lengthAdjust="spacing" textLength="109.7578" x="668.73" y="844.3064">getSalary() : int</text><ellipse cx="659.73" cy="857.2566" fill="#84BE84" rx="3" ry="3" style="stroke:#038048;stroke-width:1;"/><text fill="#000000" font-family="sans-serif" font-size="14" lengthAdjust="spacing" textLength="184.8916" x="668.73" y="860.6032">setSalary(salary:int) : void</text><ellipse cx="659.73" cy="873.5534" fill="#84BE84" rx="3" ry="3" style="stroke:#038048;stroke-width:1;"/><text fill="#000000" font-family="sans-serif" font-size="14" lengthAdjust="spacing" textLength="122.1582" x="668.73" y="876.9001">toString() : String</text></g><!--class ITEmployee--><g class="entity" data-entity="ITEmployee" data-source-line="27" data-uid="ent0004" id="entity_ITEmployee"><rect fill="#F1F1F1" height="243.5625" rx="2.5" ry="2.5" style="stroke:#181818;stroke-width:0.5;" width="631.0898" x="246.99" y="944.2"/><ellipse cx="517.2761" cy="960.2" fill="#ADD1B2" rx="11" ry="11" style="stroke:#181818;stroke-width:1;"/><path d="M520.2449,965.8406 Q519.6668,966.1375 519.0261,966.2781 Q518.3855,966.4344 517.6824,966.4344 Q515.1824,966.4344 513.8543,964.7938 Q512.5418,963.1375 512.5418,960.0125 Q512.5418,956.8875 513.8543,955.2313 Q515.1824,953.575 517.6824,953.575 Q518.3855,953.575 519.0261,953.7313 Q519.6824,953.8875 520.2449,954.1844 L520.2449,956.9031 Q519.6199,956.325 519.0261,956.0594 Q518.4324,955.7781 517.8074,955.7781 Q516.4636,955.7781 515.7761,956.8563 Q515.0886,957.9188 515.0886,960.0125 Q515.0886,962.1063 515.7761,963.1844 Q516.4636,964.2469 517.8074,964.2469 Q518.4324,964.2469 519.0261,963.9813 Q519.6199,963.7 520.2449,963.1219 L520.2449,965.8406 Z " fill="#000000"/><text fill="#000000" font-family="sans-serif" font-size="14" lengthAdjust="spacing" textLength="82.0176" x="537.7761" y="965.0467">ITEmployee</text><line style="stroke:#181818;stroke-width:0.5;" x1="247.99" x2="877.0798" y1="976.2" y2="976.2"/><rect fill="none" height="6" style="stroke:#C82930;stroke-width:1;" width="6" x="254.99" y="986.8484"/><text fill="#000000" font-family="sans-serif" font-size="14" lengthAdjust="spacing" textLength="136.7598" x="266.99" y="993.1951">position : ITPosition</text><rect fill="none" height="6" style="stroke:#C82930;stroke-width:1;" width="6" x="254.99" y="1003.1453"/><text fill="#000000" font-family="sans-serif" font-size="14" lengthAdjust="spacing" textLength="104.2959" x="266.99" y="1009.492">project : String</text><rect fill="none" height="6" style="stroke:#C82930;stroke-width:1;" width="6" x="254.99" y="1019.4422"/><text fill="#000000" font-family="sans-serif" font-size="14" lengthAdjust="spacing" textLength="109.2178" x="266.99" y="1025.7889">baseSalary : int</text><line style="stroke:#181818;stroke-width:0.5;" x1="247.99" x2="877.0798" y1="1033.0906" y2="1033.0906"/><ellipse cx="257.99" cy="1046.7391" fill="#84BE84" rx="3" ry="3" style="stroke:#038048;stroke-width:1;"/><text fill="#000000" font-family="sans-serif" font-size="14" lengthAdjust="spacing" textLength="605.0898" x="266.99" y="1050.0857">ITEmployee(name:String, age:int, workplace:String, position:ITPosition, project:String)</text><ellipse cx="257.99" cy="1063.0359" fill="#84BE84" rx="3" ry="3" style="stroke:#038048;stroke-width:1;"/><text fill="#000000" font-family="sans-serif" font-size="14" lengthAdjust="spacing" textLength="92.9414" x="266.99" y="1066.3826">ITEmployee()</text><ellipse cx="257.99" cy="1079.3328" fill="#84BE84" rx="3" ry="3" style="stroke:#038048;stroke-width:1;"/><text fill="#000000" font-family="sans-serif" font-size="14" lengthAdjust="spacing" textLength="137.7646" x="266.99" y="1082.6795">getProject() : String</text><ellipse cx="257.99" cy="1095.6297" fill="#84BE84" rx="3" ry="3" style="stroke:#038048;stroke-width:1;"/><text fill="#000000" font-family="sans-serif" font-size="14" lengthAdjust="spacing" textLength="219.4131" x="266.99" y="1098.9764">setProject(project:String) : void</text><ellipse cx="257.99" cy="1111.9266" fill="#84BE84" rx="3" ry="3" style="stroke:#038048;stroke-width:1;"/><text fill="#000000" font-family="sans-serif" font-size="14" lengthAdjust="spacing" textLength="170.2285" x="266.99" y="1115.2732">getPosition() : ITPosition</text><ellipse cx="257.99" cy="1128.2234" fill="#84BE84" rx="3" ry="3" style="stroke:#038048;stroke-width:1;"/><text fill="#000000" font-family="sans-serif" font-size="14" lengthAdjust="spacing" textLength="258.4326" x="266.99" y="1131.5701">setPosition(position:ITPosition) : void</text><ellipse cx="257.99" cy="1144.5203" fill="#84BE84" rx="3" ry="3" style="stroke:#038048;stroke-width:1;"/><text fill="#000000" font-family="sans-serif" font-size="14" lengthAdjust="spacing" textLength="143.8486" x="266.99" y="1147.867">getBaseSalary() : int</text><ellipse cx="257.99" cy="1160.8172" fill="#84BE84" rx="3" ry="3" style="stroke:#038048;stroke-width:1;"/><text fill="#000000" font-family="sans-serif" font-size="14" lengthAdjust="spacing" textLength="253.9482" x="266.99" y="1164.1639">setBaseSalary(baseSalary:int) : void</text><ellipse cx="257.99" cy="1177.1141" fill="#84BE84" rx="3" ry="3" style="stroke:#038048;stroke-width:1;"/><text fill="#000000" font-family="sans-serif" font-size="14" lengthAdjust="spacing" textLength="122.1582" x="266.99" y="1180.4607">toString() : String</text></g><!--class UniEmployee--><g class="entity" data-entity="UniEmployee" data-source-line="42" data-uid="ent0005" id="entity_UniEmployee"><rect fill="#F1F1F1" height="194.6719" rx="2.5" ry="2.5" style="stroke:#181818;stroke-width:0.5;" width="547.4521" x="912.81" y="968.65"/><ellipse cx="1136.1127" cy="984.65" fill="#ADD1B2" rx="11" ry="11" style="stroke:#181818;stroke-width:1;"/><path d="M1139.0815,990.2906 Q1138.5034,990.5875 1137.8627,990.7281 Q1137.2221,990.8844 1136.519,990.8844 Q1134.019,990.8844 1132.6909,989.2438 Q1131.3784,987.5875 1131.3784,984.4625 Q1131.3784,981.3375 1132.6909,979.6813 Q1134.019,978.025 1136.519,978.025 Q1137.2221,978.025 1137.8627,978.1813 Q1138.519,978.3375 1139.0815,978.6344 L1139.0815,981.3531 Q1138.4565,980.775 1137.8627,980.5094 Q1137.269,980.2281 1136.644,980.2281 Q1135.3002,980.2281 1134.6127,981.3063 Q1133.9252,982.3688 1133.9252,984.4625 Q1133.9252,986.5563 1134.6127,987.6344 Q1135.3002,988.6969 1136.644,988.6969 Q1137.269,988.6969 1137.8627,988.4313 Q1138.4565,988.15 1139.0815,987.5719 L1139.0815,990.2906 Z " fill="#000000"/><text fill="#000000" font-family="sans-serif" font-size="14" lengthAdjust="spacing" textLength="92.3467" x="1156.6127" y="989.4967">UniEmployee</text><line style="stroke:#181818;stroke-width:0.5;" x1="913.81" x2="1459.2621" y1="1000.65" y2="1000.65"/><rect fill="none" height="6" style="stroke:#C82930;stroke-width:1;" width="6" x="920.81" y="1011.2984"/><text fill="#000000" font-family="sans-serif" font-size="14" lengthAdjust="spacing" textLength="147.0889" x="932.81" y="1017.6451">position : UniPosition</text><rect fill="none" height="6" style="stroke:#C82930;stroke-width:1;" width="6" x="920.81" y="1027.5953"/><text fill="#000000" font-family="sans-serif" font-size="14" lengthAdjust="spacing" textLength="109.2178" x="932.81" y="1033.942">baseSalary : int</text><line style="stroke:#181818;stroke-width:0.5;" x1="913.81" x2="1459.2621" y1="1041.2438" y2="1041.2438"/><ellipse cx="923.81" cy="1054.8922" fill="#84BE84" rx="3" ry="3" style="stroke:#038048;stroke-width:1;"/><text fill="#000000" font-family="sans-serif" font-size="14" lengthAdjust="spacing" textLength="521.4521" x="932.81" y="1058.2389">UniEmployee(name:String, age:int, workplace:String, position:UniPosition)</text><ellipse cx="923.81" cy="1071.1891" fill="#84BE84" rx="3" ry="3" style="stroke:#038048;stroke-width:1;"/><text fill="#000000" font-family="sans-serif" font-size="14" lengthAdjust="spacing" textLength="103.2705" x="932.81" y="1074.5357">UniEmployee()</text><ellipse cx="923.81" cy="1087.4859" fill="#84BE84" rx="3" ry="3" style="stroke:#038048;stroke-width:1;"/><text fill="#000000" font-family="sans-serif" font-size="14" lengthAdjust="spacing" textLength="180.5576" x="932.81" y="1090.8326">getPosition() : UniPosition</text><ellipse cx="923.81" cy="1103.7828" fill="#84BE84" rx="3" ry="3" style="stroke:#038048;stroke-width:1;"/><text fill="#000000" font-family="sans-serif" font-size="14" lengthAdjust="spacing" textLength="268.7617" x="932.81" y="1107.1295">setPosition(position:UniPosition) : void</text><ellipse cx="923.81" cy="1120.0797" fill="#84BE84" rx="3" ry="3" style="stroke:#038048;stroke-width:1;"/><text fill="#000000" font-family="sans-serif" font-size="14" lengthAdjust="spacing" textLength="143.8486" x="932.81" y="1123.4264">getBaseSalary() : int</text><ellipse cx="923.81" cy="1136.3766" fill="#84BE84" rx="3" ry="3" style="stroke:#038048;stroke-width:1;"/><text fill="#000000" font-family="sans-serif" font-size="14" lengthAdjust="spacing" textLength="253.9482" x="932.81" y="1139.7232">setBaseSalary(baseSalary:int) : void</text><ellipse cx="923.81" cy="1152.6734" fill="#84BE84" rx="3" ry="3" style="stroke:#038048;stroke-width:1;"/><text fill="#000000" font-family="sans-serif" font-size="14" lengthAdjust="spacing" textLength="122.1582" x="932.81" y="1156.0201">toString() : String</text></g><!--class ITPosition--><g class="entity" data-entity="ITPosition" data-source-line="55" data-uid="ent0006" id="entity_ITPosition"><rect fill="#F1F1F1" height="129.4844" rx="2.5" ry="2.5" style="stroke:#181818;stroke-width:0.5;" width="99.6895" x="512.69" y="1247.77"/><ellipse cx="527.69" cy="1263.77" fill="#EB937F" rx="11" ry="11" style="stroke:#181818;stroke-width:1;"/><path d="M531.7994,1269.77 L524.0806,1269.77 L524.0806,1257.3794 L531.7994,1257.3794 L531.7994,1259.5356 L526.5338,1259.5356 L526.5338,1262.2075 L531.2994,1262.2075 L531.2994,1264.3638 L526.5338,1264.3638 L526.5338,1267.6138 L531.7994,1267.6138 L531.7994,1269.77 Z " fill="#000000"/><text fill="#000000" font-family="sans-serif" font-size="14" lengthAdjust="spacing" textLength="67.6895" x="541.69" y="1268.6167">ITPosition</text><line style="stroke:#181818;stroke-width:0.5;" x1="513.69" x2="611.3795" y1="1279.77" y2="1279.77"/><text fill="#000000" font-family="sans-serif" font-size="14" lengthAdjust="spacing" textLength="52.1992" x="518.69" y="1296.7651">INTERN</text><text fill="#000000" font-family="sans-serif" font-size="14" lengthAdjust="spacing" textLength="49.7246" x="518.69" y="1313.062">JUNIOR</text><text fill="#000000" font-family="sans-serif" font-size="14" lengthAdjust="spacing" textLength="56.5811" x="518.69" y="1329.3589">MEDIOR</text><text fill="#000000" font-family="sans-serif" font-size="14" lengthAdjust="spacing" textLength="53.0811" x="518.69" y="1345.6557">SENIOR</text><text fill="#000000" font-family="sans-serif" font-size="14" lengthAdjust="spacing" textLength="71.1279" x="518.69" y="1361.9526">MANAGER</text><line style="stroke:#181818;stroke-width:0.5;" x1="513.69" x2="611.3795" y1="1369.2544" y2="1369.2544"/></g><!--class UniPosition--><g class="entity" data-entity="UniPosition" data-source-line="63" data-uid="ent0007" id="entity_UniPosition"><rect fill="#F1F1F1" height="96.8906" rx="2.5" ry="2.5" style="stroke:#181818;stroke-width:0.5;" width="110.0186" x="1131.52" y="1264.06"/><ellipse cx="1146.52" cy="1280.06" fill="#EB937F" rx="11" ry="11" style="stroke:#181818;stroke-width:1;"/><path d="M1150.6294,1286.06 L1142.9106,1286.06 L1142.9106,1273.6694 L1150.6294,1273.6694 L1150.6294,1275.8256 L1145.3638,1275.8256 L1145.3638,1278.4975 L1150.1294,1278.4975 L1150.1294,1280.6538 L1145.3638,1280.6538 L1145.3638,1283.9038 L1150.6294,1283.9038 L1150.6294,1286.06 Z " fill="#000000"/><text fill="#000000" font-family="sans-serif" font-size="14" lengthAdjust="spacing" textLength="78.0186" x="1160.52" y="1284.9067">UniPosition</text><line style="stroke:#181818;stroke-width:0.5;" x1="1132.52" x2="1240.5386" y1="1296.06" y2="1296.06"/><text fill="#000000" font-family="sans-serif" font-size="14" lengthAdjust="spacing" textLength="37.2422" x="1137.52" y="1313.0551">PROF</text><text fill="#000000" font-family="sans-serif" font-size="14" lengthAdjust="spacing" textLength="73.5205" x="1137.52" y="1329.352">LECTURER</text><text fill="#000000" font-family="sans-serif" font-size="14" lengthAdjust="spacing" textLength="47.0381" x="1137.52" y="1345.6489">ADMIN</text><line style="stroke:#181818;stroke-width:0.5;" x1="1132.52" x2="1240.5386" y1="1352.9506" y2="1352.9506"/></g><!--class EmployeeFactory--><g class="entity" data-entity="EmployeeFactory" data-source-line="76" data-uid="ent0013" id="entity_EmployeeFactory"><rect fill="#F1F1F1" height="64.2969" rx="2.5" ry="2.5" style="stroke:#181818;stroke-width:0.5;" width="352.0059" x="558.53" y="39.59"/><ellipse cx="669.4021" cy="55.59" fill="#B4A7E5" rx="11" ry="11" style="stroke:#181818;stroke-width:1;"/><path d="M665.3239,51.3556 L665.3239,49.1994 L672.7146,49.1994 L672.7146,51.3556 L670.2458,51.3556 L670.2458,59.4337 L672.7146,59.4337 L672.7146,61.59 L665.3239,61.59 L665.3239,59.4337 L667.7927,59.4337 L667.7927,51.3556 L665.3239,51.3556 Z " fill="#000000"/><text fill="#000000" font-family="sans-serif" font-size="14" font-style="italic" lengthAdjust="spacing" textLength="121.7617" x="689.9021" y="60.4367">EmployeeFactory</text><line style="stroke:#181818;stroke-width:0.5;" x1="559.53" x2="909.5359" y1="71.59" y2="71.59"/><line style="stroke:#181818;stroke-width:0.5;" x1="559.53" x2="909.5359" y1="79.59" y2="79.59"/><ellipse cx="569.53" cy="93.2384" fill="#84BE84" rx="3" ry="3" style="stroke:#038048;stroke-width:1;"/><text fill="#000000" font-family="sans-serif" font-size="14" lengthAdjust="spacing" textLength="326.0059" x="578.53" y="96.5851">createEmployee(workplace:String) : Employee</text></g><!--class EmployeeFactoryImpl--><g class="entity" data-entity="EmployeeFactoryImpl" data-source-line="80" data-uid="ent0014" id="entity_EmployeeFactoryImpl"><rect fill="#F1F1F1" height="64.2969" rx="2.5" ry="2.5" style="stroke:#181818;stroke-width:0.5;" width="352.0059" x="698.53" y="253.52"/><ellipse cx="794.1306" cy="269.52" fill="#ADD1B2" rx="11" ry="11" style="stroke:#181818;stroke-width:1;"/><path d="M797.0993,275.1606 Q796.5212,275.4575 795.8806,275.5981 Q795.24,275.7544 794.5368,275.7544 Q792.0368,275.7544 790.7087,274.1138 Q789.3962,272.4575 789.3962,269.3325 Q789.3962,266.2075 790.7087,264.5513 Q792.0368,262.895 794.5368,262.895 Q795.24,262.895 795.8806,263.0513 Q796.5368,263.2075 797.0993,263.5044 L797.0993,266.2231 Q796.4743,265.645 795.8806,265.3794 Q795.2868,265.0981 794.6618,265.0981 Q793.3181,265.0981 792.6306,266.1763 Q791.9431,267.2388 791.9431,269.3325 Q791.9431,271.4263 792.6306,272.5044 Q793.3181,273.5669 794.6618,273.5669 Q795.2868,273.5669 795.8806,273.3013 Q796.4743,273.02 797.0993,272.4419 L797.0993,275.1606 Z " fill="#000000"/><text fill="#000000" font-family="sans-serif" font-size="14" lengthAdjust="spacing" textLength="152.3047" x="814.6306" y="274.3667">EmployeeFactoryImpl</text><line style="stroke:#181818;stroke-width:0.5;" x1="699.53" x2="1049.5359" y1="285.52" y2="285.52"/><line style="stroke:#181818;stroke-width:0.5;" x1="699.53" x2="1049.5359" y1="293.52" y2="293.52"/><ellipse cx="709.53" cy="307.1684" fill="#84BE84" rx="3" ry="3" style="stroke:#038048;stroke-width:1;"/><text fill="#000000" font-family="sans-serif" font-size="14" lengthAdjust="spacing" textLength="326.0059" x="718.53" y="310.5151">createEmployee(workplace:String) : Employee</text></g><!--class FileService--><g class="entity" data-entity="FileService" data-source-line="88" data-uid="ent0017" id="entity_FileService"><rect fill="#F1F1F1" height="80.5938" rx="2.5" ry="2.5" style="stroke:#181818;stroke-width:0.5;" width="410.9521" x="34.06" y="31.45"/><ellipse cx="191.5278" cy="47.45" fill="#B4A7E5" rx="11" ry="11" style="stroke:#181818;stroke-width:1;"/><path d="M187.4496,43.2156 L187.4496,41.0594 L194.8403,41.0594 L194.8403,43.2156 L192.3715,43.2156 L192.3715,51.2938 L194.8403,51.2938 L194.8403,53.45 L187.4496,53.45 L187.4496,51.2938 L189.9184,51.2938 L189.9184,43.2156 L187.4496,43.2156 Z " fill="#000000"/><text fill="#000000" font-family="sans-serif" font-size="14" font-style="italic" lengthAdjust="spacing" textLength="76.1865" x="212.0278" y="52.2967">FileService</text><rect fill="#FFFFFF" height="15.9688" style="stroke:#181818;stroke-width:1;stroke-dasharray:2,2;" width="9.3301" x="438.6821" y="28.45"/><text fill="#000000" font-family="sans-serif" font-size="12" font-style="italic" lengthAdjust="spacing" textLength="7.3301" x="439.6821" y="40.5887">T</text><line style="stroke:#181818;stroke-width:0.5;" x1="35.06" x2="444.0121" y1="63.45" y2="63.45"/><line style="stroke:#181818;stroke-width:0.5;" x1="35.06" x2="444.0121" y1="71.45" y2="71.45"/><ellipse cx="45.06" cy="85.0984" fill="#84BE84" rx="3" ry="3" style="stroke:#038048;stroke-width:1;"/><text fill="#000000" font-family="sans-serif" font-size="14" lengthAdjust="spacing" textLength="384.9521" x="54.06" y="88.4451">writeToFile(filename:String, employees:List&lt;T&gt;) : void</text><ellipse cx="45.06" cy="101.3953" fill="#84BE84" rx="3" ry="3" style="stroke:#038048;stroke-width:1;"/><text fill="#000000" font-family="sans-serif" font-size="14" lengthAdjust="spacing" textLength="280.8408" x="54.06" y="104.742">readFromFile(filename:String) : List&lt;T&gt;</text></g><!--class EmployeeFileService--><g class="entity" data-entity="EmployeeFileService" data-source-line="93" data-uid="ent0018" id="entity_EmployeeFileService"><rect fill="#F1F1F1" height="80.5938" rx="2.5" ry="2.5" style="stroke:#181818;stroke-width:0.5;" width="471.7373" x="270.67" y="491.9"/><ellipse cx="429.5269" cy="507.9" fill="#ADD1B2" rx="11" ry="11" style="stroke:#181818;stroke-width:1;"/><path d="M432.4957,513.5406 Q431.9176,513.8375 431.2769,513.9781 Q430.6363,514.1344 429.9332,514.1344 Q427.4332,514.1344 426.1051,512.4938 Q424.7926,510.8375 424.7926,507.7125 Q424.7926,504.5875 426.1051,502.9313 Q427.4332,501.275 429.9332,501.275 Q430.6363,501.275 431.2769,501.4313 Q431.9332,501.5875 432.4957,501.8844 L432.4957,504.6031 Q431.8707,504.025 431.2769,503.7594 Q430.6832,503.4781 430.0582,503.4781 Q428.7144,503.4781 428.0269,504.5563 Q427.3394,505.6188 427.3394,507.7125 Q427.3394,509.8063 428.0269,510.8844 Q428.7144,511.9469 430.0582,511.9469 Q430.6832,511.9469 431.2769,511.6813 Q431.8707,511.4 432.4957,510.8219 L432.4957,513.5406 Z " fill="#000000"/><text fill="#000000" font-family="sans-serif" font-size="14" lengthAdjust="spacing" textLength="145.5234" x="450.0269" y="512.7467">EmployeeFileService</text><line style="stroke:#181818;stroke-width:0.5;" x1="271.67" x2="741.4073" y1="523.9" y2="523.9"/><line style="stroke:#181818;stroke-width:0.5;" x1="271.67" x2="741.4073" y1="531.9" y2="531.9"/><ellipse cx="281.67" cy="545.5484" fill="#84BE84" rx="3" ry="3" style="stroke:#038048;stroke-width:1;"/><text fill="#000000" font-family="sans-serif" font-size="14" lengthAdjust="spacing" textLength="445.7373" x="290.67" y="548.8951">writeToFile(filename:String, employees:List&lt;Employee&gt;) : void</text><ellipse cx="281.67" cy="561.8453" fill="#84BE84" rx="3" ry="3" style="stroke:#038048;stroke-width:1;"/><text fill="#000000" font-family="sans-serif" font-size="14" lengthAdjust="spacing" textLength="341.626" x="290.67" y="565.192">readFromFile(filename:String) : List&lt;Employee&gt;</text></g><!--class FileServiceProxy--><g class="entity" data-entity="FileServiceProxy" data-source-line="98" data-uid="ent0019" id="entity_FileServiceProxy"><rect fill="#F1F1F1" height="113.1875" rx="2.5" ry="2.5" style="stroke:#181818;stroke-width:0.5;" width="471.7373" x="191.67" y="229.08"/><ellipse cx="365.5284" cy="245.08" fill="#ADD1B2" rx="11" ry="11" style="stroke:#181818;stroke-width:1;"/><path d="M368.4971,250.7206 Q367.919,251.0175 367.2784,251.1581 Q366.6378,251.3144 365.9346,251.3144 Q363.4346,251.3144 362.1065,249.6737 Q360.794,248.0175 360.794,244.8925 Q360.794,241.7675 362.1065,240.1112 Q363.4346,238.455 365.9346,238.455 Q366.6378,238.455 367.2784,238.6112 Q367.9346,238.7675 368.4971,239.0644 L368.4971,241.7831 Q367.8721,241.205 367.2784,240.9394 Q366.6846,240.6581 366.0596,240.6581 Q364.7159,240.6581 364.0284,241.7362 Q363.3409,242.7987 363.3409,244.8925 Q363.3409,246.9862 364.0284,248.0644 Q364.7159,249.1269 366.0596,249.1269 Q366.6846,249.1269 367.2784,248.8612 Q367.8721,248.58 368.4971,248.0019 L368.4971,250.7206 Z " fill="#000000"/><text fill="#000000" font-family="sans-serif" font-size="14" lengthAdjust="spacing" textLength="115.5205" x="386.0284" y="249.9267">FileServiceProxy</text><line style="stroke:#181818;stroke-width:0.5;" x1="192.67" x2="662.4073" y1="261.08" y2="261.08"/><rect fill="none" height="6" style="stroke:#C82930;stroke-width:1;" width="6" x="199.67" y="271.7284"/><text fill="#000000" font-family="sans-serif" font-size="14" lengthAdjust="spacing" textLength="261.1807" x="211.67" y="278.0751">realService : FileService&lt;Employee&gt;</text><line style="stroke:#181818;stroke-width:0.5;" x1="192.67" x2="662.4073" y1="285.3769" y2="285.3769"/><ellipse cx="202.67" cy="299.0253" fill="#84BE84" rx="3" ry="3" style="stroke:#038048;stroke-width:1;"/><text fill="#000000" font-family="sans-serif" font-size="14" lengthAdjust="spacing" textLength="378.7246" x="211.67" y="302.372">FileServiceProxy(realService:FileService&lt;Employee&gt;)</text><ellipse cx="202.67" cy="315.3222" fill="#84BE84" rx="3" ry="3" style="stroke:#038048;stroke-width:1;"/><text fill="#000000" font-family="sans-serif" font-size="14" lengthAdjust="spacing" textLength="445.7373" x="211.67" y="318.6689">writeToFile(filename:String, employees:List&lt;Employee&gt;) : void</text><ellipse cx="202.67" cy="331.6191" fill="#84BE84" rx="3" ry="3" style="stroke:#038048;stroke-width:1;"/><text fill="#000000" font-family="sans-serif" font-size="14" lengthAdjust="spacing" textLength="341.626" x="211.67" y="334.9657">readFromFile(filename:String) : List&lt;Employee&gt;</text></g><!--class ListIterator--><g class="entity" data-entity="ListIterator" data-source-line="111" data-uid="ent0024" id="entity_ListIterator"><rect fill="#F1F1F1" height="113.1875" rx="2.5" ry="2.5" style="stroke:#181818;stroke-width:0.5;" width="224.2354" x="1252.42" y="15.15"/><ellipse cx="1316.1978" cy="31.15" fill="#B4A7E5" rx="11" ry="11" style="stroke:#181818;stroke-width:1;"/><path d="M1312.1197,26.9156 L1312.1197,24.7594 L1319.5103,24.7594 L1319.5103,26.9156 L1317.0416,26.9156 L1317.0416,34.9938 L1319.5103,34.9938 L1319.5103,37.15 L1312.1197,37.15 L1312.1197,34.9938 L1314.5885,34.9938 L1314.5885,26.9156 L1312.1197,26.9156 Z " fill="#000000"/><text fill="#000000" font-family="sans-serif" font-size="14" font-style="italic" lengthAdjust="spacing" textLength="76.8496" x="1336.6978" y="35.9967">ListIterator</text><rect fill="#FFFFFF" height="15.9688" style="stroke:#181818;stroke-width:1;stroke-dasharray:2,2;" width="9.3301" x="1470.3253" y="12.15"/><text fill="#000000" font-family="sans-serif" font-size="12" font-style="italic" lengthAdjust="spacing" textLength="7.3301" x="1471.3253" y="24.2887">T</text><line style="stroke:#181818;stroke-width:0.5;" x1="1253.42" x2="1475.6554" y1="47.15" y2="47.15"/><line style="stroke:#181818;stroke-width:0.5;" x1="1253.42" x2="1475.6554" y1="55.15" y2="55.15"/><ellipse cx="1263.42" cy="68.7984" fill="#84BE84" rx="3" ry="3" style="stroke:#038048;stroke-width:1;"/><text fill="#000000" font-family="sans-serif" font-size="14" lengthAdjust="spacing" textLength="146.9043" x="1272.42" y="72.1451">getNextElement() : T</text><ellipse cx="1263.42" cy="85.0953" fill="#84BE84" rx="3" ry="3" style="stroke:#038048;stroke-width:1;"/><text fill="#000000" font-family="sans-serif" font-size="14" lengthAdjust="spacing" textLength="167.1797" x="1272.42" y="88.442">getCurrentElement() : T</text><ellipse cx="1263.42" cy="101.3922" fill="#84BE84" rx="3" ry="3" style="stroke:#038048;stroke-width:1;"/><text fill="#000000" font-family="sans-serif" font-size="14" lengthAdjust="spacing" textLength="198.2354" x="1272.42" y="104.7389">hasMoreElement() : boolean</text><ellipse cx="1263.42" cy="117.6891" fill="#84BE84" rx="3" ry="3" style="stroke:#038048;stroke-width:1;"/><text fill="#000000" font-family="sans-serif" font-size="14" lengthAdjust="spacing" textLength="142.3105" x="1272.42" y="121.0357">resetIterator() : void</text></g><!--class EmployeeIterator--><g class="entity" data-entity="EmployeeIterator" data-source-line="118" data-uid="ent0025" id="entity_EmployeeIterator"><rect fill="#F1F1F1" height="178.375" rx="2.5" ry="2.5" style="stroke:#181818;stroke-width:0.5;" width="374.2021" x="1156.43" y="196.48"/><ellipse cx="1278.4241" cy="212.48" fill="#ADD1B2" rx="11" ry="11" style="stroke:#181818;stroke-width:1;"/><path d="M1281.3929,218.1206 Q1280.8148,218.4175 1280.1741,218.5581 Q1279.5335,218.7144 1278.8304,218.7144 Q1276.3304,218.7144 1275.0023,217.0738 Q1273.6898,215.4175 1273.6898,212.2925 Q1273.6898,209.1675 1275.0023,207.5113 Q1276.3304,205.855 1278.8304,205.855 Q1279.5335,205.855 1280.1741,206.0113 Q1280.8304,206.1675 1281.3929,206.4644 L1281.3929,209.1831 Q1280.7679,208.605 1280.1741,208.3394 Q1279.5804,208.0581 1278.9554,208.0581 Q1277.6116,208.0581 1276.9241,209.1363 Q1276.2366,210.1988 1276.2366,212.2925 Q1276.2366,214.3863 1276.9241,215.4644 Q1277.6116,216.5269 1278.9554,216.5269 Q1279.5804,216.5269 1280.1741,216.2613 Q1280.7679,215.98 1281.3929,215.4019 L1281.3929,218.1206 Z " fill="#000000"/><text fill="#000000" font-family="sans-serif" font-size="14" lengthAdjust="spacing" textLength="121.7139" x="1298.9241" y="217.3267">EmployeeIterator</text><line style="stroke:#181818;stroke-width:0.5;" x1="1157.43" x2="1529.6321" y1="228.48" y2="228.48"/><rect fill="none" height="6" style="stroke:#C82930;stroke-width:1;" width="6" x="1164.43" y="239.1284"/><text fill="#000000" font-family="sans-serif" font-size="14" lengthAdjust="spacing" textLength="224.4648" x="1176.43" y="245.4751">employeeList : List&lt;Employee&gt;</text><rect fill="none" height="6" style="stroke:#C82930;stroke-width:1;" width="6" x="1164.43" y="255.4253"/><text fill="#000000" font-family="sans-serif" font-size="14" lengthAdjust="spacing" textLength="70.417" x="1176.43" y="261.772">index : int</text><line style="stroke:#181818;stroke-width:0.5;" x1="1157.43" x2="1529.6321" y1="269.0738" y2="269.0738"/><ellipse cx="1167.43" cy="282.7222" fill="#84BE84" rx="3" ry="3" style="stroke:#038048;stroke-width:1;"/><text fill="#000000" font-family="sans-serif" font-size="14" lengthAdjust="spacing" textLength="348.2021" x="1176.43" y="286.0689">EmployeeIterator(employeeList:List&lt;Employee&gt;)</text><ellipse cx="1167.43" cy="299.0191" fill="#84BE84" rx="3" ry="3" style="stroke:#038048;stroke-width:1;"/><text fill="#000000" font-family="sans-serif" font-size="14" lengthAdjust="spacing" textLength="207.6895" x="1176.43" y="302.3657">getNextElement() : Employee</text><ellipse cx="1167.43" cy="315.3159" fill="#84BE84" rx="3" ry="3" style="stroke:#038048;stroke-width:1;"/><text fill="#000000" font-family="sans-serif" font-size="14" lengthAdjust="spacing" textLength="227.9648" x="1176.43" y="318.6626">getCurrentElement() : Employee</text><ellipse cx="1167.43" cy="331.6128" fill="#84BE84" rx="3" ry="3" style="stroke:#038048;stroke-width:1;"/><text fill="#000000" font-family="sans-serif" font-size="14" lengthAdjust="spacing" textLength="198.2354" x="1176.43" y="334.9595">hasMoreElement() : boolean</text><ellipse cx="1167.43" cy="347.9097" fill="#84BE84" rx="3" ry="3" style="stroke:#038048;stroke-width:1;"/><text fill="#000000" font-family="sans-serif" font-size="14" lengthAdjust="spacing" textLength="142.3105" x="1176.43" y="351.2564">resetIterator() : void</text><ellipse cx="1167.43" cy="364.2066" fill="#84BE84" rx="3" ry="3" style="stroke:#038048;stroke-width:1;"/><text fill="#000000" font-family="sans-serif" font-size="14" lengthAdjust="spacing" textLength="220.9512" x="1176.43" y="367.5532">calculateAverageAge() : double</text></g><!--class App--><g class="entity" data-entity="App" data-source-line="133" data-uid="ent0028" id="entity_App"><rect fill="#F1F1F1" height="129.4844" rx="2.5" ry="2.5" style="stroke:#181818;stroke-width:0.5;" width="272.333" x="945.37" y="7"/><ellipse cx="1063.6112" cy="23" fill="#ADD1B2" rx="11" ry="11" style="stroke:#181818;stroke-width:1;"/><path d="M1066.58,28.6406 Q1066.0018,28.9375 1065.3612,29.0781 Q1064.7206,29.2344 1064.0175,29.2344 Q1061.5175,29.2344 1060.1893,27.5938 Q1058.8768,25.9375 1058.8768,22.8125 Q1058.8768,19.6875 1060.1893,18.0313 Q1061.5175,16.375 1064.0175,16.375 Q1064.7206,16.375 1065.3612,16.5313 Q1066.0175,16.6875 1066.58,16.9844 L1066.58,19.7031 Q1065.955,19.125 1065.3612,18.8594 Q1064.7675,18.5781 1064.1425,18.5781 Q1062.7987,18.5781 1062.1112,19.6563 Q1061.4237,20.7188 1061.4237,22.8125 Q1061.4237,24.9063 1062.1112,25.9844 Q1062.7987,27.0469 1064.1425,27.0469 Q1064.7675,27.0469 1065.3612,26.7813 Q1065.955,26.5 1066.58,25.9219 L1066.58,28.6406 Z " fill="#000000"/><text fill="#000000" font-family="sans-serif" font-size="14" lengthAdjust="spacing" textLength="27.3506" x="1084.1112" y="27.8467">App</text><line style="stroke:#181818;stroke-width:0.5;" x1="946.37" x2="1216.703" y1="39" y2="39"/><rect fill="none" height="6" style="stroke:#C82930;stroke-width:1;" width="6" x="953.37" y="49.6484"/><text fill="#000000" font-family="sans-serif" font-size="14" lengthAdjust="spacing" textLength="246.333" x="965.37" y="55.9951">uniEmployeeList : List&lt;Employee&gt;</text><rect fill="none" height="6" style="stroke:#C82930;stroke-width:1;" width="6" x="953.37" y="65.9453"/><text fill="#000000" font-family="sans-serif" font-size="14" lengthAdjust="spacing" textLength="234.0762" x="965.37" y="72.292">itEmployeeList : List&lt;Employee&gt;</text><line style="stroke:#181818;stroke-width:0.5;" x1="946.37" x2="1216.703" y1="79.5938" y2="79.5938"/><ellipse cx="956.37" cy="93.2422" fill="#84BE84" rx="3" ry="3" style="stroke:#038048;stroke-width:1;"/><text fill="#000000" font-family="sans-serif" font-size="14" lengthAdjust="spacing" textLength="177.085" x="965.37" y="96.5889">main(args:String[]) : void</text><ellipse cx="956.37" cy="109.5391" fill="#84BE84" rx="3" ry="3" style="stroke:#038048;stroke-width:1;"/><text fill="#000000" font-family="sans-serif" font-size="14" lengthAdjust="spacing" textLength="76.3096" x="965.37" y="112.8857">init() : void</text><ellipse cx="956.37" cy="125.8359" fill="#84BE84" rx="3" ry="3" style="stroke:#038048;stroke-width:1;"/><text fill="#000000" font-family="sans-serif" font-size="14" lengthAdjust="spacing" textLength="80.541" x="965.37" y="129.1826">end() : void</text></g><!--reverse link Person to Employee--><g class="link" data-entity-1="Person" data-entity-2="Employee" data-source-line="69" data-uid="lnk8" id="link_Person_Employee"><path codeLine="69" d="M251.9752,629.3829 C257.7152,632.5629 247.75,626.82 253.53,629.53 C378.1,687.95 527.34,726.42 648.3,750.58" fill="none" id="Person-backto-Employee" style="stroke:#181818;stroke-width:1;"/><polygon fill="none" points="236.23,620.66,249.0675,634.6313,254.8828,624.1345,236.23,620.66" style="stroke:#181818;stroke-width:1;"/></g><!--reverse link Employee to ITEmployee--><g class="link" data-entity-1="Employee" data-entity-2="ITEmployee" data-source-line="70" data-uid="lnk9" id="link_Employee_ITEmployee"><path codeLine="70" d="M752.3915,896.3528 C730.7615,915.5628 721.25,924.02 698.83,943.93" fill="none" id="Employee-backto-ITEmployee" style="stroke:#181818;stroke-width:1;"/><polygon fill="none" points="765.85,884.4,748.4072,891.8666,756.3757,900.8389,765.85,884.4" style="stroke:#181818;stroke-width:1;"/></g><!--reverse link Employee to UniEmployee--><g class="link" data-entity-1="Employee" data-entity-2="UniEmployee" data-source-line="71" data-uid="lnk10" id="link_Employee_UniEmployee"><path codeLine="71" d="M996.6777,896.3536 C1027.2777,923.5336 1047.1,941.14 1077.71,968.33" fill="none" id="Employee-backto-UniEmployee" style="stroke:#181818;stroke-width:1;"/><polygon fill="none" points="983.22,884.4,992.6932,900.8395,1000.6623,891.8677,983.22,884.4" style="stroke:#181818;stroke-width:1;"/></g><!--link ITEmployee to ITPosition--><g class="link" data-entity-1="ITEmployee" data-entity-2="ITPosition" data-source-line="72" data-uid="lnk11" id="link_ITEmployee_ITPosition"><path codeLine="72" d="M562.53,1188.17 C562.53,1208.71 562.53,1223.28 562.53,1241.58" fill="none" id="ITEmployee-to-ITPosition" style="stroke:#181818;stroke-width:1;"/><polygon fill="#181818" points="562.53,1247.58,566.53,1238.58,562.53,1242.58,558.53,1238.58,562.53,1247.58" style="stroke:#181818;stroke-width:1;"/></g><!--link UniEmployee to UniPosition--><g class="link" data-entity-1="UniEmployee" data-entity-2="UniPosition" data-source-line="73" data-uid="lnk12" id="link_UniEmployee_UniPosition"><path codeLine="73" d="M1186.53,1163.63 C1186.53,1198.07 1186.53,1229.35 1186.53,1257.86" fill="none" id="UniEmployee-to-UniPosition" style="stroke:#181818;stroke-width:1;"/><polygon fill="#181818" points="1186.53,1263.86,1190.53,1254.86,1186.53,1258.86,1182.53,1254.86,1186.53,1263.86" style="stroke:#181818;stroke-width:1;"/></g><!--reverse link EmployeeFactory to EmployeeFactoryImpl--><g class="link" data-entity-1="EmployeeFactory" data-entity-2="EmployeeFactoryImpl" data-source-line="84" data-uid="lnk15" id="link_EmployeeFactory_EmployeeFactoryImpl"><path codeLine="84" d="M765.1114,119.0289 C791.5814,159.0989 827.28,213.14 853.79,253.27" fill="none" id="EmployeeFactory-backto-EmployeeFactoryImpl" style="stroke:#181818;stroke-width:1;stroke-dasharray:7,7;"/><polygon fill="none" points="755.19,104.01,760.1051,122.336,770.1177,115.7217,755.19,104.01" style="stroke:#181818;stroke-width:1;"/></g><!--link EmployeeFactoryImpl to Employee--><g class="link" data-entity-1="EmployeeFactoryImpl" data-entity-2="Employee" data-source-line="85" data-uid="lnk16" id="link_EmployeeFactoryImpl_Employee"><path codeLine="85" d="M874.53,318.28 C874.53,391.47 874.53,569.04 874.53,683.19" fill="none" id="EmployeeFactoryImpl-to-Employee" style="stroke:#181818;stroke-width:1;stroke-dasharray:7,7;"/><polygon fill="#181818" points="874.53,689.19,878.53,680.19,874.53,684.19,870.53,680.19,874.53,689.19" style="stroke:#181818;stroke-width:1;"/></g><!--reverse link FileService to EmployeeFileService--><g class="link" data-entity-1="FileService" data-entity-2="EmployeeFileService" data-source-line="105" data-uid="lnk20" id="link_FileService_EmployeeFileService"><path codeLine="105" d="M204.5474,127.9534 C168.4374,189.0134 122.01,292.07 174.53,374.86 C199.53,414.27 304.65,459.77 389.99,491.48" fill="none" id="FileService-backto-EmployeeFileService" style="stroke:#181818;stroke-width:1;stroke-dasharray:7,7;"/><polygon fill="none" points="213.71,112.46,199.3829,124.8992,209.7119,131.0076,213.71,112.46" style="stroke:#181818;stroke-width:1;"/></g><!--reverse link FileService to FileServiceProxy--><g class="link" data-entity-1="FileService" data-entity-2="FileServiceProxy" data-source-line="106" data-uid="lnk21" id="link_FileService_FileServiceProxy"><path codeLine="106" d="M286.3958,125.5747 C315.4958,158.3747 345.35,192.02 377.91,228.74" fill="none" id="FileService-backto-FileServiceProxy" style="stroke:#181818;stroke-width:1;stroke-dasharray:7,7;"/><polygon fill="none" points="274.45,112.11,281.9076,129.5566,290.884,121.5928,274.45,112.11" style="stroke:#181818;stroke-width:1;"/></g><!--link FileServiceProxy to EmployeeFileService--><g class="link" data-entity-1="FileServiceProxy" data-entity-2="EmployeeFileService" data-source-line="107" data-uid="lnk22" id="link_FileServiceProxy_EmployeeFileService"><path codeLine="107" d="M445.56,342.46 C460.27,387.99 478.8452,445.4806 491.9152,485.9306" fill="none" id="FileServiceProxy-to-EmployeeFileService" style="stroke:#181818;stroke-width:1;"/><polygon fill="#181818" points="493.76,491.64,494.7991,481.8461,492.2227,486.8822,487.1866,484.3058,493.76,491.64" style="stroke:#181818;stroke-width:1;"/></g><!--link EmployeeFileService to Employee--><g class="link" data-entity-1="EmployeeFileService" data-entity-2="Employee" data-source-line="108" data-uid="lnk23" id="link_EmployeeFileService_Employee"><path codeLine="108" d="M564.44,572.95 C609.78,604.08 669.8536,645.334 728.6536,685.704" fill="none" id="EmployeeFileService-to-Employee" style="stroke:#181818;stroke-width:1;"/><polygon fill="#181818" points="733.6,689.1,728.4444,680.7083,729.478,686.27,723.9164,687.3036,733.6,689.1" style="stroke:#181818;stroke-width:1;"/></g><!--reverse link ListIterator to EmployeeIterator--><g class="link" data-entity-1="ListIterator" data-entity-2="EmployeeIterator" data-source-line="129" data-uid="lnk26" id="link_ListIterator_EmployeeIterator"><path codeLine="129" d="M1357.2186,146.6126 C1355.1686,167.3426 1354.55,173.46 1352.28,196.37" fill="none" id="ListIterator-backto-EmployeeIterator" style="stroke:#181818;stroke-width:1;stroke-dasharray:7,7;"/><polygon fill="none" points="1358.99,128.7,1351.2477,146.0222,1363.1895,147.2031,1358.99,128.7" style="stroke:#181818;stroke-width:1;"/></g><!--link EmployeeIterator to Employee--><g class="link" data-entity-1="EmployeeIterator" data-entity-2="Employee" data-source-line="130" data-uid="lnk27" id="link_EmployeeIterator_Employee"><path codeLine="130" d="M1302.84,375.1 C1265.49,449.38 1204.63,555.04 1129.53,629.53 C1107.69,651.2 1087.2438,667.8101 1061.1138,685.7801" fill="none" id="EmployeeIterator-to-Employee" style="stroke:#181818;stroke-width:1;"/><polygon fill="#181818" points="1056.17,689.18,1065.8522,687.376,1060.2898,686.3468,1061.319,680.7843,1056.17,689.18" style="stroke:#181818;stroke-width:1;"/></g><!--link App to FileServiceProxy--><g class="link" data-entity-1="App" data-entity-2="FileServiceProxy" data-source-line="141" data-uid="lnk29" id="link_App_FileServiceProxy"><path codeLine="141" d="M945.14,130.82 C939.55,132.8 934,134.7 928.53,136.48 C820.75,171.73 789.32,164.45 680.53,196.48 C647.96,206.08 619.0656,215.4239 586.2856,226.6639" fill="none" id="App-to-FileServiceProxy" style="stroke:#181818;stroke-width:1;"/><polygon fill="#181818" points="580.61,228.61,590.4208,229.4746,585.3397,226.9882,587.826,221.9071,580.61,228.61" style="stroke:#181818;stroke-width:1;"/></g><!--link App to EmployeeIterator--><g class="link" data-entity-1="App" data-entity-2="EmployeeIterator" data-source-line="142" data-uid="lnk30" id="link_App_EmployeeIterator"><path codeLine="142" d="M1160.85,136.9 C1183.9,155.54 1204.8152,172.4664 1229.3652,192.3264" fill="none" id="App-to-EmployeeIterator" style="stroke:#181818;stroke-width:1;"/><polygon fill="#181818" points="1234.03,196.1,1229.5486,187.3298,1230.1427,192.9553,1224.5171,193.5494,1234.03,196.1" style="stroke:#181818;stroke-width:1;"/></g><!--link App to EmployeeFactoryImpl--><g class="link" data-entity-1="App" data-entity-2="EmployeeFactoryImpl" data-source-line="143" data-uid="lnk31" id="link_App_EmployeeFactoryImpl"><path codeLine="143" d="M1018.87,136.9 C981.26,175.4 939.2932,218.3785 909.4532,248.9185" fill="none" id="App-to-EmployeeFactoryImpl" style="stroke:#181818;stroke-width:1;"/><polygon fill="#181818" points="905.26,253.21,914.4108,249.5681,908.7543,249.6337,908.6887,243.9772,905.26,253.21" style="stroke:#181818;stroke-width:1;"/></g><!--link App to Employee--><g class="link" data-entity-1="App" data-entity-2="Employee" data-source-line="144" data-uid="lnk32" id="link_App_Employee"><path codeLine="144" d="M1086.04,136.85 C1088.7,198.73 1088.35,294.58 1068.53,374.86 C1040.5,488.43 982.8525,603.088 936.7825,683.868" fill="none" id="App-to-Employee" style="stroke:#181818;stroke-width:1;"/><polygon fill="#181818" points="933.81,689.08,941.7433,683.2437,936.287,684.7367,934.794,679.2804,933.81,689.08" style="stroke:#181818;stroke-width:1;"/></g><!--SRC=[nLRDKjim4BxxANGZ6KWUm4EPSS7ff0CXauJfeTE3I4IgObiPIG42z27w21nxwAcFaEbxLRAiNoijS6Wv17j_ljtzThNM7dXJ_u6iW2j0s3tVFXMRHfZC2yWO62FAI0KU4W1we88b0YcOSeghPIs1Iod05HTl-urnHvgbokX0MgH2ttKDrCiIyP6mx7HTo7t06h638Yrk25vejsofl7HSfaGwb6lDYO9metnDaZrTUbwk2h9126o_Cr0WThzzeYMy9vn3x3DXB1KNjuHUhmeu3mXXi81qu-IctQAi75WOer88bZC3O5Zxe7qYr5bTY1oIEAtZX3msKYU9Px2f21hE0efMX66EnVIaGZTkNfI6aYzepdtgBY53qv0-2_fi0dNOr0Ozq14r5o6suNQix2BCQas05B2g8zO0NjKAHAiZIOPGRmqVOPCSZINjPSswgF3kRWcbrwvePno4bxV6YT1jeNMZPFf9xM3JnVqtTDfDKgrBmBS_Lcj6hlNgG59eMrnJFHpDyib8FBo_60tF9-BXB3zH3zDSIx9HzYwVo00rX5DNZJ6Ud0_4lzFyU7OnoQL7Td8s74dxPcCVFlPwPdSafjUrs0v-e72wa3Z7kTSxScVPdHsfSZjZ-HZ0EITYOiQGSqGhpOYW5T4hkJSrXZPyg6cUKmGvChCGss8cHJFD0THGlBuEBipfyB7VZw4diOZz_f45SuZ01PeYUeD5pU8JICdTHYuVOOXAL8blxXnlVxRfSTmEPqTDERSKSpGZKjUv4Z_UmKDDR9QUOiQ5apU_WeZ5W98ovYiD6vy8gKx-Byz2exmY6UDgSt9oKKIgtINW2frYwZ5dCMJOqBtZEAPHj-v_AzYbtHz3gsWRXHKcBSRaYOr1nThjsZeJFHGp2iNOcxFToIfOREuHDQfkUw1bYLfj9rhU0j4TpzLXg9VhJ2kErvGAOLlt6R8pGf6hk2IaGB1go1PRNOVgc3wq9jlKeQP8Dr8cscw9jC3L0jr5BdScbWiHZiEkSWt1kwlsJ5vNVBqCOJ5V5s8VPZT2lKJw7hqWwykYtdzkZ_ofqzAaHTwE8Hdy-YQkIaiAI_yUdQrM3Tzh-ntv0-NyRpRxe8Iuwa2wPCs1-lZ9AnjNcFj4e6hXZONCIPRHEZrQqM8XLBZVXb3t6m00]--></g></svg>