<svg xmlns="http://www.w3.org/2000/svg" xmlns:xlink="http://www.w3.org/1999/xlink" contentStyleType="text/css" data-diagram-type="CLASS" height="1145px" preserveAspectRatio="none" style="width:1617px;height:1145px;background:#FFFFFF;" version="1.1" viewBox="0 0 1617 1145" width="1617px" zoomAndPan="magnify"><defs/><g><!--class Person--><g class="entity" data-entity="Person" data-source-line="2" data-uid="ent0002" id="entity_Person"><rect fill="#F1F1F1" height="194.6719" rx="2.5" ry="2.5" style="stroke:#181818;stroke-width:0.5;" width="229.0684" x="7" y="196.49"/><ellipse cx="93.5122" cy="212.49" fill="#ADD1B2" rx="11" ry="11" style="stroke:#181818;stroke-width:1;"/><path d="M96.481,218.1306 Q95.9028,218.4275 95.2622,218.5681 Q94.6216,218.7244 93.9185,218.7244 Q91.4185,218.7244 90.0903,217.0838 Q88.7778,215.4275 88.7778,212.3025 Q88.7778,209.1775 90.0903,207.5213 Q91.4185,205.865 93.9185,205.865 Q94.6216,205.865 95.2622,206.0213 Q95.9185,206.1775 96.481,206.4744 L96.481,209.1931 Q95.856,208.615 95.2622,208.3494 Q94.6685,208.0681 94.0435,208.0681 Q92.6997,208.0681 92.0122,209.1463 Q91.3247,210.2088 91.3247,212.3025 Q91.3247,214.3963 92.0122,215.4744 Q92.6997,216.5369 94.0435,216.5369 Q94.6685,216.5369 95.2622,216.2713 Q95.856,215.99 96.481,215.4119 L96.481,218.1306 Z " fill="#000000"/><text fill="#000000" font-family="sans-serif" font-size="14" lengthAdjust="spacing" textLength="47.5439" x="114.0122" y="217.3367">Person</text><line style="stroke:#181818;stroke-width:0.5;" x1="8" x2="235.0684" y1="228.49" y2="228.49"/><rect fill="none" height="6" style="stroke:#C82930;stroke-width:1;" width="6" x="15" y="239.1384"/><text fill="#000000" font-family="sans-serif" font-size="14" lengthAdjust="spacing" textLength="95.1016" x="27" y="245.4851">name : String</text><rect fill="none" height="6" style="stroke:#C82930;stroke-width:1;" width="6" x="15" y="255.4353"/><text fill="#000000" font-family="sans-serif" font-size="14" lengthAdjust="spacing" textLength="57.9482" x="27" y="261.782">age : int</text><line style="stroke:#181818;stroke-width:0.5;" x1="8" x2="235.0684" y1="269.0838" y2="269.0838"/><ellipse cx="18" cy="282.7322" fill="#84BE84" rx="3" ry="3" style="stroke:#038048;stroke-width:1;"/><text fill="#000000" font-family="sans-serif" font-size="14" lengthAdjust="spacing" textLength="202.6172" x="27" y="286.0789">Person(name:String, age:int)</text><ellipse cx="18" cy="299.0291" fill="#84BE84" rx="3" ry="3" style="stroke:#038048;stroke-width:1;"/><text fill="#000000" font-family="sans-serif" font-size="14" lengthAdjust="spacing" textLength="58.4678" x="27" y="302.3757">Person()</text><ellipse cx="18" cy="315.3259" fill="#84BE84" rx="3" ry="3" style="stroke:#038048;stroke-width:1;"/><text fill="#000000" font-family="sans-serif" font-size="14" lengthAdjust="spacing" textLength="130.6143" x="27" y="318.6726">getName() : String</text><ellipse cx="18" cy="331.6228" fill="#84BE84" rx="3" ry="3" style="stroke:#038048;stroke-width:1;"/><text fill="#000000" font-family="sans-serif" font-size="14" lengthAdjust="spacing" textLength="203.0684" x="27" y="334.9695">setName(name:String) : void</text><ellipse cx="18" cy="347.9197" fill="#84BE84" rx="3" ry="3" style="stroke:#038048;stroke-width:1;"/><text fill="#000000" font-family="sans-serif" font-size="14" lengthAdjust="spacing" textLength="92.8594" x="27" y="351.2664">getAge() : int</text><ellipse cx="18" cy="364.2166" fill="#84BE84" rx="3" ry="3" style="stroke:#038048;stroke-width:1;"/><text fill="#000000" font-family="sans-serif" font-size="14" lengthAdjust="spacing" textLength="151.6895" x="27" y="367.5632">setAge(age:int) : void</text><ellipse cx="18" cy="380.5134" fill="#84BE84" rx="3" ry="3" style="stroke:#038048;stroke-width:1;"/><text fill="#000000" font-family="sans-serif" font-size="14" lengthAdjust="spacing" textLength="122.1582" x="27" y="383.8601">toString() : String</text></g><!--class Employee--><g class="entity" data-entity="Employee" data-source-line="15" data-uid="ent0003" id="entity_Employee"><rect fill="#F1F1F1" height="194.6719" rx="2.5" ry="2.5" style="stroke:#181818;stroke-width:0.5;" width="451.6055" x="668.73" y="451.16"/><ellipse cx="855.6143" cy="467.16" fill="#ADD1B2" rx="11" ry="11" style="stroke:#181818;stroke-width:1;"/><path d="M858.583,472.8006 Q858.0049,473.0975 857.3643,473.2381 Q856.7237,473.3944 856.0205,473.3944 Q853.5205,473.3944 852.1924,471.7538 Q850.8799,470.0975 850.8799,466.9725 Q850.8799,463.8475 852.1924,462.1913 Q853.5205,460.535 856.0205,460.535 Q856.7237,460.535 857.3643,460.6913 Q858.0205,460.8475 858.583,461.1444 L858.583,463.8631 Q857.958,463.285 857.3643,463.0194 Q856.7705,462.7381 856.1455,462.7381 Q854.8018,462.7381 854.1143,463.8163 Q853.4268,464.8788 853.4268,466.9725 Q853.4268,469.0663 854.1143,470.1444 Q854.8018,471.2069 856.1455,471.2069 Q856.7705,471.2069 857.3643,470.9413 Q857.958,470.66 858.583,470.0819 L858.583,472.8006 Z " fill="#000000"/><text fill="#000000" font-family="sans-serif" font-size="14" lengthAdjust="spacing" textLength="69.3369" x="876.1143" y="472.0067">Employee</text><line style="stroke:#181818;stroke-width:0.5;" x1="669.73" x2="1119.3355" y1="483.16" y2="483.16"/><rect fill="none" height="6" style="stroke:#C82930;stroke-width:1;" width="6" x="676.73" y="493.8084"/><text fill="#000000" font-family="sans-serif" font-size="14" lengthAdjust="spacing" textLength="126.9434" x="688.73" y="500.1551">workplace : String</text><rect fill="none" height="6" style="stroke:#C82930;stroke-width:1;" width="6" x="676.73" y="510.1053"/><text fill="#000000" font-family="sans-serif" font-size="14" lengthAdjust="spacing" textLength="74.252" x="688.73" y="516.452">salary : int</text><line style="stroke:#181818;stroke-width:0.5;" x1="669.73" x2="1119.3355" y1="523.7538" y2="523.7538"/><ellipse cx="679.73" cy="537.4022" fill="#84BE84" rx="3" ry="3" style="stroke:#038048;stroke-width:1;"/><text fill="#000000" font-family="sans-serif" font-size="14" lengthAdjust="spacing" textLength="425.6055" x="688.73" y="540.7489">Employee(name:String, age:int, workplace:String, salary:int)</text><ellipse cx="679.73" cy="553.6991" fill="#84BE84" rx="3" ry="3" style="stroke:#038048;stroke-width:1;"/><text fill="#000000" font-family="sans-serif" font-size="14" lengthAdjust="spacing" textLength="80.2607" x="688.73" y="557.0457">Employee()</text><ellipse cx="679.73" cy="569.9959" fill="#84BE84" rx="3" ry="3" style="stroke:#038048;stroke-width:1;"/><text fill="#000000" font-family="sans-serif" font-size="14" lengthAdjust="spacing" textLength="163.249" x="688.73" y="573.3426">getWorkplace() : String</text><ellipse cx="679.73" cy="586.2928" fill="#84BE84" rx="3" ry="3" style="stroke:#038048;stroke-width:1;"/><text fill="#000000" font-family="sans-serif" font-size="14" lengthAdjust="spacing" textLength="267.5449" x="688.73" y="589.6395">setWorkplace(workplace:String) : void</text><ellipse cx="679.73" cy="602.5897" fill="#84BE84" rx="3" ry="3" style="stroke:#038048;stroke-width:1;"/><text fill="#000000" font-family="sans-serif" font-size="14" lengthAdjust="spacing" textLength="109.7578" x="688.73" y="605.9364">getSalary() : int</text><ellipse cx="679.73" cy="618.8866" fill="#84BE84" rx="3" ry="3" style="stroke:#038048;stroke-width:1;"/><text fill="#000000" font-family="sans-serif" font-size="14" lengthAdjust="spacing" textLength="184.8916" x="688.73" y="622.2332">setSalary(salary:int) : void</text><ellipse cx="679.73" cy="635.1834" fill="#84BE84" rx="3" ry="3" style="stroke:#038048;stroke-width:1;"/><text fill="#000000" font-family="sans-serif" font-size="14" lengthAdjust="spacing" textLength="122.1582" x="688.73" y="638.5301">toString() : String</text></g><!--class ITEmployee--><g class="entity" data-entity="ITEmployee" data-source-line="27" data-uid="ent0004" id="entity_ITEmployee"><rect fill="#F1F1F1" height="243.5625" rx="2.5" ry="2.5" style="stroke:#181818;stroke-width:0.5;" width="631.0898" x="266.99" y="705.83"/><ellipse cx="537.2761" cy="721.83" fill="#ADD1B2" rx="11" ry="11" style="stroke:#181818;stroke-width:1;"/><path d="M540.2449,727.4706 Q539.6668,727.7675 539.0261,727.9081 Q538.3855,728.0644 537.6824,728.0644 Q535.1824,728.0644 533.8543,726.4238 Q532.5418,724.7675 532.5418,721.6425 Q532.5418,718.5175 533.8543,716.8613 Q535.1824,715.205 537.6824,715.205 Q538.3855,715.205 539.0261,715.3613 Q539.6824,715.5175 540.2449,715.8144 L540.2449,718.5331 Q539.6199,717.955 539.0261,717.6894 Q538.4324,717.4081 537.8074,717.4081 Q536.4636,717.4081 535.7761,718.4863 Q535.0886,719.5488 535.0886,721.6425 Q535.0886,723.7363 535.7761,724.8144 Q536.4636,725.8769 537.8074,725.8769 Q538.4324,725.8769 539.0261,725.6113 Q539.6199,725.33 540.2449,724.7519 L540.2449,727.4706 Z " fill="#000000"/><text fill="#000000" font-family="sans-serif" font-size="14" lengthAdjust="spacing" textLength="82.0176" x="557.7761" y="726.6767">ITEmployee</text><line style="stroke:#181818;stroke-width:0.5;" x1="267.99" x2="897.0798" y1="737.83" y2="737.83"/><rect fill="none" height="6" style="stroke:#C82930;stroke-width:1;" width="6" x="274.99" y="748.4784"/><text fill="#000000" font-family="sans-serif" font-size="14" lengthAdjust="spacing" textLength="136.7598" x="286.99" y="754.8251">position : ITPosition</text><rect fill="none" height="6" style="stroke:#C82930;stroke-width:1;" width="6" x="274.99" y="764.7753"/><text fill="#000000" font-family="sans-serif" font-size="14" lengthAdjust="spacing" textLength="104.2959" x="286.99" y="771.122">project : String</text><rect fill="none" height="6" style="stroke:#C82930;stroke-width:1;" width="6" x="274.99" y="781.0722"/><text fill="#000000" font-family="sans-serif" font-size="14" lengthAdjust="spacing" textLength="109.2178" x="286.99" y="787.4189">baseSalary : int</text><line style="stroke:#181818;stroke-width:0.5;" x1="267.99" x2="897.0798" y1="794.7206" y2="794.7206"/><ellipse cx="277.99" cy="808.3691" fill="#84BE84" rx="3" ry="3" style="stroke:#038048;stroke-width:1;"/><text fill="#000000" font-family="sans-serif" font-size="14" lengthAdjust="spacing" textLength="605.0898" x="286.99" y="811.7157">ITEmployee(name:String, age:int, workplace:String, position:ITPosition, project:String)</text><ellipse cx="277.99" cy="824.6659" fill="#84BE84" rx="3" ry="3" style="stroke:#038048;stroke-width:1;"/><text fill="#000000" font-family="sans-serif" font-size="14" lengthAdjust="spacing" textLength="92.9414" x="286.99" y="828.0126">ITEmployee()</text><ellipse cx="277.99" cy="840.9628" fill="#84BE84" rx="3" ry="3" style="stroke:#038048;stroke-width:1;"/><text fill="#000000" font-family="sans-serif" font-size="14" lengthAdjust="spacing" textLength="137.7646" x="286.99" y="844.3095">getProject() : String</text><ellipse cx="277.99" cy="857.2597" fill="#84BE84" rx="3" ry="3" style="stroke:#038048;stroke-width:1;"/><text fill="#000000" font-family="sans-serif" font-size="14" lengthAdjust="spacing" textLength="219.4131" x="286.99" y="860.6064">setProject(project:String) : void</text><ellipse cx="277.99" cy="873.5566" fill="#84BE84" rx="3" ry="3" style="stroke:#038048;stroke-width:1;"/><text fill="#000000" font-family="sans-serif" font-size="14" lengthAdjust="spacing" textLength="170.2285" x="286.99" y="876.9032">getPosition() : ITPosition</text><ellipse cx="277.99" cy="889.8534" fill="#84BE84" rx="3" ry="3" style="stroke:#038048;stroke-width:1;"/><text fill="#000000" font-family="sans-serif" font-size="14" lengthAdjust="spacing" textLength="258.4326" x="286.99" y="893.2001">setPosition(position:ITPosition) : void</text><ellipse cx="277.99" cy="906.1503" fill="#84BE84" rx="3" ry="3" style="stroke:#038048;stroke-width:1;"/><text fill="#000000" font-family="sans-serif" font-size="14" lengthAdjust="spacing" textLength="143.8486" x="286.99" y="909.497">getBaseSalary() : int</text><ellipse cx="277.99" cy="922.4472" fill="#84BE84" rx="3" ry="3" style="stroke:#038048;stroke-width:1;"/><text fill="#000000" font-family="sans-serif" font-size="14" lengthAdjust="spacing" textLength="253.9482" x="286.99" y="925.7939">setBaseSalary(baseSalary:int) : void</text><ellipse cx="277.99" cy="938.7441" fill="#84BE84" rx="3" ry="3" style="stroke:#038048;stroke-width:1;"/><text fill="#000000" font-family="sans-serif" font-size="14" lengthAdjust="spacing" textLength="122.1582" x="286.99" y="942.0907">toString() : String</text></g><!--class UniEmployee--><g class="entity" data-entity="UniEmployee" data-source-line="42" data-uid="ent0005" id="entity_UniEmployee"><rect fill="#F1F1F1" height="194.6719" rx="2.5" ry="2.5" style="stroke:#181818;stroke-width:0.5;" width="547.4521" x="932.81" y="730.28"/><ellipse cx="1156.1127" cy="746.28" fill="#ADD1B2" rx="11" ry="11" style="stroke:#181818;stroke-width:1;"/><path d="M1159.0815,751.9206 Q1158.5034,752.2175 1157.8627,752.3581 Q1157.2221,752.5144 1156.519,752.5144 Q1154.019,752.5144 1152.6909,750.8738 Q1151.3784,749.2175 1151.3784,746.0925 Q1151.3784,742.9675 1152.6909,741.3113 Q1154.019,739.655 1156.519,739.655 Q1157.2221,739.655 1157.8627,739.8113 Q1158.519,739.9675 1159.0815,740.2644 L1159.0815,742.9831 Q1158.4565,742.405 1157.8627,742.1394 Q1157.269,741.8581 1156.644,741.8581 Q1155.3002,741.8581 1154.6127,742.9363 Q1153.9252,743.9988 1153.9252,746.0925 Q1153.9252,748.1863 1154.6127,749.2644 Q1155.3002,750.3269 1156.644,750.3269 Q1157.269,750.3269 1157.8627,750.0613 Q1158.4565,749.78 1159.0815,749.2019 L1159.0815,751.9206 Z " fill="#000000"/><text fill="#000000" font-family="sans-serif" font-size="14" lengthAdjust="spacing" textLength="92.3467" x="1176.6127" y="751.1267">UniEmployee</text><line style="stroke:#181818;stroke-width:0.5;" x1="933.81" x2="1479.2621" y1="762.28" y2="762.28"/><rect fill="none" height="6" style="stroke:#C82930;stroke-width:1;" width="6" x="940.81" y="772.9284"/><text fill="#000000" font-family="sans-serif" font-size="14" lengthAdjust="spacing" textLength="147.0889" x="952.81" y="779.2751">position : UniPosition</text><rect fill="none" height="6" style="stroke:#C82930;stroke-width:1;" width="6" x="940.81" y="789.2253"/><text fill="#000000" font-family="sans-serif" font-size="14" lengthAdjust="spacing" textLength="109.2178" x="952.81" y="795.572">baseSalary : int</text><line style="stroke:#181818;stroke-width:0.5;" x1="933.81" x2="1479.2621" y1="802.8738" y2="802.8738"/><ellipse cx="943.81" cy="816.5222" fill="#84BE84" rx="3" ry="3" style="stroke:#038048;stroke-width:1;"/><text fill="#000000" font-family="sans-serif" font-size="14" lengthAdjust="spacing" textLength="521.4521" x="952.81" y="819.8689">UniEmployee(name:String, age:int, workplace:String, position:UniPosition)</text><ellipse cx="943.81" cy="832.8191" fill="#84BE84" rx="3" ry="3" style="stroke:#038048;stroke-width:1;"/><text fill="#000000" font-family="sans-serif" font-size="14" lengthAdjust="spacing" textLength="103.2705" x="952.81" y="836.1657">UniEmployee()</text><ellipse cx="943.81" cy="849.1159" fill="#84BE84" rx="3" ry="3" style="stroke:#038048;stroke-width:1;"/><text fill="#000000" font-family="sans-serif" font-size="14" lengthAdjust="spacing" textLength="180.5576" x="952.81" y="852.4626">getPosition() : UniPosition</text><ellipse cx="943.81" cy="865.4128" fill="#84BE84" rx="3" ry="3" style="stroke:#038048;stroke-width:1;"/><text fill="#000000" font-family="sans-serif" font-size="14" lengthAdjust="spacing" textLength="268.7617" x="952.81" y="868.7595">setPosition(position:UniPosition) : void</text><ellipse cx="943.81" cy="881.7097" fill="#84BE84" rx="3" ry="3" style="stroke:#038048;stroke-width:1;"/><text fill="#000000" font-family="sans-serif" font-size="14" lengthAdjust="spacing" textLength="143.8486" x="952.81" y="885.0564">getBaseSalary() : int</text><ellipse cx="943.81" cy="898.0066" fill="#84BE84" rx="3" ry="3" style="stroke:#038048;stroke-width:1;"/><text fill="#000000" font-family="sans-serif" font-size="14" lengthAdjust="spacing" textLength="253.9482" x="952.81" y="901.3532">setBaseSalary(baseSalary:int) : void</text><ellipse cx="943.81" cy="914.3034" fill="#84BE84" rx="3" ry="3" style="stroke:#038048;stroke-width:1;"/><text fill="#000000" font-family="sans-serif" font-size="14" lengthAdjust="spacing" textLength="122.1582" x="952.81" y="917.6501">toString() : String</text></g><!--class ITPosition--><g class="entity" data-entity="ITPosition" data-source-line="55" data-uid="ent0006" id="entity_ITPosition"><rect fill="#F1F1F1" height="129.4844" rx="2.5" ry="2.5" style="stroke:#181818;stroke-width:0.5;" width="99.6895" x="532.69" y="1009.4"/><ellipse cx="547.69" cy="1025.4" fill="#EB937F" rx="11" ry="11" style="stroke:#181818;stroke-width:1;"/><path d="M551.7994,1031.4 L544.0806,1031.4 L544.0806,1019.0094 L551.7994,1019.0094 L551.7994,1021.1656 L546.5338,1021.1656 L546.5338,1023.8375 L551.2994,1023.8375 L551.2994,1025.9938 L546.5338,1025.9938 L546.5338,1029.2438 L551.7994,1029.2438 L551.7994,1031.4 Z " fill="#000000"/><text fill="#000000" font-family="sans-serif" font-size="14" lengthAdjust="spacing" textLength="67.6895" x="561.69" y="1030.2467">ITPosition</text><line style="stroke:#181818;stroke-width:0.5;" x1="533.69" x2="631.3795" y1="1041.4" y2="1041.4"/><text fill="#000000" font-family="sans-serif" font-size="14" lengthAdjust="spacing" textLength="52.1992" x="538.69" y="1058.3951">INTERN</text><text fill="#000000" font-family="sans-serif" font-size="14" lengthAdjust="spacing" textLength="49.7246" x="538.69" y="1074.692">JUNIOR</text><text fill="#000000" font-family="sans-serif" font-size="14" lengthAdjust="spacing" textLength="56.5811" x="538.69" y="1090.9889">MEDIOR</text><text fill="#000000" font-family="sans-serif" font-size="14" lengthAdjust="spacing" textLength="53.0811" x="538.69" y="1107.2857">SENIOR</text><text fill="#000000" font-family="sans-serif" font-size="14" lengthAdjust="spacing" textLength="71.1279" x="538.69" y="1123.5826">MANAGER</text><line style="stroke:#181818;stroke-width:0.5;" x1="533.69" x2="631.3795" y1="1130.8844" y2="1130.8844"/></g><!--class UniPosition--><g class="entity" data-entity="UniPosition" data-source-line="63" data-uid="ent0007" id="entity_UniPosition"><rect fill="#F1F1F1" height="96.8906" rx="2.5" ry="2.5" style="stroke:#181818;stroke-width:0.5;" width="110.0186" x="1151.52" y="1025.69"/><ellipse cx="1166.52" cy="1041.69" fill="#EB937F" rx="11" ry="11" style="stroke:#181818;stroke-width:1;"/><path d="M1170.6294,1047.69 L1162.9106,1047.69 L1162.9106,1035.2994 L1170.6294,1035.2994 L1170.6294,1037.4556 L1165.3638,1037.4556 L1165.3638,1040.1275 L1170.1294,1040.1275 L1170.1294,1042.2838 L1165.3638,1042.2838 L1165.3638,1045.5338 L1170.6294,1045.5338 L1170.6294,1047.69 Z " fill="#000000"/><text fill="#000000" font-family="sans-serif" font-size="14" lengthAdjust="spacing" textLength="78.0186" x="1180.52" y="1046.5367">UniPosition</text><line style="stroke:#181818;stroke-width:0.5;" x1="1152.52" x2="1260.5386" y1="1057.69" y2="1057.69"/><text fill="#000000" font-family="sans-serif" font-size="14" lengthAdjust="spacing" textLength="37.2422" x="1157.52" y="1074.6851">PROF</text><text fill="#000000" font-family="sans-serif" font-size="14" lengthAdjust="spacing" textLength="73.5205" x="1157.52" y="1090.982">LECTURER</text><text fill="#000000" font-family="sans-serif" font-size="14" lengthAdjust="spacing" textLength="47.0381" x="1157.52" y="1107.2789">ADMIN</text><line style="stroke:#181818;stroke-width:0.5;" x1="1152.52" x2="1260.5386" y1="1114.5806" y2="1114.5806"/></g><!--class EmployeeFactory--><g class="entity" data-entity="EmployeeFactory" data-source-line="76" data-uid="ent0013" id="entity_EmployeeFactory"><rect fill="#F1F1F1" height="64.2969" rx="2.5" ry="2.5" style="stroke:#181818;stroke-width:0.5;" width="352.0059" x="214.53" y="39.6"/><ellipse cx="325.4021" cy="55.6" fill="#B4A7E5" rx="11" ry="11" style="stroke:#181818;stroke-width:1;"/><path d="M321.3239,51.3656 L321.3239,49.2094 L328.7146,49.2094 L328.7146,51.3656 L326.2458,51.3656 L326.2458,59.4438 L328.7146,59.4438 L328.7146,61.6 L321.3239,61.6 L321.3239,59.4438 L323.7927,59.4438 L323.7927,51.3656 L321.3239,51.3656 Z " fill="#000000"/><text fill="#000000" font-family="sans-serif" font-size="14" font-style="italic" lengthAdjust="spacing" textLength="121.7617" x="345.9021" y="60.4467">EmployeeFactory</text><line style="stroke:#181818;stroke-width:0.5;" x1="215.53" x2="565.5359" y1="71.6" y2="71.6"/><line style="stroke:#181818;stroke-width:0.5;" x1="215.53" x2="565.5359" y1="79.6" y2="79.6"/><ellipse cx="225.53" cy="93.2484" fill="#84BE84" rx="3" ry="3" style="stroke:#038048;stroke-width:1;"/><text fill="#000000" font-family="sans-serif" font-size="14" lengthAdjust="spacing" textLength="326.0059" x="234.53" y="96.5951">createEmployee(workplace:String) : Employee</text></g><!--class EmployeeFactoryImpl--><g class="entity" data-entity="EmployeeFactoryImpl" data-source-line="80" data-uid="ent0014" id="entity_EmployeeFactoryImpl"><rect fill="#F1F1F1" height="64.2969" rx="2.5" ry="2.5" style="stroke:#181818;stroke-width:0.5;" width="352.0059" x="271.53" y="261.68"/><ellipse cx="367.1306" cy="277.68" fill="#ADD1B2" rx="11" ry="11" style="stroke:#181818;stroke-width:1;"/><path d="M370.0993,283.3206 Q369.5212,283.6175 368.8806,283.7581 Q368.24,283.9144 367.5368,283.9144 Q365.0368,283.9144 363.7087,282.2738 Q362.3962,280.6175 362.3962,277.4925 Q362.3962,274.3675 363.7087,272.7113 Q365.0368,271.055 367.5368,271.055 Q368.24,271.055 368.8806,271.2113 Q369.5368,271.3675 370.0993,271.6644 L370.0993,274.3831 Q369.4743,273.805 368.8806,273.5394 Q368.2868,273.2581 367.6618,273.2581 Q366.3181,273.2581 365.6306,274.3363 Q364.9431,275.3988 364.9431,277.4925 Q364.9431,279.5863 365.6306,280.6644 Q366.3181,281.7269 367.6618,281.7269 Q368.2868,281.7269 368.8806,281.4613 Q369.4743,281.18 370.0993,280.6019 L370.0993,283.3206 Z " fill="#000000"/><text fill="#000000" font-family="sans-serif" font-size="14" lengthAdjust="spacing" textLength="152.3047" x="387.6306" y="282.5267">EmployeeFactoryImpl</text><line style="stroke:#181818;stroke-width:0.5;" x1="272.53" x2="622.5359" y1="293.68" y2="293.68"/><line style="stroke:#181818;stroke-width:0.5;" x1="272.53" x2="622.5359" y1="301.68" y2="301.68"/><ellipse cx="282.53" cy="315.3284" fill="#84BE84" rx="3" ry="3" style="stroke:#038048;stroke-width:1;"/><text fill="#000000" font-family="sans-serif" font-size="14" lengthAdjust="spacing" textLength="326.0059" x="291.53" y="318.6751">createEmployee(workplace:String) : Employee</text></g><!--class FileService--><g class="entity" data-entity="FileService" data-source-line="88" data-uid="ent0017" id="entity_FileService"><rect fill="#F1F1F1" height="80.5938" rx="2.5" ry="2.5" style="stroke:#181818;stroke-width:0.5;" width="410.9521" x="601.06" y="31.45"/><ellipse cx="758.5278" cy="47.45" fill="#B4A7E5" rx="11" ry="11" style="stroke:#181818;stroke-width:1;"/><path d="M754.4496,43.2156 L754.4496,41.0594 L761.8403,41.0594 L761.8403,43.2156 L759.3715,43.2156 L759.3715,51.2938 L761.8403,51.2938 L761.8403,53.45 L754.4496,53.45 L754.4496,51.2938 L756.9184,51.2938 L756.9184,43.2156 L754.4496,43.2156 Z " fill="#000000"/><text fill="#000000" font-family="sans-serif" font-size="14" font-style="italic" lengthAdjust="spacing" textLength="76.1865" x="779.0278" y="52.2967">FileService</text><rect fill="#FFFFFF" height="15.9688" style="stroke:#181818;stroke-width:1;stroke-dasharray:2,2;" width="9.3301" x="1005.6821" y="28.45"/><text fill="#000000" font-family="sans-serif" font-size="12" font-style="italic" lengthAdjust="spacing" textLength="7.3301" x="1006.6821" y="40.5887">T</text><line style="stroke:#181818;stroke-width:0.5;" x1="602.06" x2="1011.0121" y1="63.45" y2="63.45"/><line style="stroke:#181818;stroke-width:0.5;" x1="602.06" x2="1011.0121" y1="71.45" y2="71.45"/><ellipse cx="612.06" cy="85.0984" fill="#84BE84" rx="3" ry="3" style="stroke:#038048;stroke-width:1;"/><text fill="#000000" font-family="sans-serif" font-size="14" lengthAdjust="spacing" textLength="384.9521" x="621.06" y="88.4451">writeToFile(filename:String, employees:List&lt;T&gt;) : void</text><ellipse cx="612.06" cy="101.3953" fill="#84BE84" rx="3" ry="3" style="stroke:#038048;stroke-width:1;"/><text fill="#000000" font-family="sans-serif" font-size="14" lengthAdjust="spacing" textLength="280.8408" x="621.06" y="104.742">readFromFile(filename:String) : List&lt;T&gt;</text></g><!--class EmployeeFileService--><g class="entity" data-entity="EmployeeFileService" data-source-line="93" data-uid="ent0018" id="entity_EmployeeFileService"><rect fill="#F1F1F1" height="80.5938" rx="2.5" ry="2.5" style="stroke:#181818;stroke-width:0.5;" width="471.7373" x="658.67" y="253.53"/><ellipse cx="817.5269" cy="269.53" fill="#ADD1B2" rx="11" ry="11" style="stroke:#181818;stroke-width:1;"/><path d="M820.4957,275.1706 Q819.9176,275.4675 819.2769,275.6081 Q818.6363,275.7644 817.9332,275.7644 Q815.4332,275.7644 814.1051,274.1238 Q812.7926,272.4675 812.7926,269.3425 Q812.7926,266.2175 814.1051,264.5613 Q815.4332,262.905 817.9332,262.905 Q818.6363,262.905 819.2769,263.0613 Q819.9332,263.2175 820.4957,263.5144 L820.4957,266.2331 Q819.8707,265.655 819.2769,265.3894 Q818.6832,265.1081 818.0582,265.1081 Q816.7144,265.1081 816.0269,266.1863 Q815.3394,267.2488 815.3394,269.3425 Q815.3394,271.4363 816.0269,272.5144 Q816.7144,273.5769 818.0582,273.5769 Q818.6832,273.5769 819.2769,273.3113 Q819.8707,273.03 820.4957,272.4519 L820.4957,275.1706 Z " fill="#000000"/><text fill="#000000" font-family="sans-serif" font-size="14" lengthAdjust="spacing" textLength="145.5234" x="838.0269" y="274.3767">EmployeeFileService</text><line style="stroke:#181818;stroke-width:0.5;" x1="659.67" x2="1129.4073" y1="285.53" y2="285.53"/><line style="stroke:#181818;stroke-width:0.5;" x1="659.67" x2="1129.4073" y1="293.53" y2="293.53"/><ellipse cx="669.67" cy="307.1784" fill="#84BE84" rx="3" ry="3" style="stroke:#038048;stroke-width:1;"/><text fill="#000000" font-family="sans-serif" font-size="14" lengthAdjust="spacing" textLength="445.7373" x="678.67" y="310.5251">writeToFile(filename:String, employees:List&lt;Employee&gt;) : void</text><ellipse cx="669.67" cy="323.4753" fill="#84BE84" rx="3" ry="3" style="stroke:#038048;stroke-width:1;"/><text fill="#000000" font-family="sans-serif" font-size="14" lengthAdjust="spacing" textLength="341.626" x="678.67" y="326.822">readFromFile(filename:String) : List&lt;Employee&gt;</text></g><!--class ListIterator--><g class="entity" data-entity="ListIterator" data-source-line="102" data-uid="ent0021" id="entity_ListIterator"><rect fill="#F1F1F1" height="113.1875" rx="2.5" ry="2.5" style="stroke:#181818;stroke-width:0.5;" width="224.2354" x="1354.42" y="15.15"/><ellipse cx="1418.1978" cy="31.15" fill="#B4A7E5" rx="11" ry="11" style="stroke:#181818;stroke-width:1;"/><path d="M1414.1197,26.9156 L1414.1197,24.7594 L1421.5103,24.7594 L1421.5103,26.9156 L1419.0416,26.9156 L1419.0416,34.9938 L1421.5103,34.9938 L1421.5103,37.15 L1414.1197,37.15 L1414.1197,34.9938 L1416.5885,34.9938 L1416.5885,26.9156 L1414.1197,26.9156 Z " fill="#000000"/><text fill="#000000" font-family="sans-serif" font-size="14" font-style="italic" lengthAdjust="spacing" textLength="76.8496" x="1438.6978" y="35.9967">ListIterator</text><rect fill="#FFFFFF" height="15.9688" style="stroke:#181818;stroke-width:1;stroke-dasharray:2,2;" width="9.3301" x="1572.3253" y="12.15"/><text fill="#000000" font-family="sans-serif" font-size="12" font-style="italic" lengthAdjust="spacing" textLength="7.3301" x="1573.3253" y="24.2887">T</text><line style="stroke:#181818;stroke-width:0.5;" x1="1355.42" x2="1577.6554" y1="47.15" y2="47.15"/><line style="stroke:#181818;stroke-width:0.5;" x1="1355.42" x2="1577.6554" y1="55.15" y2="55.15"/><ellipse cx="1365.42" cy="68.7984" fill="#84BE84" rx="3" ry="3" style="stroke:#038048;stroke-width:1;"/><text fill="#000000" font-family="sans-serif" font-size="14" lengthAdjust="spacing" textLength="146.9043" x="1374.42" y="72.1451">getNextElement() : T</text><ellipse cx="1365.42" cy="85.0953" fill="#84BE84" rx="3" ry="3" style="stroke:#038048;stroke-width:1;"/><text fill="#000000" font-family="sans-serif" font-size="14" lengthAdjust="spacing" textLength="167.1797" x="1374.42" y="88.442">getCurrentElement() : T</text><ellipse cx="1365.42" cy="101.3922" fill="#84BE84" rx="3" ry="3" style="stroke:#038048;stroke-width:1;"/><text fill="#000000" font-family="sans-serif" font-size="14" lengthAdjust="spacing" textLength="198.2354" x="1374.42" y="104.7389">hasMoreElement() : boolean</text><ellipse cx="1365.42" cy="117.6891" fill="#84BE84" rx="3" ry="3" style="stroke:#038048;stroke-width:1;"/><text fill="#000000" font-family="sans-serif" font-size="14" lengthAdjust="spacing" textLength="142.3105" x="1374.42" y="121.0357">resetIterator() : void</text></g><!--class EmployeeIterator--><g class="entity" data-entity="EmployeeIterator" data-source-line="109" data-uid="ent0022" id="entity_EmployeeIterator"><rect fill="#F1F1F1" height="162.0781" rx="2.5" ry="2.5" style="stroke:#181818;stroke-width:0.5;" width="374.2021" x="1236.43" y="212.79"/><ellipse cx="1358.4241" cy="228.79" fill="#ADD1B2" rx="11" ry="11" style="stroke:#181818;stroke-width:1;"/><path d="M1361.3929,234.4306 Q1360.8148,234.7275 1360.1741,234.8681 Q1359.5335,235.0244 1358.8304,235.0244 Q1356.3304,235.0244 1355.0023,233.3838 Q1353.6898,231.7275 1353.6898,228.6025 Q1353.6898,225.4775 1355.0023,223.8213 Q1356.3304,222.165 1358.8304,222.165 Q1359.5335,222.165 1360.1741,222.3213 Q1360.8304,222.4775 1361.3929,222.7744 L1361.3929,225.4931 Q1360.7679,224.915 1360.1741,224.6494 Q1359.5804,224.3681 1358.9554,224.3681 Q1357.6116,224.3681 1356.9241,225.4463 Q1356.2366,226.5088 1356.2366,228.6025 Q1356.2366,230.6963 1356.9241,231.7744 Q1357.6116,232.8369 1358.9554,232.8369 Q1359.5804,232.8369 1360.1741,232.5713 Q1360.7679,232.29 1361.3929,231.7119 L1361.3929,234.4306 Z " fill="#000000"/><text fill="#000000" font-family="sans-serif" font-size="14" lengthAdjust="spacing" textLength="121.7139" x="1378.9241" y="233.6367">EmployeeIterator</text><line style="stroke:#181818;stroke-width:0.5;" x1="1237.43" x2="1609.6321" y1="244.79" y2="244.79"/><rect fill="none" height="6" style="stroke:#C82930;stroke-width:1;" width="6" x="1244.43" y="255.4384"/><text fill="#000000" font-family="sans-serif" font-size="14" lengthAdjust="spacing" textLength="224.4648" x="1256.43" y="261.7851">employeeList : List&lt;Employee&gt;</text><rect fill="none" height="6" style="stroke:#C82930;stroke-width:1;" width="6" x="1244.43" y="271.7353"/><text fill="#000000" font-family="sans-serif" font-size="14" lengthAdjust="spacing" textLength="70.417" x="1256.43" y="278.082">index : int</text><line style="stroke:#181818;stroke-width:0.5;" x1="1237.43" x2="1609.6321" y1="285.3838" y2="285.3838"/><ellipse cx="1247.43" cy="299.0322" fill="#84BE84" rx="3" ry="3" style="stroke:#038048;stroke-width:1;"/><text fill="#000000" font-family="sans-serif" font-size="14" lengthAdjust="spacing" textLength="348.2021" x="1256.43" y="302.3789">EmployeeIterator(employeeList:List&lt;Employee&gt;)</text><ellipse cx="1247.43" cy="315.3291" fill="#84BE84" rx="3" ry="3" style="stroke:#038048;stroke-width:1;"/><text fill="#000000" font-family="sans-serif" font-size="14" lengthAdjust="spacing" textLength="207.6895" x="1256.43" y="318.6757">getNextElement() : Employee</text><ellipse cx="1247.43" cy="331.6259" fill="#84BE84" rx="3" ry="3" style="stroke:#038048;stroke-width:1;"/><text fill="#000000" font-family="sans-serif" font-size="14" lengthAdjust="spacing" textLength="227.9648" x="1256.43" y="334.9726">getCurrentElement() : Employee</text><ellipse cx="1247.43" cy="347.9228" fill="#84BE84" rx="3" ry="3" style="stroke:#038048;stroke-width:1;"/><text fill="#000000" font-family="sans-serif" font-size="14" lengthAdjust="spacing" textLength="198.2354" x="1256.43" y="351.2695">hasMoreElement() : boolean</text><ellipse cx="1247.43" cy="364.2197" fill="#84BE84" rx="3" ry="3" style="stroke:#038048;stroke-width:1;"/><text fill="#000000" font-family="sans-serif" font-size="14" lengthAdjust="spacing" textLength="142.3105" x="1256.43" y="367.5664">resetIterator() : void</text></g><!--class App--><g class="entity" data-entity="App" data-source-line="123" data-uid="ent0025" id="entity_App"><rect fill="#F1F1F1" height="129.4844" rx="2.5" ry="2.5" style="stroke:#181818;stroke-width:0.5;" width="272.333" x="1047.37" y="7"/><ellipse cx="1165.6112" cy="23" fill="#ADD1B2" rx="11" ry="11" style="stroke:#181818;stroke-width:1;"/><path d="M1168.58,28.6406 Q1168.0018,28.9375 1167.3612,29.0781 Q1166.7206,29.2344 1166.0175,29.2344 Q1163.5175,29.2344 1162.1893,27.5938 Q1160.8768,25.9375 1160.8768,22.8125 Q1160.8768,19.6875 1162.1893,18.0313 Q1163.5175,16.375 1166.0175,16.375 Q1166.7206,16.375 1167.3612,16.5313 Q1168.0175,16.6875 1168.58,16.9844 L1168.58,19.7031 Q1167.955,19.125 1167.3612,18.8594 Q1166.7675,18.5781 1166.1425,18.5781 Q1164.7987,18.5781 1164.1112,19.6563 Q1163.4237,20.7188 1163.4237,22.8125 Q1163.4237,24.9063 1164.1112,25.9844 Q1164.7987,27.0469 1166.1425,27.0469 Q1166.7675,27.0469 1167.3612,26.7813 Q1167.955,26.5 1168.58,25.9219 L1168.58,28.6406 Z " fill="#000000"/><text fill="#000000" font-family="sans-serif" font-size="14" lengthAdjust="spacing" textLength="27.3506" x="1186.1112" y="27.8467">App</text><line style="stroke:#181818;stroke-width:0.5;" x1="1048.37" x2="1318.703" y1="39" y2="39"/><rect fill="none" height="6" style="stroke:#C82930;stroke-width:1;" width="6" x="1055.37" y="49.6484"/><text fill="#000000" font-family="sans-serif" font-size="14" lengthAdjust="spacing" textLength="246.333" x="1067.37" y="55.9951">uniEmployeeList : List&lt;Employee&gt;</text><rect fill="none" height="6" style="stroke:#C82930;stroke-width:1;" width="6" x="1055.37" y="65.9453"/><text fill="#000000" font-family="sans-serif" font-size="14" lengthAdjust="spacing" textLength="234.0762" x="1067.37" y="72.292">itEmployeeList : List&lt;Employee&gt;</text><line style="stroke:#181818;stroke-width:0.5;" x1="1048.37" x2="1318.703" y1="79.5938" y2="79.5938"/><ellipse cx="1058.37" cy="93.2422" fill="#84BE84" rx="3" ry="3" style="stroke:#038048;stroke-width:1;"/><text fill="#000000" font-family="sans-serif" font-size="14" lengthAdjust="spacing" textLength="177.085" x="1067.37" y="96.5889">main(args:String[]) : void</text><ellipse cx="1058.37" cy="109.5391" fill="#84BE84" rx="3" ry="3" style="stroke:#038048;stroke-width:1;"/><text fill="#000000" font-family="sans-serif" font-size="14" lengthAdjust="spacing" textLength="76.3096" x="1067.37" y="112.8857">init() : void</text><ellipse cx="1058.37" cy="125.8359" fill="#84BE84" rx="3" ry="3" style="stroke:#038048;stroke-width:1;"/><text fill="#000000" font-family="sans-serif" font-size="14" lengthAdjust="spacing" textLength="80.541" x="1067.37" y="129.1826">end() : void</text></g><!--reverse link Person to Employee--><g class="link" data-entity-1="Person" data-entity-2="Employee" data-source-line="69" data-uid="lnk8" id="link_Person_Employee"><path codeLine="69" d="M251.9784,391.0309 C257.7184,394.1909 247.74,388.47 253.53,391.16 C384.69,452.08 542.38,490.94 668.54,514.68" fill="none" id="Person-backto-Employee" style="stroke:#181818;stroke-width:1;"/><polygon fill="none" points="236.21,382.35,249.0848,396.287,254.872,385.7747,236.21,382.35" style="stroke:#181818;stroke-width:1;"/></g><!--reverse link Employee to ITEmployee--><g class="link" data-entity-1="Employee" data-entity-2="ITEmployee" data-source-line="70" data-uid="lnk9" id="link_Employee_ITEmployee"><path codeLine="70" d="M772.3915,657.9828 C750.7615,677.1928 741.25,685.65 718.83,705.56" fill="none" id="Employee-backto-ITEmployee" style="stroke:#181818;stroke-width:1;"/><polygon fill="none" points="785.85,646.03,768.4072,653.4966,776.3757,662.4689,785.85,646.03" style="stroke:#181818;stroke-width:1;"/></g><!--reverse link Employee to UniEmployee--><g class="link" data-entity-1="Employee" data-entity-2="UniEmployee" data-source-line="71" data-uid="lnk10" id="link_Employee_UniEmployee"><path codeLine="71" d="M1016.6777,657.9836 C1047.2777,685.1636 1067.1,702.77 1097.71,729.96" fill="none" id="Employee-backto-UniEmployee" style="stroke:#181818;stroke-width:1;"/><polygon fill="none" points="1003.22,646.03,1012.6932,662.4695,1020.6623,653.4977,1003.22,646.03" style="stroke:#181818;stroke-width:1;"/></g><!--link ITEmployee to ITPosition--><g class="link" data-entity-1="ITEmployee" data-entity-2="ITPosition" data-source-line="72" data-uid="lnk11" id="link_ITEmployee_ITPosition"><path codeLine="72" d="M582.53,949.8 C582.53,970.34 582.53,984.91 582.53,1003.21" fill="none" id="ITEmployee-to-ITPosition" style="stroke:#181818;stroke-width:1;"/><polygon fill="#181818" points="582.53,1009.21,586.53,1000.21,582.53,1004.21,578.53,1000.21,582.53,1009.21" style="stroke:#181818;stroke-width:1;"/></g><!--link UniEmployee to UniPosition--><g class="link" data-entity-1="UniEmployee" data-entity-2="UniPosition" data-source-line="73" data-uid="lnk12" id="link_UniEmployee_UniPosition"><path codeLine="73" d="M1206.53,925.26 C1206.53,959.7 1206.53,990.98 1206.53,1019.49" fill="none" id="UniEmployee-to-UniPosition" style="stroke:#181818;stroke-width:1;"/><polygon fill="#181818" points="1206.53,1025.49,1210.53,1016.49,1206.53,1020.49,1202.53,1016.49,1206.53,1025.49" style="stroke:#181818;stroke-width:1;"/></g><!--reverse link EmployeeFactory to EmployeeFactoryImpl--><g class="link" data-entity-1="EmployeeFactory" data-entity-2="EmployeeFactoryImpl" data-source-line="84" data-uid="lnk15" id="link_EmployeeFactory_EmployeeFactoryImpl"><path codeLine="84" d="M403.2144,121.7047 C414.0544,163.5447 428.55,219.54 439.38,261.35" fill="none" id="EmployeeFactory-backto-EmployeeFactoryImpl" style="stroke:#181818;stroke-width:1;stroke-dasharray:7,7;"/><polygon fill="none" points="398.7,104.28,397.4062,123.2095,409.0227,120.1999,398.7,104.28" style="stroke:#181818;stroke-width:1;"/></g><!--link EmployeeFactoryImpl to Employee--><g class="link" data-entity-1="EmployeeFactoryImpl" data-entity-2="Employee" data-source-line="85" data-uid="lnk16" id="link_EmployeeFactoryImpl_Employee"><path codeLine="85" d="M503.24,326.32 C558.36,357.47 640.3368,403.8073 718.4368,447.9573" fill="none" id="EmployeeFactoryImpl-to-Employee" style="stroke:#181818;stroke-width:1;stroke-dasharray:7,7;"/><polygon fill="#181818" points="723.66,450.91,717.7937,442.9989,719.3073,448.4494,713.8568,449.9631,723.66,450.91" style="stroke:#181818;stroke-width:1;"/></g><!--reverse link FileService to EmployeeFileService--><g class="link" data-entity-1="FileService" data-entity-2="EmployeeFileService" data-source-line="98" data-uid="lnk19" id="link_FileService_EmployeeFileService"><path codeLine="98" d="M829.0514,129.064 C844.9814,168.914 862.74,213.31 878.68,253.17" fill="none" id="FileService-backto-EmployeeFileService" style="stroke:#181818;stroke-width:1;stroke-dasharray:7,7;"/><polygon fill="none" points="822.37,112.35,823.4801,131.2912,834.6228,126.8369,822.37,112.35" style="stroke:#181818;stroke-width:1;"/></g><!--link EmployeeFileService to Employee--><g class="link" data-entity-1="EmployeeFileService" data-entity-2="Employee" data-source-line="99" data-uid="lnk20" id="link_EmployeeFileService_Employee"><path codeLine="99" d="M894.53,334.58 C894.53,365.71 894.53,404.36 894.53,444.73" fill="none" id="EmployeeFileService-to-Employee" style="stroke:#181818;stroke-width:1;"/><polygon fill="#181818" points="894.53,450.73,898.53,441.73,894.53,445.73,890.53,441.73,894.53,450.73" style="stroke:#181818;stroke-width:1;"/></g><!--reverse link ListIterator to EmployeeIterator--><g class="link" data-entity-1="ListIterator" data-entity-2="EmployeeIterator" data-source-line="119" data-uid="lnk23" id="link_ListIterator_EmployeeIterator"><path codeLine="119" d="M1452.176,146.2355 C1447.196,171.7055 1444.67,184.67 1439.22,212.55" fill="none" id="ListIterator-backto-EmployeeIterator" style="stroke:#181818;stroke-width:1;stroke-dasharray:7,7;"/><polygon fill="none" points="1455.63,128.57,1446.2875,145.0842,1458.0645,147.3868,1455.63,128.57" style="stroke:#181818;stroke-width:1;"/></g><!--link EmployeeIterator to Employee--><g class="link" data-entity-1="EmployeeIterator" data-entity-2="Employee" data-source-line="120" data-uid="lnk24" id="link_EmployeeIterator_Employee"><path codeLine="120" d="M1255.06,375.29 C1204.86,399.27 1154.7241,423.2239 1102.5741,448.1339" fill="none" id="EmployeeIterator-to-Employee" style="stroke:#181818;stroke-width:1;"/><polygon fill="#181818" points="1097.16,450.72,1107.0052,450.4502,1101.6717,448.5649,1103.557,443.2315,1097.16,450.72" style="stroke:#181818;stroke-width:1;"/></g><!--link App to EmployeeFileService--><g class="link" data-entity-1="App" data-entity-2="EmployeeFileService" data-source-line="131" data-uid="lnk26" id="link_App_EmployeeFileService"><path codeLine="131" d="M1099.56,136.7 C1050.06,174.39 993.774,217.2556 951.214,249.6556" fill="none" id="App-to-EmployeeFileService" style="stroke:#181818;stroke-width:1;"/><polygon fill="#181818" points="946.44,253.29,956.024,251.0211,950.4184,250.2614,951.1781,244.6558,946.44,253.29" style="stroke:#181818;stroke-width:1;"/></g><!--link App to EmployeeIterator--><g class="link" data-entity-1="App" data-entity-2="EmployeeIterator" data-source-line="132" data-uid="lnk27" id="link_App_EmployeeIterator"><path codeLine="132" d="M1253.27,136.7 C1279.16,160.43 1304.418,183.5946 1331.678,208.5946" fill="none" id="App-to-EmployeeIterator" style="stroke:#181818;stroke-width:1;"/><polygon fill="#181818" points="1336.1,212.65,1332.1706,203.6189,1332.415,209.2705,1326.7634,209.5149,1336.1,212.65" style="stroke:#181818;stroke-width:1;"/></g><!--link App to EmployeeFactoryImpl--><g class="link" data-entity-1="App" data-entity-2="EmployeeFactoryImpl" data-source-line="133" data-uid="lnk28" id="link_App_EmployeeFactoryImpl"><path codeLine="133" d="M1047.27,131.13 C1041.31,133.05 1035.39,134.85 1029.53,136.49 C861.5,183.53 807.86,143.73 641.53,196.49 C591.35,212.41 543.2634,236.7776 505.2434,258.2676" fill="none" id="App-to-EmployeeFactoryImpl" style="stroke:#181818;stroke-width:1;"/><polygon fill="#181818" points="500.02,261.22,509.8233,260.2737,504.3728,258.7597,505.8868,253.3092,500.02,261.22" style="stroke:#181818;stroke-width:1;"/></g><!--link App to Employee--><g class="link" data-entity-1="App" data-entity-2="Employee" data-source-line="134" data-uid="lnk29" id="link_App_Employee"><path codeLine="134" d="M1191.85,136.7 C1197.42,205.1 1196.38,314.1 1147.53,391.16 C1133.23,413.73 1119.0022,429.7465 1098.0122,447.0265" fill="none" id="App-to-Employee" style="stroke:#181818;stroke-width:1;"/><polygon fill="#181818" points="1093.38,450.84,1102.8706,448.2079,1097.2402,447.6621,1097.786,442.0316,1093.38,450.84" style="stroke:#181818;stroke-width:1;"/></g><!--SRC=[lPRDRXen4CVl-nI-5PJ00w0q4asMYYeX28Xwg7fmmA5kTksLRVBTX-WZvDX3Jtq4rFUglLv_hccJ79e3OMV6_nd_PXXu0zxMVs1Om0fGVY-sJyLTOyoM1UGSJ17Zb827380U8B14O03cWc6ohYrmhGoO2FcqrmHtLDX01-shY87qT_q0_R16OY8ZErrVSW_mnkofg8XhYbVcs72jJvcyN9jCAZzQK2tXP_cMPM_CrVEoAkWTGc3xWuC2yVlj4olXFHK2uf24ZTGiRYYxgWguZ81mM41svzLcZYMfx3iPwz8AZfaLiDG-cZC9TCuNAySGvtMUc6DZzOfu1aqDQBo845MKOu7bz0oaRzeyQ0-ZNz5IXEWk84Vp69yJVJP0atRWakwRZ8P5h6tPJdLSWgpnH4eHLPEn5WXkhKMCEr5aBFNEyeYRv7aSj9SrwvpWtTsIpg1ToSvu2YzlZPUXsrBh9c66HUsWwUl-7vnkav1D2SJsPxNXzCgi3gIChiKrwl5aaSycyis7yyduR2RVdER7-iqyDvRXPFW-dwa4jOHthrfZEZiRoNyd-T7YV9Qh4yFZq_54nJSR- -2nrxEx8xEzhirky2E7ruNC-pZtUeV-BFkpern-PnoF4LmAAYTc2eL0Z1WY4YjYbsfl6WqJ-51ZNZ841RApaDfYjaGxpP7KM3w-JYwkwU2ntq-fPwcC_VwX4_D0u0BD4Rl6yivowSW0L28YlskNUFkhZSKBFrWSDjUuOLYW1LM-pgLy2JvmgCd91oUO2taec5i9O3LYj4oTLO7DcGHCh-wNLs5KNb6CFQfgygi8k-4SMQfaDPc9RembPoXRjdikLGqcodL0_Lf1joBNpQkNmC8uZZQCIMFRzmNoKygGxxYWj42GD3JazZ6fEXPKgnEsPhsf3MbLQ9kPYi1aXMuJFq9iBbyYxjUkwrgOksyTXBpwydu3mfuRQzOYiwFRez_VvVVrci4o_34thAe6viOjix_m5F-AsGCbnAG3sPetu_pfSp3vc63H2Io8h89hgvhyQ_W37liiYDOXRqV5lZy0]--></g></svg>