<svg xmlns="http://www.w3.org/2000/svg" xmlns:xlink="http://www.w3.org/1999/xlink" contentStyleType="text/css" data-diagram-type="CLASS" height="602px" preserveAspectRatio="none" style="width:740px;height:602px;background:#FFFFFF;" version="1.1" viewBox="0 0 740 602" width="740px" zoomAndPan="magnify"><defs/><g><!--class Person--><g class="entity" data-entity="Person" data-source-line="2" data-uid="ent0002" id="entity_Person"><rect fill="#F1F1F1" height="48" rx="2.5" ry="2.5" style="stroke:#181818;stroke-width:0.5;" width="79.5439" x="7" y="223"/><ellipse cx="22" cy="239" fill="#ADD1B2" rx="11" ry="11" style="stroke:#181818;stroke-width:1;"/><path d="M24.9688,244.6406 Q24.3906,244.9375 23.75,245.0781 Q23.1094,245.2344 22.4063,245.2344 Q19.9063,245.2344 18.5781,243.5938 Q17.2656,241.9375 17.2656,238.8125 Q17.2656,235.6875 18.5781,234.0313 Q19.9063,232.375 22.4063,232.375 Q23.1094,232.375 23.75,232.5313 Q24.4063,232.6875 24.9688,232.9844 L24.9688,235.7031 Q24.3438,235.125 23.75,234.8594 Q23.1563,234.5781 22.5313,234.5781 Q21.1875,234.5781 20.5,235.6563 Q19.8125,236.7188 19.8125,238.8125 Q19.8125,240.9063 20.5,241.9844 Q21.1875,243.0469 22.5313,243.0469 Q23.1563,243.0469 23.75,242.7813 Q24.3438,242.5 24.9688,241.9219 L24.9688,244.6406 Z " fill="#000000"/><text fill="#000000" font-family="sans-serif" font-size="14" lengthAdjust="spacing" textLength="47.5439" x="36" y="243.8467">Person</text><line style="stroke:#181818;stroke-width:0.5;" x1="8" x2="85.5439" y1="255" y2="255"/><line style="stroke:#181818;stroke-width:0.5;" x1="8" x2="85.5439" y1="263" y2="263"/></g><!--class Employee--><g class="entity" data-entity="Employee" data-source-line="3" data-uid="ent0003" id="entity_Employee"><rect fill="#F1F1F1" height="48" rx="2.5" ry="2.5" style="stroke:#181818;stroke-width:0.5;" width="101.3369" x="331.1" y="331"/><ellipse cx="346.1" cy="347" fill="#ADD1B2" rx="11" ry="11" style="stroke:#181818;stroke-width:1;"/><path d="M349.0688,352.6406 Q348.4906,352.9375 347.85,353.0781 Q347.2094,353.2344 346.5063,353.2344 Q344.0063,353.2344 342.6781,351.5938 Q341.3656,349.9375 341.3656,346.8125 Q341.3656,343.6875 342.6781,342.0313 Q344.0063,340.375 346.5063,340.375 Q347.2094,340.375 347.85,340.5313 Q348.5063,340.6875 349.0688,340.9844 L349.0688,343.7031 Q348.4438,343.125 347.85,342.8594 Q347.2563,342.5781 346.6313,342.5781 Q345.2875,342.5781 344.6,343.6563 Q343.9125,344.7188 343.9125,346.8125 Q343.9125,348.9063 344.6,349.9844 Q345.2875,351.0469 346.6313,351.0469 Q347.2563,351.0469 347.85,350.7813 Q348.4438,350.5 349.0688,349.9219 L349.0688,352.6406 Z " fill="#000000"/><text fill="#000000" font-family="sans-serif" font-size="14" lengthAdjust="spacing" textLength="69.3369" x="360.1" y="351.8467">Employee</text><line style="stroke:#181818;stroke-width:0.5;" x1="332.1" x2="431.4369" y1="363" y2="363"/><line style="stroke:#181818;stroke-width:0.5;" x1="332.1" x2="431.4369" y1="371" y2="371"/></g><!--class ITEmployee--><g class="entity" data-entity="ITEmployee" data-source-line="4" data-uid="ent0004" id="entity_ITEmployee"><rect fill="#F1F1F1" height="48" rx="2.5" ry="2.5" style="stroke:#181818;stroke-width:0.5;" width="114.0176" x="247.76" y="439"/><ellipse cx="262.76" cy="455" fill="#ADD1B2" rx="11" ry="11" style="stroke:#181818;stroke-width:1;"/><path d="M265.7288,460.6406 Q265.1506,460.9375 264.51,461.0781 Q263.8694,461.2344 263.1663,461.2344 Q260.6663,461.2344 259.3381,459.5938 Q258.0256,457.9375 258.0256,454.8125 Q258.0256,451.6875 259.3381,450.0313 Q260.6663,448.375 263.1663,448.375 Q263.8694,448.375 264.51,448.5313 Q265.1663,448.6875 265.7288,448.9844 L265.7288,451.7031 Q265.1038,451.125 264.51,450.8594 Q263.9163,450.5781 263.2913,450.5781 Q261.9475,450.5781 261.26,451.6563 Q260.5725,452.7188 260.5725,454.8125 Q260.5725,456.9063 261.26,457.9844 Q261.9475,459.0469 263.2913,459.0469 Q263.9163,459.0469 264.51,458.7813 Q265.1038,458.5 265.7288,457.9219 L265.7288,460.6406 Z " fill="#000000"/><text fill="#000000" font-family="sans-serif" font-size="14" lengthAdjust="spacing" textLength="82.0176" x="276.76" y="459.8467">ITEmployee</text><line style="stroke:#181818;stroke-width:0.5;" x1="248.76" x2="360.7776" y1="471" y2="471"/><line style="stroke:#181818;stroke-width:0.5;" x1="248.76" x2="360.7776" y1="479" y2="479"/></g><!--class UniEmployee--><g class="entity" data-entity="UniEmployee" data-source-line="5" data-uid="ent0005" id="entity_UniEmployee"><rect fill="#F1F1F1" height="48" rx="2.5" ry="2.5" style="stroke:#181818;stroke-width:0.5;" width="124.3467" x="396.6" y="439"/><ellipse cx="411.6" cy="455" fill="#ADD1B2" rx="11" ry="11" style="stroke:#181818;stroke-width:1;"/><path d="M414.5688,460.6406 Q413.9906,460.9375 413.35,461.0781 Q412.7094,461.2344 412.0063,461.2344 Q409.5063,461.2344 408.1781,459.5938 Q406.8656,457.9375 406.8656,454.8125 Q406.8656,451.6875 408.1781,450.0313 Q409.5063,448.375 412.0063,448.375 Q412.7094,448.375 413.35,448.5313 Q414.0063,448.6875 414.5688,448.9844 L414.5688,451.7031 Q413.9438,451.125 413.35,450.8594 Q412.7563,450.5781 412.1313,450.5781 Q410.7875,450.5781 410.1,451.6563 Q409.4125,452.7188 409.4125,454.8125 Q409.4125,456.9063 410.1,457.9844 Q410.7875,459.0469 412.1313,459.0469 Q412.7563,459.0469 413.35,458.7813 Q413.9438,458.5 414.5688,457.9219 L414.5688,460.6406 Z " fill="#000000"/><text fill="#000000" font-family="sans-serif" font-size="14" lengthAdjust="spacing" textLength="92.3467" x="425.6" y="459.8467">UniEmployee</text><line style="stroke:#181818;stroke-width:0.5;" x1="397.6" x2="519.9467" y1="471" y2="471"/><line style="stroke:#181818;stroke-width:0.5;" x1="397.6" x2="519.9467" y1="479" y2="479"/></g><!--class ITPosition--><g class="entity" data-entity="ITPosition" data-source-line="8" data-uid="ent0006" id="entity_ITPosition"><rect fill="#F1F1F1" height="48" rx="2.5" ry="2.5" style="stroke:#181818;stroke-width:0.5;" width="99.6895" x="254.93" y="547"/><ellipse cx="269.93" cy="563" fill="#EB937F" rx="11" ry="11" style="stroke:#181818;stroke-width:1;"/><path d="M274.0394,569 L266.3206,569 L266.3206,556.6094 L274.0394,556.6094 L274.0394,558.7656 L268.7738,558.7656 L268.7738,561.4375 L273.5394,561.4375 L273.5394,563.5938 L268.7738,563.5938 L268.7738,566.8438 L274.0394,566.8438 L274.0394,569 Z " fill="#000000"/><text fill="#000000" font-family="sans-serif" font-size="14" lengthAdjust="spacing" textLength="67.6895" x="283.93" y="567.8467">ITPosition</text><line style="stroke:#181818;stroke-width:0.5;" x1="255.93" x2="353.6195" y1="579" y2="579"/><line style="stroke:#181818;stroke-width:0.5;" x1="255.93" x2="353.6195" y1="587" y2="587"/></g><!--class UniPosition--><g class="entity" data-entity="UniPosition" data-source-line="9" data-uid="ent0007" id="entity_UniPosition"><rect fill="#F1F1F1" height="48" rx="2.5" ry="2.5" style="stroke:#181818;stroke-width:0.5;" width="110.0186" x="403.76" y="547"/><ellipse cx="418.76" cy="563" fill="#EB937F" rx="11" ry="11" style="stroke:#181818;stroke-width:1;"/><path d="M422.8694,569 L415.1506,569 L415.1506,556.6094 L422.8694,556.6094 L422.8694,558.7656 L417.6038,558.7656 L417.6038,561.4375 L422.3694,561.4375 L422.3694,563.5938 L417.6038,563.5938 L417.6038,566.8438 L422.8694,566.8438 L422.8694,569 Z " fill="#000000"/><text fill="#000000" font-family="sans-serif" font-size="14" lengthAdjust="spacing" textLength="78.0186" x="432.76" y="567.8467">UniPosition</text><line style="stroke:#181818;stroke-width:0.5;" x1="404.76" x2="512.7786" y1="579" y2="579"/><line style="stroke:#181818;stroke-width:0.5;" x1="404.76" x2="512.7786" y1="587" y2="587"/></g><!--class EmployeeFactory--><g class="entity" data-entity="EmployeeFactory" data-source-line="12" data-uid="ent0008" id="entity_EmployeeFactory"><rect fill="#F1F1F1" height="48" rx="2.5" ry="2.5" style="stroke:#181818;stroke-width:0.5;" width="153.7617" x="304.89" y="7"/><ellipse cx="319.89" cy="23" fill="#B4A7E5" rx="11" ry="11" style="stroke:#181818;stroke-width:1;"/><path d="M315.8119,18.7656 L315.8119,16.6094 L323.2025,16.6094 L323.2025,18.7656 L320.7338,18.7656 L320.7338,26.8438 L323.2025,26.8438 L323.2025,29 L315.8119,29 L315.8119,26.8438 L318.2806,26.8438 L318.2806,18.7656 L315.8119,18.7656 Z " fill="#000000"/><text fill="#000000" font-family="sans-serif" font-size="14" font-style="italic" lengthAdjust="spacing" textLength="121.7617" x="333.89" y="27.8467">EmployeeFactory</text><line style="stroke:#181818;stroke-width:0.5;" x1="305.89" x2="457.6517" y1="39" y2="39"/><line style="stroke:#181818;stroke-width:0.5;" x1="305.89" x2="457.6517" y1="47" y2="47"/></g><!--class EmployeeFactoryImpl--><g class="entity" data-entity="EmployeeFactoryImpl" data-source-line="13" data-uid="ent0009" id="entity_EmployeeFactoryImpl"><rect fill="#F1F1F1" height="48" rx="2.5" ry="2.5" style="stroke:#181818;stroke-width:0.5;" width="184.3047" x="289.62" y="115"/><ellipse cx="304.62" cy="131" fill="#ADD1B2" rx="11" ry="11" style="stroke:#181818;stroke-width:1;"/><path d="M307.5888,136.6406 Q307.0106,136.9375 306.37,137.0781 Q305.7294,137.2344 305.0263,137.2344 Q302.5263,137.2344 301.1981,135.5938 Q299.8856,133.9375 299.8856,130.8125 Q299.8856,127.6875 301.1981,126.0313 Q302.5263,124.375 305.0263,124.375 Q305.7294,124.375 306.37,124.5313 Q307.0263,124.6875 307.5888,124.9844 L307.5888,127.7031 Q306.9638,127.125 306.37,126.8594 Q305.7763,126.5781 305.1513,126.5781 Q303.8075,126.5781 303.12,127.6563 Q302.4325,128.7188 302.4325,130.8125 Q302.4325,132.9063 303.12,133.9844 Q303.8075,135.0469 305.1513,135.0469 Q305.7763,135.0469 306.37,134.7813 Q306.9638,134.5 307.5888,133.9219 L307.5888,136.6406 Z " fill="#000000"/><text fill="#000000" font-family="sans-serif" font-size="14" lengthAdjust="spacing" textLength="152.3047" x="318.62" y="135.8467">EmployeeFactoryImpl</text><line style="stroke:#181818;stroke-width:0.5;" x1="290.62" x2="472.9247" y1="147" y2="147"/><line style="stroke:#181818;stroke-width:0.5;" x1="290.62" x2="472.9247" y1="155" y2="155"/></g><!--class FileService--><g class="entity" data-entity="FileService" data-source-line="15" data-uid="ent0010" id="entity_FileService"><rect fill="#F1F1F1" height="48" rx="2.5" ry="2.5" style="stroke:#181818;stroke-width:0.5;" width="108.1865" x="63.68" y="7"/><ellipse cx="78.68" cy="23" fill="#B4A7E5" rx="11" ry="11" style="stroke:#181818;stroke-width:1;"/><path d="M74.6019,18.7656 L74.6019,16.6094 L81.9925,16.6094 L81.9925,18.7656 L79.5238,18.7656 L79.5238,26.8438 L81.9925,26.8438 L81.9925,29 L74.6019,29 L74.6019,26.8438 L77.0706,26.8438 L77.0706,18.7656 L74.6019,18.7656 Z " fill="#000000"/><text fill="#000000" font-family="sans-serif" font-size="14" font-style="italic" lengthAdjust="spacing" textLength="76.1865" x="92.68" y="27.8467">FileService</text><line style="stroke:#181818;stroke-width:0.5;" x1="64.68" x2="170.8665" y1="39" y2="39"/><line style="stroke:#181818;stroke-width:0.5;" x1="64.68" x2="170.8665" y1="47" y2="47"/></g><!--class EmployeeFileService--><g class="entity" data-entity="EmployeeFileService" data-source-line="16" data-uid="ent0011" id="entity_EmployeeFileService"><rect fill="#F1F1F1" height="48" rx="2.5" ry="2.5" style="stroke:#181818;stroke-width:0.5;" width="177.5234" x="122.01" y="223"/><ellipse cx="137.01" cy="239" fill="#ADD1B2" rx="11" ry="11" style="stroke:#181818;stroke-width:1;"/><path d="M139.9788,244.6406 Q139.4006,244.9375 138.76,245.0781 Q138.1194,245.2344 137.4163,245.2344 Q134.9163,245.2344 133.5881,243.5938 Q132.2756,241.9375 132.2756,238.8125 Q132.2756,235.6875 133.5881,234.0313 Q134.9163,232.375 137.4163,232.375 Q138.1194,232.375 138.76,232.5313 Q139.4163,232.6875 139.9788,232.9844 L139.9788,235.7031 Q139.3538,235.125 138.76,234.8594 Q138.1663,234.5781 137.5413,234.5781 Q136.1975,234.5781 135.51,235.6563 Q134.8225,236.7188 134.8225,238.8125 Q134.8225,240.9063 135.51,241.9844 Q136.1975,243.0469 137.5413,243.0469 Q138.1663,243.0469 138.76,242.7813 Q139.3538,242.5 139.9788,241.9219 L139.9788,244.6406 Z " fill="#000000"/><text fill="#000000" font-family="sans-serif" font-size="14" lengthAdjust="spacing" textLength="145.5234" x="151.01" y="243.8467">EmployeeFileService</text><line style="stroke:#181818;stroke-width:0.5;" x1="123.01" x2="298.5334" y1="255" y2="255"/><line style="stroke:#181818;stroke-width:0.5;" x1="123.01" x2="298.5334" y1="263" y2="263"/></g><!--class FileServiceProxy--><g class="entity" data-entity="FileServiceProxy" data-source-line="17" data-uid="ent0012" id="entity_FileServiceProxy"><rect fill="#F1F1F1" height="48" rx="2.5" ry="2.5" style="stroke:#181818;stroke-width:0.5;" width="147.5205" x="107.01" y="115"/><ellipse cx="122.01" cy="131" fill="#ADD1B2" rx="11" ry="11" style="stroke:#181818;stroke-width:1;"/><path d="M124.9788,136.6406 Q124.4006,136.9375 123.76,137.0781 Q123.1194,137.2344 122.4163,137.2344 Q119.9163,137.2344 118.5881,135.5938 Q117.2756,133.9375 117.2756,130.8125 Q117.2756,127.6875 118.5881,126.0313 Q119.9163,124.375 122.4163,124.375 Q123.1194,124.375 123.76,124.5313 Q124.4163,124.6875 124.9788,124.9844 L124.9788,127.7031 Q124.3538,127.125 123.76,126.8594 Q123.1663,126.5781 122.5413,126.5781 Q121.1975,126.5781 120.51,127.6563 Q119.8225,128.7188 119.8225,130.8125 Q119.8225,132.9063 120.51,133.9844 Q121.1975,135.0469 122.5413,135.0469 Q123.1663,135.0469 123.76,134.7813 Q124.3538,134.5 124.9788,133.9219 L124.9788,136.6406 Z " fill="#000000"/><text fill="#000000" font-family="sans-serif" font-size="14" lengthAdjust="spacing" textLength="115.5205" x="136.01" y="135.8467">FileServiceProxy</text><line style="stroke:#181818;stroke-width:0.5;" x1="108.01" x2="253.5305" y1="147" y2="147"/><line style="stroke:#181818;stroke-width:0.5;" x1="108.01" x2="253.5305" y1="155" y2="155"/></g><!--class ListIterator--><g class="entity" data-entity="ListIterator" data-source-line="19" data-uid="ent0013" id="entity_ListIterator"><rect fill="#F1F1F1" height="48" rx="2.5" ry="2.5" style="stroke:#181818;stroke-width:0.5;" width="108.8496" x="602.35" y="7"/><ellipse cx="617.35" cy="23" fill="#B4A7E5" rx="11" ry="11" style="stroke:#181818;stroke-width:1;"/><path d="M613.2719,18.7656 L613.2719,16.6094 L620.6625,16.6094 L620.6625,18.7656 L618.1938,18.7656 L618.1938,26.8438 L620.6625,26.8438 L620.6625,29 L613.2719,29 L613.2719,26.8438 L615.7406,26.8438 L615.7406,18.7656 L613.2719,18.7656 Z " fill="#000000"/><text fill="#000000" font-family="sans-serif" font-size="14" font-style="italic" lengthAdjust="spacing" textLength="76.8496" x="631.35" y="27.8467">ListIterator</text><line style="stroke:#181818;stroke-width:0.5;" x1="603.35" x2="710.1996" y1="39" y2="39"/><line style="stroke:#181818;stroke-width:0.5;" x1="603.35" x2="710.1996" y1="47" y2="47"/></g><!--class EmployeeIterator--><g class="entity" data-entity="EmployeeIterator" data-source-line="20" data-uid="ent0014" id="entity_EmployeeIterator"><rect fill="#F1F1F1" height="48" rx="2.5" ry="2.5" style="stroke:#181818;stroke-width:0.5;" width="153.7139" x="579.92" y="115"/><ellipse cx="594.92" cy="131" fill="#ADD1B2" rx="11" ry="11" style="stroke:#181818;stroke-width:1;"/><path d="M597.8888,136.6406 Q597.3106,136.9375 596.67,137.0781 Q596.0294,137.2344 595.3263,137.2344 Q592.8263,137.2344 591.4981,135.5938 Q590.1856,133.9375 590.1856,130.8125 Q590.1856,127.6875 591.4981,126.0313 Q592.8263,124.375 595.3263,124.375 Q596.0294,124.375 596.67,124.5313 Q597.3263,124.6875 597.8888,124.9844 L597.8888,127.7031 Q597.2638,127.125 596.67,126.8594 Q596.0763,126.5781 595.4513,126.5781 Q594.1075,126.5781 593.42,127.6563 Q592.7325,128.7188 592.7325,130.8125 Q592.7325,132.9063 593.42,133.9844 Q594.1075,135.0469 595.4513,135.0469 Q596.0763,135.0469 596.67,134.7813 Q597.2638,134.5 597.8888,133.9219 L597.8888,136.6406 Z " fill="#000000"/><text fill="#000000" font-family="sans-serif" font-size="14" lengthAdjust="spacing" textLength="121.7139" x="608.92" y="135.8467">EmployeeIterator</text><line style="stroke:#181818;stroke-width:0.5;" x1="580.92" x2="732.6339" y1="147" y2="147"/><line style="stroke:#181818;stroke-width:0.5;" x1="580.92" x2="732.6339" y1="155" y2="155"/></g><!--class App--><g class="entity" data-entity="App" data-source-line="23" data-uid="ent0015" id="entity_App"><rect fill="#F1F1F1" height="48" rx="2.5" ry="2.5" style="stroke:#181818;stroke-width:0.5;" width="59.3506" x="496.1" y="7"/><ellipse cx="511.1" cy="23" fill="#ADD1B2" rx="11" ry="11" style="stroke:#181818;stroke-width:1;"/><path d="M514.0688,28.6406 Q513.4906,28.9375 512.85,29.0781 Q512.2094,29.2344 511.5063,29.2344 Q509.0063,29.2344 507.6781,27.5938 Q506.3656,25.9375 506.3656,22.8125 Q506.3656,19.6875 507.6781,18.0313 Q509.0063,16.375 511.5063,16.375 Q512.2094,16.375 512.85,16.5313 Q513.5063,16.6875 514.0688,16.9844 L514.0688,19.7031 Q513.4438,19.125 512.85,18.8594 Q512.2563,18.5781 511.6313,18.5781 Q510.2875,18.5781 509.6,19.6563 Q508.9125,20.7188 508.9125,22.8125 Q508.9125,24.9063 509.6,25.9844 Q510.2875,27.0469 511.6313,27.0469 Q512.2563,27.0469 512.85,26.7813 Q513.4438,26.5 514.0688,25.9219 L514.0688,28.6406 Z " fill="#000000"/><text fill="#000000" font-family="sans-serif" font-size="14" lengthAdjust="spacing" textLength="27.3506" x="525.1" y="27.8467">App</text><line style="stroke:#181818;stroke-width:0.5;" x1="497.1" x2="554.4506" y1="39" y2="39"/><line style="stroke:#181818;stroke-width:0.5;" x1="497.1" x2="554.4506" y1="47" y2="47"/></g><!--reverse link Person to Employee--><g class="link" data-entity-1="Person" data-entity-2="Employee" data-source-line="26" data-uid="lnk16" id="link_Person_Employee"><path codeLine="26" d="M103.6502,270.8716 C109.6302,273.1716 98.94,268.97 104.77,271 C182.78,298.1 274.91,324.64 330.81,340.16" fill="none" id="Person-backto-Employee" style="stroke:#181818;stroke-width:1;"/><polygon fill="none" points="86.85,264.41,101.4963,276.4717,105.8041,265.2715,86.85,264.41" style="stroke:#181818;stroke-width:1;"/></g><!--reverse link Employee to ITEmployee--><g class="link" data-entity-1="Employee" data-entity-2="ITEmployee" data-source-line="27" data-uid="lnk17" id="link_Employee_ITEmployee"><path codeLine="27" d="M354.2981,393.8283 C341.4681,411.5083 334.46,421.13 321.63,438.79" fill="none" id="Employee-backto-ITEmployee" style="stroke:#181818;stroke-width:1;"/><polygon fill="none" points="364.87,379.26,349.442,390.3043,359.1542,397.3523,364.87,379.26" style="stroke:#181818;stroke-width:1;"/></g><!--reverse link Employee to UniEmployee--><g class="link" data-entity-1="Employee" data-entity-2="UniEmployee" data-source-line="28" data-uid="lnk18" id="link_Employee_UniEmployee"><path codeLine="28" d="M409.2473,393.8244 C422.0873,411.5044 429.08,421.13 441.91,438.79" fill="none" id="Employee-backto-UniEmployee" style="stroke:#181818;stroke-width:1;"/><polygon fill="none" points="398.67,379.26,404.3925,397.3501,414.1021,390.2986,398.67,379.26" style="stroke:#181818;stroke-width:1;"/></g><!--link ITEmployee to ITPosition--><g class="link" data-entity-1="ITEmployee" data-entity-2="ITPosition" data-source-line="30" data-uid="lnk19" id="link_ITEmployee_ITPosition"><path codeLine="30" d="M304.77,487.26 C304.77,504.94 304.77,523.13 304.77,540.79" fill="none" id="ITEmployee-to-ITPosition" style="stroke:#181818;stroke-width:1;"/><polygon fill="#181818" points="304.77,546.79,308.77,537.79,304.77,541.79,300.77,537.79,304.77,546.79" style="stroke:#181818;stroke-width:1;"/></g><!--link UniEmployee to UniPosition--><g class="link" data-entity-1="UniEmployee" data-entity-2="UniPosition" data-source-line="31" data-uid="lnk20" id="link_UniEmployee_UniPosition"><path codeLine="31" d="M458.77,487.26 C458.77,504.94 458.77,523.13 458.77,540.79" fill="none" id="UniEmployee-to-UniPosition" style="stroke:#181818;stroke-width:1;"/><polygon fill="#181818" points="458.77,546.79,462.77,537.79,458.77,541.79,454.77,537.79,458.77,546.79" style="stroke:#181818;stroke-width:1;"/></g><!--reverse link EmployeeFactory to EmployeeFactoryImpl--><g class="link" data-entity-1="EmployeeFactory" data-entity-2="EmployeeFactoryImpl" data-source-line="33" data-uid="lnk21" id="link_EmployeeFactory_EmployeeFactoryImpl"><path codeLine="33" d="M381.77,73.26 C381.77,90.94 381.77,97.13 381.77,114.79" fill="none" id="EmployeeFactory-backto-EmployeeFactoryImpl" style="stroke:#181818;stroke-width:1;stroke-dasharray:7,7;"/><polygon fill="none" points="381.77,55.26,375.77,73.26,387.77,73.26,381.77,55.26" style="stroke:#181818;stroke-width:1;"/></g><!--link EmployeeFactoryImpl to Employee--><g class="link" data-entity-1="EmployeeFactoryImpl" data-entity-2="Employee" data-source-line="34" data-uid="lnk22" id="link_EmployeeFactoryImpl_Employee"><path codeLine="34" d="M381.77,163.31 C381.77,204.47 381.77,283.58 381.77,324.72" fill="none" id="EmployeeFactoryImpl-to-Employee" style="stroke:#181818;stroke-width:1;stroke-dasharray:7,7;"/><polygon fill="#181818" points="381.77,330.72,385.77,321.72,381.77,325.72,377.77,321.72,381.77,330.72" style="stroke:#181818;stroke-width:1;"/></g><!--reverse link FileService to EmployeeFileService--><g class="link" data-entity-1="FileService" data-entity-2="EmployeeFileService" data-source-line="36" data-uid="lnk23" id="link_FileService_EmployeeFileService"><path codeLine="36" d="M95.505,70.9719 C81.115,98.1819 71.46,128.22 89.77,163 C103.72,189.48 130.36,209.14 155.09,222.66" fill="none" id="FileService-backto-EmployeeFileService" style="stroke:#181818;stroke-width:1;stroke-dasharray:7,7;"/><polygon fill="none" points="103.92,55.06,90.201,68.1669,100.809,73.7769,103.92,55.06" style="stroke:#181818;stroke-width:1;"/></g><!--reverse link FileService to FileServiceProxy--><g class="link" data-entity-1="FileService" data-entity-2="FileServiceProxy" data-source-line="37" data-uid="lnk24" id="link_FileService_FileServiceProxy"><path codeLine="37" d="M140.7913,70.7364 C151.2913,88.4164 156.48,97.13 166.98,114.79" fill="none" id="FileService-backto-FileServiceProxy" style="stroke:#181818;stroke-width:1;stroke-dasharray:7,7;"/><polygon fill="none" points="131.6,55.26,135.6325,73.8002,145.9501,67.6727,131.6,55.26" style="stroke:#181818;stroke-width:1;"/></g><!--reverse link FileServiceProxy to EmployeeFileService--><g class="link" data-entity-1="FileServiceProxy" data-entity-2="EmployeeFileService" data-source-line="38" data-uid="lnk25" id="link_FileServiceProxy_EmployeeFileService"><path codeLine="38" d="M190.6256,174.8071 C195.6256,192.4871 199.21,205.13 204.2,222.79" fill="none" id="FileServiceProxy-backto-EmployeeFileService" style="stroke:#181818;stroke-width:1;"/><polygon fill="none" points="187.36,163.26,185.1438,170.1221,190.6256,174.8071,192.8418,167.945,187.36,163.26" style="stroke:#181818;stroke-width:1;"/></g><!--link EmployeeFileService to Employee--><g class="link" data-entity-1="EmployeeFileService" data-entity-2="Employee" data-source-line="39" data-uid="lnk26" id="link_EmployeeFileService_Employee"><path codeLine="39" d="M248.3,271.26 C276.71,288.87 310.4697,309.8098 338.9397,327.4498" fill="none" id="EmployeeFileService-to-Employee" style="stroke:#181818;stroke-width:1;"/><polygon fill="#181818" points="344.04,330.61,338.4963,322.4695,339.7897,327.9765,334.2827,329.27,344.04,330.61" style="stroke:#181818;stroke-width:1;"/></g><!--reverse link ListIterator to EmployeeIterator--><g class="link" data-entity-1="ListIterator" data-entity-2="EmployeeIterator" data-source-line="41" data-uid="lnk27" id="link_ListIterator_EmployeeIterator"><path codeLine="41" d="M656.77,73.26 C656.77,90.94 656.77,97.13 656.77,114.79" fill="none" id="ListIterator-backto-EmployeeIterator" style="stroke:#181818;stroke-width:1;stroke-dasharray:7,7;"/><polygon fill="none" points="656.77,55.26,650.77,73.26,662.77,73.26,656.77,55.26" style="stroke:#181818;stroke-width:1;"/></g><!--link EmployeeIterator to Employee--><g class="link" data-entity-1="EmployeeIterator" data-entity-2="Employee" data-source-line="42" data-uid="lnk28" id="link_EmployeeIterator_Employee"><path codeLine="42" d="M642.8,163.46 C624.9,191.92 591.51,239.94 552.77,271 C516.6,300 474.2051,319.9776 438.2851,334.0776" fill="none" id="EmployeeIterator-to-Employee" style="stroke:#181818;stroke-width:1;"/><polygon fill="#181818" points="432.7,336.27,442.5393,336.7048,437.3543,334.443,439.6161,329.258,432.7,336.27" style="stroke:#181818;stroke-width:1;"/></g><!--link App to EmployeeFactoryImpl--><g class="link" data-entity-1="App" data-entity-2="EmployeeFactoryImpl" data-source-line="44" data-uid="lnk29" id="link_App_EmployeeFactoryImpl"><path codeLine="44" d="M495.94,53.96 C471.88,71.67 442.9619,92.953 418.4019,111.033" fill="none" id="App-to-EmployeeFactoryImpl" style="stroke:#181818;stroke-width:1;"/><polygon fill="#181818" points="413.57,114.59,423.1892,112.4757,417.5966,111.6258,418.4465,106.0332,413.57,114.59" style="stroke:#181818;stroke-width:1;"/></g><!--link App to FileServiceProxy--><g class="link" data-entity-1="App" data-entity-2="FileServiceProxy" data-source-line="45" data-uid="lnk30" id="link_App_FileServiceProxy"><path codeLine="45" d="M495.68,46.76 C489.2,49.68 482.32,52.59 475.77,55 C435.39,69.86 334.0688,97.5394 260.6688,117.0394" fill="none" id="App-to-FileServiceProxy" style="stroke:#181818;stroke-width:1;"/><polygon fill="#181818" points="254.87,118.58,264.5953,120.1351,259.7024,117.2962,262.5412,112.4033,254.87,118.58" style="stroke:#181818;stroke-width:1;"/></g><!--link App to EmployeeIterator--><g class="link" data-entity-1="App" data-entity-2="EmployeeIterator" data-source-line="46" data-uid="lnk31" id="link_App_EmployeeIterator"><path codeLine="46" d="M554.52,55.26 C576.36,72.94 601.6061,93.3553 623.4261,111.0153" fill="none" id="App-to-EmployeeIterator" style="stroke:#181818;stroke-width:1;"/><polygon fill="#181818" points="628.09,114.79,623.6107,106.0187,624.2034,111.6444,618.5777,112.2372,628.09,114.79" style="stroke:#181818;stroke-width:1;"/></g><!--link App to Employee--><g class="link" data-entity-1="App" data-entity-2="Employee" data-source-line="47" data-uid="lnk32" id="link_App_Employee"><path codeLine="47" d="M521.69,55.32 C516.57,82 506.63,126.68 491.77,163 C465.63,226.93 425.0206,290.6894 401.3706,325.6694" fill="none" id="App-to-Employee" style="stroke:#181818;stroke-width:1;"/><polygon fill="#181818" points="398.01,330.64,406.3646,325.4246,400.8105,326.4979,399.7372,320.9438,398.01,330.64" style="stroke:#181818;stroke-width:1;"/></g><!--SRC=[RL51ReCm4Bpp2jzoWXUqaN884ceFI4aUO5dRogh1bashKFKJVKAFVKVKVtL5m5ulS69cTyUxCplnE7tYOAGJq0zwkFq4-pRJXJ8o1D623xQVmR5pneu0CspEZBZqEZB5Rj4_zkzTcNG18OwsDkX1e_I4SJ8IQV8C_WC-Rxz1Yqxtk5uKGGJ-HIg8EzLI3TQFRDEPRH0MPAZM1auehXNmWLM5CAstrv7gFEimD0WaFiA48ftEgV- -dRUlNdQvnmVdIDUJT2fOWxFnsdi8uk6hB5C6oy-T9bdaXIoJr2NASazJ86rJAGk4kOd2LRLfyGOdgcgVbYw8cqo66BzgMcN02M69DLHgWvlkInlH3FELOeISO0gONyPGHvRQwW8-51_ZXNy0]--></g></svg>