<svg xmlns="http://www.w3.org/2000/svg" xmlns:xlink="http://www.w3.org/1999/xlink" contentStyleType="text/css" data-diagram-type="CLASS" height="494px" preserveAspectRatio="none" style="width:785px;height:494px;background:#FFFFFF;" version="1.1" viewBox="0 0 785 494" width="785px" zoomAndPan="magnify"><defs/><g><!--class Person--><g class="entity" data-entity="Person" data-source-line="2" data-uid="ent0002" id="entity_Person"><rect fill="#F1F1F1" height="48" rx="2.5" ry="2.5" style="stroke:#181818;stroke-width:0.5;" width="79.5439" x="7" y="115"/><ellipse cx="22" cy="131" fill="#ADD1B2" rx="11" ry="11" style="stroke:#181818;stroke-width:1;"/><path d="M24.9688,136.6406 Q24.3906,136.9375 23.75,137.0781 Q23.1094,137.2344 22.4063,137.2344 Q19.9063,137.2344 18.5781,135.5938 Q17.2656,133.9375 17.2656,130.8125 Q17.2656,127.6875 18.5781,126.0313 Q19.9063,124.375 22.4063,124.375 Q23.1094,124.375 23.75,124.5313 Q24.4063,124.6875 24.9688,124.9844 L24.9688,127.7031 Q24.3438,127.125 23.75,126.8594 Q23.1563,126.5781 22.5313,126.5781 Q21.1875,126.5781 20.5,127.6563 Q19.8125,128.7188 19.8125,130.8125 Q19.8125,132.9063 20.5,133.9844 Q21.1875,135.0469 22.5313,135.0469 Q23.1563,135.0469 23.75,134.7813 Q24.3438,134.5 24.9688,133.9219 L24.9688,136.6406 Z " fill="#000000"/><text fill="#000000" font-family="sans-serif" font-size="14" lengthAdjust="spacing" textLength="47.5439" x="36" y="135.8467">Person</text><line style="stroke:#181818;stroke-width:0.5;" x1="8" x2="85.5439" y1="147" y2="147"/><line style="stroke:#181818;stroke-width:0.5;" x1="8" x2="85.5439" y1="155" y2="155"/></g><!--class Employee--><g class="entity" data-entity="Employee" data-source-line="3" data-uid="ent0003" id="entity_Employee"><rect fill="#F1F1F1" height="48" rx="2.5" ry="2.5" style="stroke:#181818;stroke-width:0.5;" width="101.3369" x="379.1" y="223"/><ellipse cx="394.1" cy="239" fill="#ADD1B2" rx="11" ry="11" style="stroke:#181818;stroke-width:1;"/><path d="M397.0688,244.6406 Q396.4906,244.9375 395.85,245.0781 Q395.2094,245.2344 394.5063,245.2344 Q392.0063,245.2344 390.6781,243.5938 Q389.3656,241.9375 389.3656,238.8125 Q389.3656,235.6875 390.6781,234.0313 Q392.0063,232.375 394.5063,232.375 Q395.2094,232.375 395.85,232.5313 Q396.5063,232.6875 397.0688,232.9844 L397.0688,235.7031 Q396.4438,235.125 395.85,234.8594 Q395.2563,234.5781 394.6313,234.5781 Q393.2875,234.5781 392.6,235.6563 Q391.9125,236.7188 391.9125,238.8125 Q391.9125,240.9063 392.6,241.9844 Q393.2875,243.0469 394.6313,243.0469 Q395.2563,243.0469 395.85,242.7813 Q396.4438,242.5 397.0688,241.9219 L397.0688,244.6406 Z " fill="#000000"/><text fill="#000000" font-family="sans-serif" font-size="14" lengthAdjust="spacing" textLength="69.3369" x="408.1" y="243.8467">Employee</text><line style="stroke:#181818;stroke-width:0.5;" x1="380.1" x2="479.4369" y1="255" y2="255"/><line style="stroke:#181818;stroke-width:0.5;" x1="380.1" x2="479.4369" y1="263" y2="263"/></g><!--class ITEmployee--><g class="entity" data-entity="ITEmployee" data-source-line="4" data-uid="ent0004" id="entity_ITEmployee"><rect fill="#F1F1F1" height="48" rx="2.5" ry="2.5" style="stroke:#181818;stroke-width:0.5;" width="114.0176" x="295.76" y="331"/><ellipse cx="310.76" cy="347" fill="#ADD1B2" rx="11" ry="11" style="stroke:#181818;stroke-width:1;"/><path d="M313.7288,352.6406 Q313.1506,352.9375 312.51,353.0781 Q311.8694,353.2344 311.1663,353.2344 Q308.6663,353.2344 307.3381,351.5938 Q306.0256,349.9375 306.0256,346.8125 Q306.0256,343.6875 307.3381,342.0313 Q308.6663,340.375 311.1663,340.375 Q311.8694,340.375 312.51,340.5313 Q313.1663,340.6875 313.7288,340.9844 L313.7288,343.7031 Q313.1038,343.125 312.51,342.8594 Q311.9163,342.5781 311.2913,342.5781 Q309.9475,342.5781 309.26,343.6563 Q308.5725,344.7188 308.5725,346.8125 Q308.5725,348.9063 309.26,349.9844 Q309.9475,351.0469 311.2913,351.0469 Q311.9163,351.0469 312.51,350.7813 Q313.1038,350.5 313.7288,349.9219 L313.7288,352.6406 Z " fill="#000000"/><text fill="#000000" font-family="sans-serif" font-size="14" lengthAdjust="spacing" textLength="82.0176" x="324.76" y="351.8467">ITEmployee</text><line style="stroke:#181818;stroke-width:0.5;" x1="296.76" x2="408.7776" y1="363" y2="363"/><line style="stroke:#181818;stroke-width:0.5;" x1="296.76" x2="408.7776" y1="371" y2="371"/></g><!--class UniEmployee--><g class="entity" data-entity="UniEmployee" data-source-line="5" data-uid="ent0005" id="entity_UniEmployee"><rect fill="#F1F1F1" height="48" rx="2.5" ry="2.5" style="stroke:#181818;stroke-width:0.5;" width="124.3467" x="444.6" y="331"/><ellipse cx="459.6" cy="347" fill="#ADD1B2" rx="11" ry="11" style="stroke:#181818;stroke-width:1;"/><path d="M462.5688,352.6406 Q461.9906,352.9375 461.35,353.0781 Q460.7094,353.2344 460.0063,353.2344 Q457.5063,353.2344 456.1781,351.5938 Q454.8656,349.9375 454.8656,346.8125 Q454.8656,343.6875 456.1781,342.0313 Q457.5063,340.375 460.0063,340.375 Q460.7094,340.375 461.35,340.5313 Q462.0063,340.6875 462.5688,340.9844 L462.5688,343.7031 Q461.9438,343.125 461.35,342.8594 Q460.7563,342.5781 460.1313,342.5781 Q458.7875,342.5781 458.1,343.6563 Q457.4125,344.7188 457.4125,346.8125 Q457.4125,348.9063 458.1,349.9844 Q458.7875,351.0469 460.1313,351.0469 Q460.7563,351.0469 461.35,350.7813 Q461.9438,350.5 462.5688,349.9219 L462.5688,352.6406 Z " fill="#000000"/><text fill="#000000" font-family="sans-serif" font-size="14" lengthAdjust="spacing" textLength="92.3467" x="473.6" y="351.8467">UniEmployee</text><line style="stroke:#181818;stroke-width:0.5;" x1="445.6" x2="567.9467" y1="363" y2="363"/><line style="stroke:#181818;stroke-width:0.5;" x1="445.6" x2="567.9467" y1="371" y2="371"/></g><!--class ITPosition--><g class="entity" data-entity="ITPosition" data-source-line="8" data-uid="ent0006" id="entity_ITPosition"><rect fill="#F1F1F1" height="48" rx="2.5" ry="2.5" style="stroke:#181818;stroke-width:0.5;" width="99.6895" x="302.93" y="439"/><ellipse cx="317.93" cy="455" fill="#EB937F" rx="11" ry="11" style="stroke:#181818;stroke-width:1;"/><path d="M322.0394,461 L314.3206,461 L314.3206,448.6094 L322.0394,448.6094 L322.0394,450.7656 L316.7738,450.7656 L316.7738,453.4375 L321.5394,453.4375 L321.5394,455.5938 L316.7738,455.5938 L316.7738,458.8438 L322.0394,458.8438 L322.0394,461 Z " fill="#000000"/><text fill="#000000" font-family="sans-serif" font-size="14" lengthAdjust="spacing" textLength="67.6895" x="331.93" y="459.8467">ITPosition</text><line style="stroke:#181818;stroke-width:0.5;" x1="303.93" x2="401.6195" y1="471" y2="471"/><line style="stroke:#181818;stroke-width:0.5;" x1="303.93" x2="401.6195" y1="479" y2="479"/></g><!--class UniPosition--><g class="entity" data-entity="UniPosition" data-source-line="9" data-uid="ent0007" id="entity_UniPosition"><rect fill="#F1F1F1" height="48" rx="2.5" ry="2.5" style="stroke:#181818;stroke-width:0.5;" width="110.0186" x="451.76" y="439"/><ellipse cx="466.76" cy="455" fill="#EB937F" rx="11" ry="11" style="stroke:#181818;stroke-width:1;"/><path d="M470.8694,461 L463.1506,461 L463.1506,448.6094 L470.8694,448.6094 L470.8694,450.7656 L465.6038,450.7656 L465.6038,453.4375 L470.3694,453.4375 L470.3694,455.5938 L465.6038,455.5938 L465.6038,458.8438 L470.8694,458.8438 L470.8694,461 Z " fill="#000000"/><text fill="#000000" font-family="sans-serif" font-size="14" lengthAdjust="spacing" textLength="78.0186" x="480.76" y="459.8467">UniPosition</text><line style="stroke:#181818;stroke-width:0.5;" x1="452.76" x2="560.7786" y1="471" y2="471"/><line style="stroke:#181818;stroke-width:0.5;" x1="452.76" x2="560.7786" y1="479" y2="479"/></g><!--class EmployeeFactory--><g class="entity" data-entity="EmployeeFactory" data-source-line="12" data-uid="ent0008" id="entity_EmployeeFactory"><rect fill="#F1F1F1" height="48" rx="2.5" ry="2.5" style="stroke:#181818;stroke-width:0.5;" width="153.7617" x="136.89" y="7"/><ellipse cx="151.89" cy="23" fill="#B4A7E5" rx="11" ry="11" style="stroke:#181818;stroke-width:1;"/><path d="M147.8119,18.7656 L147.8119,16.6094 L155.2025,16.6094 L155.2025,18.7656 L152.7338,18.7656 L152.7338,26.8438 L155.2025,26.8438 L155.2025,29 L147.8119,29 L147.8119,26.8438 L150.2806,26.8438 L150.2806,18.7656 L147.8119,18.7656 Z " fill="#000000"/><text fill="#000000" font-family="sans-serif" font-size="14" font-style="italic" lengthAdjust="spacing" textLength="121.7617" x="165.89" y="27.8467">EmployeeFactory</text><line style="stroke:#181818;stroke-width:0.5;" x1="137.89" x2="289.6517" y1="39" y2="39"/><line style="stroke:#181818;stroke-width:0.5;" x1="137.89" x2="289.6517" y1="47" y2="47"/></g><!--class EmployeeFactoryImpl--><g class="entity" data-entity="EmployeeFactoryImpl" data-source-line="13" data-uid="ent0009" id="entity_EmployeeFactoryImpl"><rect fill="#F1F1F1" height="48" rx="2.5" ry="2.5" style="stroke:#181818;stroke-width:0.5;" width="184.3047" x="121.62" y="115"/><ellipse cx="136.62" cy="131" fill="#ADD1B2" rx="11" ry="11" style="stroke:#181818;stroke-width:1;"/><path d="M139.5888,136.6406 Q139.0106,136.9375 138.37,137.0781 Q137.7294,137.2344 137.0263,137.2344 Q134.5263,137.2344 133.1981,135.5938 Q131.8856,133.9375 131.8856,130.8125 Q131.8856,127.6875 133.1981,126.0313 Q134.5263,124.375 137.0263,124.375 Q137.7294,124.375 138.37,124.5313 Q139.0263,124.6875 139.5888,124.9844 L139.5888,127.7031 Q138.9638,127.125 138.37,126.8594 Q137.7763,126.5781 137.1513,126.5781 Q135.8075,126.5781 135.12,127.6563 Q134.4325,128.7188 134.4325,130.8125 Q134.4325,132.9063 135.12,133.9844 Q135.8075,135.0469 137.1513,135.0469 Q137.7763,135.0469 138.37,134.7813 Q138.9638,134.5 139.5888,133.9219 L139.5888,136.6406 Z " fill="#000000"/><text fill="#000000" font-family="sans-serif" font-size="14" lengthAdjust="spacing" textLength="152.3047" x="150.62" y="135.8467">EmployeeFactoryImpl</text><line style="stroke:#181818;stroke-width:0.5;" x1="122.62" x2="304.9247" y1="147" y2="147"/><line style="stroke:#181818;stroke-width:0.5;" x1="122.62" x2="304.9247" y1="155" y2="155"/></g><!--class FileService--><g class="entity" data-entity="FileService" data-source-line="15" data-uid="ent0010" id="entity_FileService"><rect fill="#F1F1F1" height="48" rx="2.5" ry="2.5" style="stroke:#181818;stroke-width:0.5;" width="108.1865" x="375.68" y="7"/><ellipse cx="390.68" cy="23" fill="#B4A7E5" rx="11" ry="11" style="stroke:#181818;stroke-width:1;"/><path d="M386.6019,18.7656 L386.6019,16.6094 L393.9925,16.6094 L393.9925,18.7656 L391.5238,18.7656 L391.5238,26.8438 L393.9925,26.8438 L393.9925,29 L386.6019,29 L386.6019,26.8438 L389.0706,26.8438 L389.0706,18.7656 L386.6019,18.7656 Z " fill="#000000"/><text fill="#000000" font-family="sans-serif" font-size="14" font-style="italic" lengthAdjust="spacing" textLength="76.1865" x="404.68" y="27.8467">FileService</text><line style="stroke:#181818;stroke-width:0.5;" x1="376.68" x2="482.8665" y1="39" y2="39"/><line style="stroke:#181818;stroke-width:0.5;" x1="376.68" x2="482.8665" y1="47" y2="47"/></g><!--class EmployeeFileService--><g class="entity" data-entity="EmployeeFileService" data-source-line="16" data-uid="ent0011" id="entity_EmployeeFileService"><rect fill="#F1F1F1" height="48" rx="2.5" ry="2.5" style="stroke:#181818;stroke-width:0.5;" width="177.5234" x="341.01" y="115"/><ellipse cx="356.01" cy="131" fill="#ADD1B2" rx="11" ry="11" style="stroke:#181818;stroke-width:1;"/><path d="M358.9788,136.6406 Q358.4006,136.9375 357.76,137.0781 Q357.1194,137.2344 356.4163,137.2344 Q353.9163,137.2344 352.5881,135.5938 Q351.2756,133.9375 351.2756,130.8125 Q351.2756,127.6875 352.5881,126.0313 Q353.9163,124.375 356.4163,124.375 Q357.1194,124.375 357.76,124.5313 Q358.4163,124.6875 358.9788,124.9844 L358.9788,127.7031 Q358.3538,127.125 357.76,126.8594 Q357.1663,126.5781 356.5413,126.5781 Q355.1975,126.5781 354.51,127.6563 Q353.8225,128.7188 353.8225,130.8125 Q353.8225,132.9063 354.51,133.9844 Q355.1975,135.0469 356.5413,135.0469 Q357.1663,135.0469 357.76,134.7813 Q358.3538,134.5 358.9788,133.9219 L358.9788,136.6406 Z " fill="#000000"/><text fill="#000000" font-family="sans-serif" font-size="14" lengthAdjust="spacing" textLength="145.5234" x="370.01" y="135.8467">EmployeeFileService</text><line style="stroke:#181818;stroke-width:0.5;" x1="342.01" x2="517.5334" y1="147" y2="147"/><line style="stroke:#181818;stroke-width:0.5;" x1="342.01" x2="517.5334" y1="155" y2="155"/></g><!--class ListIterator--><g class="entity" data-entity="ListIterator" data-source-line="18" data-uid="ent0012" id="entity_ListIterator"><rect fill="#F1F1F1" height="48" rx="2.5" ry="2.5" style="stroke:#181818;stroke-width:0.5;" width="108.8496" x="647.35" y="7"/><ellipse cx="662.35" cy="23" fill="#B4A7E5" rx="11" ry="11" style="stroke:#181818;stroke-width:1;"/><path d="M658.2719,18.7656 L658.2719,16.6094 L665.6625,16.6094 L665.6625,18.7656 L663.1938,18.7656 L663.1938,26.8438 L665.6625,26.8438 L665.6625,29 L658.2719,29 L658.2719,26.8438 L660.7406,26.8438 L660.7406,18.7656 L658.2719,18.7656 Z " fill="#000000"/><text fill="#000000" font-family="sans-serif" font-size="14" font-style="italic" lengthAdjust="spacing" textLength="76.8496" x="676.35" y="27.8467">ListIterator</text><line style="stroke:#181818;stroke-width:0.5;" x1="648.35" x2="755.1996" y1="39" y2="39"/><line style="stroke:#181818;stroke-width:0.5;" x1="648.35" x2="755.1996" y1="47" y2="47"/></g><!--class EmployeeIterator--><g class="entity" data-entity="EmployeeIterator" data-source-line="19" data-uid="ent0013" id="entity_EmployeeIterator"><rect fill="#F1F1F1" height="48" rx="2.5" ry="2.5" style="stroke:#181818;stroke-width:0.5;" width="153.7139" x="624.92" y="115"/><ellipse cx="639.92" cy="131" fill="#ADD1B2" rx="11" ry="11" style="stroke:#181818;stroke-width:1;"/><path d="M642.8888,136.6406 Q642.3106,136.9375 641.67,137.0781 Q641.0294,137.2344 640.3263,137.2344 Q637.8263,137.2344 636.4981,135.5938 Q635.1856,133.9375 635.1856,130.8125 Q635.1856,127.6875 636.4981,126.0313 Q637.8263,124.375 640.3263,124.375 Q641.0294,124.375 641.67,124.5313 Q642.3263,124.6875 642.8888,124.9844 L642.8888,127.7031 Q642.2638,127.125 641.67,126.8594 Q641.0763,126.5781 640.4513,126.5781 Q639.1075,126.5781 638.42,127.6563 Q637.7325,128.7188 637.7325,130.8125 Q637.7325,132.9063 638.42,133.9844 Q639.1075,135.0469 640.4513,135.0469 Q641.0763,135.0469 641.67,134.7813 Q642.2638,134.5 642.8888,133.9219 L642.8888,136.6406 Z " fill="#000000"/><text fill="#000000" font-family="sans-serif" font-size="14" lengthAdjust="spacing" textLength="121.7139" x="653.92" y="135.8467">EmployeeIterator</text><line style="stroke:#181818;stroke-width:0.5;" x1="625.92" x2="777.6339" y1="147" y2="147"/><line style="stroke:#181818;stroke-width:0.5;" x1="625.92" x2="777.6339" y1="155" y2="155"/></g><!--class App--><g class="entity" data-entity="App" data-source-line="22" data-uid="ent0014" id="entity_App"><rect fill="#F1F1F1" height="48" rx="2.5" ry="2.5" style="stroke:#181818;stroke-width:0.5;" width="59.3506" x="531.1" y="7"/><ellipse cx="546.1" cy="23" fill="#ADD1B2" rx="11" ry="11" style="stroke:#181818;stroke-width:1;"/><path d="M549.0688,28.6406 Q548.4906,28.9375 547.85,29.0781 Q547.2094,29.2344 546.5063,29.2344 Q544.0063,29.2344 542.6781,27.5938 Q541.3656,25.9375 541.3656,22.8125 Q541.3656,19.6875 542.6781,18.0313 Q544.0063,16.375 546.5063,16.375 Q547.2094,16.375 547.85,16.5313 Q548.5063,16.6875 549.0688,16.9844 L549.0688,19.7031 Q548.4438,19.125 547.85,18.8594 Q547.2563,18.5781 546.6313,18.5781 Q545.2875,18.5781 544.6,19.6563 Q543.9125,20.7188 543.9125,22.8125 Q543.9125,24.9063 544.6,25.9844 Q545.2875,27.0469 546.6313,27.0469 Q547.2563,27.0469 547.85,26.7813 Q548.4438,26.5 549.0688,25.9219 L549.0688,28.6406 Z " fill="#000000"/><text fill="#000000" font-family="sans-serif" font-size="14" lengthAdjust="spacing" textLength="27.3506" x="560.1" y="27.8467">App</text><line style="stroke:#181818;stroke-width:0.5;" x1="532.1" x2="589.4506" y1="39" y2="39"/><line style="stroke:#181818;stroke-width:0.5;" x1="532.1" x2="589.4506" y1="47" y2="47"/></g><!--reverse link Person to Employee--><g class="link" data-entity-1="Person" data-entity-2="Employee" data-source-line="25" data-uid="lnk15" id="link_Person_Employee"><path codeLine="25" d="M103.8103,163.4454 C199.4203,194.7454 313.92,221.06 378.63,235.21" fill="none" id="Person-backto-Employee" style="stroke:#181818;stroke-width:1;"/><polygon fill="none" points="87,157.01,101.6651,169.0488,105.9554,157.842,87,157.01" style="stroke:#181818;stroke-width:1;"/></g><!--reverse link Employee to ITEmployee--><g class="link" data-entity-1="Employee" data-entity-2="ITEmployee" data-source-line="26" data-uid="lnk16" id="link_Employee_ITEmployee"><path codeLine="26" d="M402.2981,285.8283 C389.4681,303.5083 382.46,313.13 369.63,330.79" fill="none" id="Employee-backto-ITEmployee" style="stroke:#181818;stroke-width:1;"/><polygon fill="none" points="412.87,271.26,397.442,282.3043,407.1542,289.3523,412.87,271.26" style="stroke:#181818;stroke-width:1;"/></g><!--reverse link Employee to UniEmployee--><g class="link" data-entity-1="Employee" data-entity-2="UniEmployee" data-source-line="27" data-uid="lnk17" id="link_Employee_UniEmployee"><path codeLine="27" d="M457.2473,285.8244 C470.0873,303.5044 477.08,313.13 489.91,330.79" fill="none" id="Employee-backto-UniEmployee" style="stroke:#181818;stroke-width:1;"/><polygon fill="none" points="446.67,271.26,452.3925,289.3501,462.1021,282.2986,446.67,271.26" style="stroke:#181818;stroke-width:1;"/></g><!--link ITEmployee to ITPosition--><g class="link" data-entity-1="ITEmployee" data-entity-2="ITPosition" data-source-line="29" data-uid="lnk18" id="link_ITEmployee_ITPosition"><path codeLine="29" d="M352.77,379.26 C352.77,396.94 352.77,415.13 352.77,432.79" fill="none" id="ITEmployee-to-ITPosition" style="stroke:#181818;stroke-width:1;"/><polygon fill="#181818" points="352.77,438.79,356.77,429.79,352.77,433.79,348.77,429.79,352.77,438.79" style="stroke:#181818;stroke-width:1;"/></g><!--link UniEmployee to UniPosition--><g class="link" data-entity-1="UniEmployee" data-entity-2="UniPosition" data-source-line="30" data-uid="lnk19" id="link_UniEmployee_UniPosition"><path codeLine="30" d="M506.77,379.26 C506.77,396.94 506.77,415.13 506.77,432.79" fill="none" id="UniEmployee-to-UniPosition" style="stroke:#181818;stroke-width:1;"/><polygon fill="#181818" points="506.77,438.79,510.77,429.79,506.77,433.79,502.77,429.79,506.77,438.79" style="stroke:#181818;stroke-width:1;"/></g><!--reverse link EmployeeFactory to EmployeeFactoryImpl--><g class="link" data-entity-1="EmployeeFactory" data-entity-2="EmployeeFactoryImpl" data-source-line="32" data-uid="lnk20" id="link_EmployeeFactory_EmployeeFactoryImpl"><path codeLine="32" d="M213.77,73.26 C213.77,90.94 213.77,97.13 213.77,114.79" fill="none" id="EmployeeFactory-backto-EmployeeFactoryImpl" style="stroke:#181818;stroke-width:1;stroke-dasharray:7,7;"/><polygon fill="none" points="213.77,55.26,207.77,73.26,219.77,73.26,213.77,55.26" style="stroke:#181818;stroke-width:1;"/></g><!--link EmployeeFactoryImpl to Employee--><g class="link" data-entity-1="EmployeeFactoryImpl" data-entity-2="Employee" data-source-line="33" data-uid="lnk21" id="link_EmployeeFactoryImpl_Employee"><path codeLine="33" d="M261.44,163.39 C297.35,181.01 340.9641,202.4158 376.8341,220.0258" fill="none" id="EmployeeFactoryImpl-to-Employee" style="stroke:#181818;stroke-width:1;stroke-dasharray:7,7;"/><polygon fill="#181818" points="382.22,222.67,375.9039,215.1131,377.7317,220.4665,372.3783,222.2944,382.22,222.67" style="stroke:#181818;stroke-width:1;"/></g><!--reverse link FileService to EmployeeFileService--><g class="link" data-entity-1="FileService" data-entity-2="EmployeeFileService" data-source-line="35" data-uid="lnk22" id="link_FileService_EmployeeFileService"><path codeLine="35" d="M429.77,73.26 C429.77,90.94 429.77,97.13 429.77,114.79" fill="none" id="FileService-backto-EmployeeFileService" style="stroke:#181818;stroke-width:1;stroke-dasharray:7,7;"/><polygon fill="none" points="429.77,55.26,423.77,73.26,435.77,73.26,429.77,55.26" style="stroke:#181818;stroke-width:1;"/></g><!--link EmployeeFileService to Employee--><g class="link" data-entity-1="EmployeeFileService" data-entity-2="Employee" data-source-line="36" data-uid="lnk23" id="link_EmployeeFileService_Employee"><path codeLine="36" d="M429.77,163.26 C429.77,180.94 429.77,199.13 429.77,216.79" fill="none" id="EmployeeFileService-to-Employee" style="stroke:#181818;stroke-width:1;"/><polygon fill="#181818" points="429.77,222.79,433.77,213.79,429.77,217.79,425.77,213.79,429.77,222.79" style="stroke:#181818;stroke-width:1;"/></g><!--reverse link ListIterator to EmployeeIterator--><g class="link" data-entity-1="ListIterator" data-entity-2="EmployeeIterator" data-source-line="38" data-uid="lnk24" id="link_ListIterator_EmployeeIterator"><path codeLine="38" d="M701.77,73.26 C701.77,90.94 701.77,97.13 701.77,114.79" fill="none" id="ListIterator-backto-EmployeeIterator" style="stroke:#181818;stroke-width:1;stroke-dasharray:7,7;"/><polygon fill="none" points="701.77,55.26,695.77,73.26,707.77,73.26,701.77,55.26" style="stroke:#181818;stroke-width:1;"/></g><!--link EmployeeIterator to Employee--><g class="link" data-entity-1="EmployeeIterator" data-entity-2="Employee" data-source-line="39" data-uid="lnk25" id="link_EmployeeIterator_Employee"><path codeLine="39" d="M641.74,163.39 C593.4,182.23 531.7906,206.2415 486.1106,224.0415" fill="none" id="EmployeeIterator-to-Employee" style="stroke:#181818;stroke-width:1;"/><polygon fill="#181818" points="480.52,226.22,490.3581,226.6794,485.1788,224.4046,487.4535,219.2253,480.52,226.22" style="stroke:#181818;stroke-width:1;"/></g><!--link App to EmployeeFactoryImpl--><g class="link" data-entity-1="App" data-entity-2="EmployeeFactoryImpl" data-source-line="41" data-uid="lnk26" id="link_App_EmployeeFactoryImpl"><path codeLine="41" d="M530.65,44.35 C521.44,47.96 511.25,51.79 501.77,55 C435.84,77.3 365.9787,97.3718 308.7587,112.9718" fill="none" id="App-to-EmployeeFactoryImpl" style="stroke:#181818;stroke-width:1;"/><polygon fill="#181818" points="302.97,114.55,312.7052,116.0419,307.7939,113.2348,310.601,108.3236,302.97,114.55" style="stroke:#181818;stroke-width:1;"/></g><!--link App to EmployeeFileService--><g class="link" data-entity-1="App" data-entity-2="EmployeeFileService" data-source-line="42" data-uid="lnk27" id="link_App_EmployeeFileService"><path codeLine="42" d="M532.02,55.26 C510.18,72.94 484.9447,93.3563 463.1147,111.0163" fill="none" id="App-to-EmployeeFileService" style="stroke:#181818;stroke-width:1;"/><polygon fill="#181818" points="458.45,114.79,467.9628,112.2393,462.3373,111.6453,462.9313,106.0197,458.45,114.79" style="stroke:#181818;stroke-width:1;"/></g><!--link App to EmployeeIterator--><g class="link" data-entity-1="App" data-entity-2="EmployeeIterator" data-source-line="43" data-uid="lnk28" id="link_App_EmployeeIterator"><path codeLine="43" d="M590.67,54.48 C614.28,72.23 642.3039,93.2949 666.1439,111.2149" fill="none" id="App-to-EmployeeIterator" style="stroke:#181818;stroke-width:1;"/><polygon fill="#181818" points="670.94,114.82,666.1492,106.2149,666.9432,111.8157,661.3424,112.6097,670.94,114.82" style="stroke:#181818;stroke-width:1;"/></g><!--link App to Employee--><g class="link" data-entity-1="App" data-entity-2="Employee" data-source-line="44" data-uid="lnk29" id="link_App_Employee"><path codeLine="44" d="M561.14,55.04 C560.56,82.65 556.26,129.39 535.77,163 C520.56,187.95 499.9747,205.0718 477.7347,219.3918" fill="none" id="App-to-Employee" style="stroke:#181818;stroke-width:1;"/><polygon fill="#181818" points="472.69,222.64,482.4225,221.1308,476.8939,219.9332,478.0916,214.4045,472.69,222.64" style="stroke:#181818;stroke-width:1;"/></g><!--SRC=[RP11JiCm44NtEOLtNJadW4fTD584Yqej1x2i0LaujcKRf28kmH5OSewAUp5AKtiy9AlyF_xVuxSHz_CdTbO50IwRVFbE_dMnEsrLIk80CNctYFqKh3y3B78yCUF9cU9qcrl_thrDilO2IemUV3BPOFMiCLcCcZn1V8UFoqyoOZ8Eroibg20-Amrbfq7fxEEPRRgu8ygEX0PZuOZbHWCFa0a9F9gKHnGAsrYYs7NluVShHFyIrTJ2t8L0JZsee9Etc2tFkj8MTvzILjYtdwjDeBU31duz9QJSKjpas3ngo3DiMDptgonNFD7tsxfqHq2o6a9unPkNgZKKVDjJk7E3DI3qng7F-3SZk_5PkOyF_W00]--></g></svg>