<svg xmlns="http://www.w3.org/2000/svg" xmlns:xlink="http://www.w3.org/1999/xlink" contentStyleType="text/css" data-diagram-type="CLASS" height="494px" preserveAspectRatio="none" style="width:714px;height:494px;background:#FFFFFF;" version="1.1" viewBox="0 0 714 494" width="714px" zoomAndPan="magnify"><defs/><g><!--class Person--><g class="entity" data-entity="Person" data-source-line="2" data-uid="ent0002" id="entity_Person"><rect fill="#F1F1F1" height="48" rx="2.5" ry="2.5" style="stroke:#181818;stroke-width:0.5;" width="79.5439" x="7" y="115"/><ellipse cx="22" cy="131" fill="#ADD1B2" rx="11" ry="11" style="stroke:#181818;stroke-width:1;"/><path d="M24.9688,136.6406 Q24.3906,136.9375 23.75,137.0781 Q23.1094,137.2344 22.4063,137.2344 Q19.9063,137.2344 18.5781,135.5938 Q17.2656,133.9375 17.2656,130.8125 Q17.2656,127.6875 18.5781,126.0313 Q19.9063,124.375 22.4063,124.375 Q23.1094,124.375 23.75,124.5313 Q24.4063,124.6875 24.9688,124.9844 L24.9688,127.7031 Q24.3438,127.125 23.75,126.8594 Q23.1563,126.5781 22.5313,126.5781 Q21.1875,126.5781 20.5,127.6563 Q19.8125,128.7188 19.8125,130.8125 Q19.8125,132.9063 20.5,133.9844 Q21.1875,135.0469 22.5313,135.0469 Q23.1563,135.0469 23.75,134.7813 Q24.3438,134.5 24.9688,133.9219 L24.9688,136.6406 Z " fill="#000000"/><text fill="#000000" font-family="sans-serif" font-size="14" lengthAdjust="spacing" textLength="47.5439" x="36" y="135.8467">Person</text><line style="stroke:#181818;stroke-width:0.5;" x1="8" x2="85.5439" y1="147" y2="147"/><line style="stroke:#181818;stroke-width:0.5;" x1="8" x2="85.5439" y1="155" y2="155"/></g><!--class Employee--><g class="entity" data-entity="Employee" data-source-line="3" data-uid="ent0003" id="entity_Employee"><rect fill="#F1F1F1" height="48" rx="2.5" ry="2.5" style="stroke:#181818;stroke-width:0.5;" width="101.3369" x="160.1" y="223"/><ellipse cx="175.1" cy="239" fill="#ADD1B2" rx="11" ry="11" style="stroke:#181818;stroke-width:1;"/><path d="M178.0688,244.6406 Q177.4906,244.9375 176.85,245.0781 Q176.2094,245.2344 175.5063,245.2344 Q173.0063,245.2344 171.6781,243.5938 Q170.3656,241.9375 170.3656,238.8125 Q170.3656,235.6875 171.6781,234.0313 Q173.0063,232.375 175.5063,232.375 Q176.2094,232.375 176.85,232.5313 Q177.5063,232.6875 178.0688,232.9844 L178.0688,235.7031 Q177.4438,235.125 176.85,234.8594 Q176.2563,234.5781 175.6313,234.5781 Q174.2875,234.5781 173.6,235.6563 Q172.9125,236.7188 172.9125,238.8125 Q172.9125,240.9063 173.6,241.9844 Q174.2875,243.0469 175.6313,243.0469 Q176.2563,243.0469 176.85,242.7813 Q177.4438,242.5 178.0688,241.9219 L178.0688,244.6406 Z " fill="#000000"/><text fill="#000000" font-family="sans-serif" font-size="14" lengthAdjust="spacing" textLength="69.3369" x="189.1" y="243.8467">Employee</text><line style="stroke:#181818;stroke-width:0.5;" x1="161.1" x2="260.4369" y1="255" y2="255"/><line style="stroke:#181818;stroke-width:0.5;" x1="161.1" x2="260.4369" y1="263" y2="263"/></g><!--class ITEmployee--><g class="entity" data-entity="ITEmployee" data-source-line="4" data-uid="ent0004" id="entity_ITEmployee"><rect fill="#F1F1F1" height="48" rx="2.5" ry="2.5" style="stroke:#181818;stroke-width:0.5;" width="114.0176" x="76.76" y="331"/><ellipse cx="91.76" cy="347" fill="#ADD1B2" rx="11" ry="11" style="stroke:#181818;stroke-width:1;"/><path d="M94.7288,352.6406 Q94.1506,352.9375 93.51,353.0781 Q92.8694,353.2344 92.1663,353.2344 Q89.6663,353.2344 88.3381,351.5938 Q87.0256,349.9375 87.0256,346.8125 Q87.0256,343.6875 88.3381,342.0313 Q89.6663,340.375 92.1663,340.375 Q92.8694,340.375 93.51,340.5313 Q94.1663,340.6875 94.7288,340.9844 L94.7288,343.7031 Q94.1038,343.125 93.51,342.8594 Q92.9163,342.5781 92.2913,342.5781 Q90.9475,342.5781 90.26,343.6563 Q89.5725,344.7188 89.5725,346.8125 Q89.5725,348.9063 90.26,349.9844 Q90.9475,351.0469 92.2913,351.0469 Q92.9163,351.0469 93.51,350.7813 Q94.1038,350.5 94.7288,349.9219 L94.7288,352.6406 Z " fill="#000000"/><text fill="#000000" font-family="sans-serif" font-size="14" lengthAdjust="spacing" textLength="82.0176" x="105.76" y="351.8467">ITEmployee</text><line style="stroke:#181818;stroke-width:0.5;" x1="77.76" x2="189.7776" y1="363" y2="363"/><line style="stroke:#181818;stroke-width:0.5;" x1="77.76" x2="189.7776" y1="371" y2="371"/></g><!--class UniEmployee--><g class="entity" data-entity="UniEmployee" data-source-line="5" data-uid="ent0005" id="entity_UniEmployee"><rect fill="#F1F1F1" height="48" rx="2.5" ry="2.5" style="stroke:#181818;stroke-width:0.5;" width="124.3467" x="225.6" y="331"/><ellipse cx="240.6" cy="347" fill="#ADD1B2" rx="11" ry="11" style="stroke:#181818;stroke-width:1;"/><path d="M243.5688,352.6406 Q242.9906,352.9375 242.35,353.0781 Q241.7094,353.2344 241.0063,353.2344 Q238.5063,353.2344 237.1781,351.5938 Q235.8656,349.9375 235.8656,346.8125 Q235.8656,343.6875 237.1781,342.0313 Q238.5063,340.375 241.0063,340.375 Q241.7094,340.375 242.35,340.5313 Q243.0063,340.6875 243.5688,340.9844 L243.5688,343.7031 Q242.9438,343.125 242.35,342.8594 Q241.7563,342.5781 241.1313,342.5781 Q239.7875,342.5781 239.1,343.6563 Q238.4125,344.7188 238.4125,346.8125 Q238.4125,348.9063 239.1,349.9844 Q239.7875,351.0469 241.1313,351.0469 Q241.7563,351.0469 242.35,350.7813 Q242.9438,350.5 243.5688,349.9219 L243.5688,352.6406 Z " fill="#000000"/><text fill="#000000" font-family="sans-serif" font-size="14" lengthAdjust="spacing" textLength="92.3467" x="254.6" y="351.8467">UniEmployee</text><line style="stroke:#181818;stroke-width:0.5;" x1="226.6" x2="348.9467" y1="363" y2="363"/><line style="stroke:#181818;stroke-width:0.5;" x1="226.6" x2="348.9467" y1="371" y2="371"/></g><!--class ITPosition--><g class="entity" data-entity="ITPosition" data-source-line="8" data-uid="ent0006" id="entity_ITPosition"><rect fill="#F1F1F1" height="48" rx="2.5" ry="2.5" style="stroke:#181818;stroke-width:0.5;" width="99.6895" x="83.93" y="439"/><ellipse cx="98.93" cy="455" fill="#EB937F" rx="11" ry="11" style="stroke:#181818;stroke-width:1;"/><path d="M103.0394,461 L95.3206,461 L95.3206,448.6094 L103.0394,448.6094 L103.0394,450.7656 L97.7738,450.7656 L97.7738,453.4375 L102.5394,453.4375 L102.5394,455.5938 L97.7738,455.5938 L97.7738,458.8438 L103.0394,458.8438 L103.0394,461 Z " fill="#000000"/><text fill="#000000" font-family="sans-serif" font-size="14" lengthAdjust="spacing" textLength="67.6895" x="112.93" y="459.8467">ITPosition</text><line style="stroke:#181818;stroke-width:0.5;" x1="84.93" x2="182.6195" y1="471" y2="471"/><line style="stroke:#181818;stroke-width:0.5;" x1="84.93" x2="182.6195" y1="479" y2="479"/></g><!--class UniPosition--><g class="entity" data-entity="UniPosition" data-source-line="9" data-uid="ent0007" id="entity_UniPosition"><rect fill="#F1F1F1" height="48" rx="2.5" ry="2.5" style="stroke:#181818;stroke-width:0.5;" width="110.0186" x="232.76" y="439"/><ellipse cx="247.76" cy="455" fill="#EB937F" rx="11" ry="11" style="stroke:#181818;stroke-width:1;"/><path d="M251.8694,461 L244.1506,461 L244.1506,448.6094 L251.8694,448.6094 L251.8694,450.7656 L246.6038,450.7656 L246.6038,453.4375 L251.3694,453.4375 L251.3694,455.5938 L246.6038,455.5938 L246.6038,458.8438 L251.8694,458.8438 L251.8694,461 Z " fill="#000000"/><text fill="#000000" font-family="sans-serif" font-size="14" lengthAdjust="spacing" textLength="78.0186" x="261.76" y="459.8467">UniPosition</text><line style="stroke:#181818;stroke-width:0.5;" x1="233.76" x2="341.7786" y1="471" y2="471"/><line style="stroke:#181818;stroke-width:0.5;" x1="233.76" x2="341.7786" y1="479" y2="479"/></g><!--class EmployeeFactory--><g class="entity" data-entity="EmployeeFactory" data-source-line="12" data-uid="ent0008" id="entity_EmployeeFactory"><rect fill="#F1F1F1" height="48" rx="2.5" ry="2.5" style="stroke:#181818;stroke-width:0.5;" width="153.7617" x="538.89" y="7"/><ellipse cx="553.89" cy="23" fill="#B4A7E5" rx="11" ry="11" style="stroke:#181818;stroke-width:1;"/><path d="M549.8119,18.7656 L549.8119,16.6094 L557.2025,16.6094 L557.2025,18.7656 L554.7338,18.7656 L554.7338,26.8438 L557.2025,26.8438 L557.2025,29 L549.8119,29 L549.8119,26.8438 L552.2806,26.8438 L552.2806,18.7656 L549.8119,18.7656 Z " fill="#000000"/><text fill="#000000" font-family="sans-serif" font-size="14" font-style="italic" lengthAdjust="spacing" textLength="121.7617" x="567.89" y="27.8467">EmployeeFactory</text><line style="stroke:#181818;stroke-width:0.5;" x1="539.89" x2="691.6517" y1="39" y2="39"/><line style="stroke:#181818;stroke-width:0.5;" x1="539.89" x2="691.6517" y1="47" y2="47"/></g><!--class EmployeeFactoryImpl--><g class="entity" data-entity="EmployeeFactoryImpl" data-source-line="13" data-uid="ent0009" id="entity_EmployeeFactoryImpl"><rect fill="#F1F1F1" height="48" rx="2.5" ry="2.5" style="stroke:#181818;stroke-width:0.5;" width="184.3047" x="523.62" y="115"/><ellipse cx="538.62" cy="131" fill="#ADD1B2" rx="11" ry="11" style="stroke:#181818;stroke-width:1;"/><path d="M541.5888,136.6406 Q541.0106,136.9375 540.37,137.0781 Q539.7294,137.2344 539.0263,137.2344 Q536.5263,137.2344 535.1981,135.5938 Q533.8856,133.9375 533.8856,130.8125 Q533.8856,127.6875 535.1981,126.0313 Q536.5263,124.375 539.0263,124.375 Q539.7294,124.375 540.37,124.5313 Q541.0263,124.6875 541.5888,124.9844 L541.5888,127.7031 Q540.9638,127.125 540.37,126.8594 Q539.7763,126.5781 539.1513,126.5781 Q537.8075,126.5781 537.12,127.6563 Q536.4325,128.7188 536.4325,130.8125 Q536.4325,132.9063 537.12,133.9844 Q537.8075,135.0469 539.1513,135.0469 Q539.7763,135.0469 540.37,134.7813 Q540.9638,134.5 541.5888,133.9219 L541.5888,136.6406 Z " fill="#000000"/><text fill="#000000" font-family="sans-serif" font-size="14" lengthAdjust="spacing" textLength="152.3047" x="552.62" y="135.8467">EmployeeFactoryImpl</text><line style="stroke:#181818;stroke-width:0.5;" x1="524.62" x2="706.9247" y1="147" y2="147"/><line style="stroke:#181818;stroke-width:0.5;" x1="524.62" x2="706.9247" y1="155" y2="155"/></g><!--class FileService--><g class="entity" data-entity="FileService" data-source-line="15" data-uid="ent0010" id="entity_FileService"><rect fill="#F1F1F1" height="48" rx="2.5" ry="2.5" style="stroke:#181818;stroke-width:0.5;" width="108.1865" x="156.68" y="7"/><ellipse cx="171.68" cy="23" fill="#B4A7E5" rx="11" ry="11" style="stroke:#181818;stroke-width:1;"/><path d="M167.6019,18.7656 L167.6019,16.6094 L174.9925,16.6094 L174.9925,18.7656 L172.5238,18.7656 L172.5238,26.8438 L174.9925,26.8438 L174.9925,29 L167.6019,29 L167.6019,26.8438 L170.0706,26.8438 L170.0706,18.7656 L167.6019,18.7656 Z " fill="#000000"/><text fill="#000000" font-family="sans-serif" font-size="14" font-style="italic" lengthAdjust="spacing" textLength="76.1865" x="185.68" y="27.8467">FileService</text><line style="stroke:#181818;stroke-width:0.5;" x1="157.68" x2="263.8665" y1="39" y2="39"/><line style="stroke:#181818;stroke-width:0.5;" x1="157.68" x2="263.8665" y1="47" y2="47"/></g><!--class EmployeeFileService--><g class="entity" data-entity="EmployeeFileService" data-source-line="16" data-uid="ent0011" id="entity_EmployeeFileService"><rect fill="#F1F1F1" height="48" rx="2.5" ry="2.5" style="stroke:#181818;stroke-width:0.5;" width="177.5234" x="122.01" y="115"/><ellipse cx="137.01" cy="131" fill="#ADD1B2" rx="11" ry="11" style="stroke:#181818;stroke-width:1;"/><path d="M139.9788,136.6406 Q139.4006,136.9375 138.76,137.0781 Q138.1194,137.2344 137.4163,137.2344 Q134.9163,137.2344 133.5881,135.5938 Q132.2756,133.9375 132.2756,130.8125 Q132.2756,127.6875 133.5881,126.0313 Q134.9163,124.375 137.4163,124.375 Q138.1194,124.375 138.76,124.5313 Q139.4163,124.6875 139.9788,124.9844 L139.9788,127.7031 Q139.3538,127.125 138.76,126.8594 Q138.1663,126.5781 137.5413,126.5781 Q136.1975,126.5781 135.51,127.6563 Q134.8225,128.7188 134.8225,130.8125 Q134.8225,132.9063 135.51,133.9844 Q136.1975,135.0469 137.5413,135.0469 Q138.1663,135.0469 138.76,134.7813 Q139.3538,134.5 139.9788,133.9219 L139.9788,136.6406 Z " fill="#000000"/><text fill="#000000" font-family="sans-serif" font-size="14" lengthAdjust="spacing" textLength="145.5234" x="151.01" y="135.8467">EmployeeFileService</text><line style="stroke:#181818;stroke-width:0.5;" x1="123.01" x2="298.5334" y1="147" y2="147"/><line style="stroke:#181818;stroke-width:0.5;" x1="123.01" x2="298.5334" y1="155" y2="155"/></g><!--class ListIterator--><g class="entity" data-entity="ListIterator" data-source-line="18" data-uid="ent0012" id="entity_ListIterator"><rect fill="#F1F1F1" height="48" rx="2.5" ry="2.5" style="stroke:#181818;stroke-width:0.5;" width="108.8496" x="300.35" y="7"/><ellipse cx="315.35" cy="23" fill="#B4A7E5" rx="11" ry="11" style="stroke:#181818;stroke-width:1;"/><path d="M311.2719,18.7656 L311.2719,16.6094 L318.6625,16.6094 L318.6625,18.7656 L316.1938,18.7656 L316.1938,26.8438 L318.6625,26.8438 L318.6625,29 L311.2719,29 L311.2719,26.8438 L313.7406,26.8438 L313.7406,18.7656 L311.2719,18.7656 Z " fill="#000000"/><text fill="#000000" font-family="sans-serif" font-size="14" font-style="italic" lengthAdjust="spacing" textLength="76.8496" x="329.35" y="27.8467">ListIterator</text><line style="stroke:#181818;stroke-width:0.5;" x1="301.35" x2="408.1996" y1="39" y2="39"/><line style="stroke:#181818;stroke-width:0.5;" x1="301.35" x2="408.1996" y1="47" y2="47"/></g><!--class EmployeeIterator--><g class="entity" data-entity="EmployeeIterator" data-source-line="19" data-uid="ent0013" id="entity_EmployeeIterator"><rect fill="#F1F1F1" height="48" rx="2.5" ry="2.5" style="stroke:#181818;stroke-width:0.5;" width="153.7139" x="334.92" y="115"/><ellipse cx="349.92" cy="131" fill="#ADD1B2" rx="11" ry="11" style="stroke:#181818;stroke-width:1;"/><path d="M352.8888,136.6406 Q352.3106,136.9375 351.67,137.0781 Q351.0294,137.2344 350.3263,137.2344 Q347.8263,137.2344 346.4981,135.5938 Q345.1856,133.9375 345.1856,130.8125 Q345.1856,127.6875 346.4981,126.0313 Q347.8263,124.375 350.3263,124.375 Q351.0294,124.375 351.67,124.5313 Q352.3263,124.6875 352.8888,124.9844 L352.8888,127.7031 Q352.2638,127.125 351.67,126.8594 Q351.0763,126.5781 350.4513,126.5781 Q349.1075,126.5781 348.42,127.6563 Q347.7325,128.7188 347.7325,130.8125 Q347.7325,132.9063 348.42,133.9844 Q349.1075,135.0469 350.4513,135.0469 Q351.0763,135.0469 351.67,134.7813 Q352.2638,134.5 352.8888,133.9219 L352.8888,136.6406 Z " fill="#000000"/><text fill="#000000" font-family="sans-serif" font-size="14" lengthAdjust="spacing" textLength="121.7139" x="363.92" y="135.8467">EmployeeIterator</text><line style="stroke:#181818;stroke-width:0.5;" x1="335.92" x2="487.6339" y1="147" y2="147"/><line style="stroke:#181818;stroke-width:0.5;" x1="335.92" x2="487.6339" y1="155" y2="155"/></g><!--class App--><g class="entity" data-entity="App" data-source-line="22" data-uid="ent0014" id="entity_App"><rect fill="#F1F1F1" height="48" rx="2.5" ry="2.5" style="stroke:#181818;stroke-width:0.5;" width="59.3506" x="444.1" y="7"/><ellipse cx="459.1" cy="23" fill="#ADD1B2" rx="11" ry="11" style="stroke:#181818;stroke-width:1;"/><path d="M462.0688,28.6406 Q461.4906,28.9375 460.85,29.0781 Q460.2094,29.2344 459.5063,29.2344 Q457.0063,29.2344 455.6781,27.5938 Q454.3656,25.9375 454.3656,22.8125 Q454.3656,19.6875 455.6781,18.0313 Q457.0063,16.375 459.5063,16.375 Q460.2094,16.375 460.85,16.5313 Q461.5063,16.6875 462.0688,16.9844 L462.0688,19.7031 Q461.4438,19.125 460.85,18.8594 Q460.2563,18.5781 459.6313,18.5781 Q458.2875,18.5781 457.6,19.6563 Q456.9125,20.7188 456.9125,22.8125 Q456.9125,24.9063 457.6,25.9844 Q458.2875,27.0469 459.6313,27.0469 Q460.2563,27.0469 460.85,26.7813 Q461.4438,26.5 462.0688,25.9219 L462.0688,28.6406 Z " fill="#000000"/><text fill="#000000" font-family="sans-serif" font-size="14" lengthAdjust="spacing" textLength="27.3506" x="473.1" y="27.8467">App</text><line style="stroke:#181818;stroke-width:0.5;" x1="445.1" x2="502.4506" y1="39" y2="39"/><line style="stroke:#181818;stroke-width:0.5;" x1="445.1" x2="502.4506" y1="47" y2="47"/></g><!--reverse link Person to Employee--><g class="link" data-entity-1="Person" data-entity-2="Employee" data-source-line="25" data-uid="lnk15" id="link_Person_Employee"><path codeLine="25" d="M97.8779,173.0298 C125.1279,190.6398 147.28,204.97 174.58,222.61" fill="none" id="Person-backto-Employee" style="stroke:#181818;stroke-width:1;"/><polygon fill="none" points="82.76,163.26,94.6213,178.0691,101.1345,167.9905,82.76,163.26" style="stroke:#181818;stroke-width:1;"/></g><!--reverse link Employee to ITEmployee--><g class="link" data-entity-1="Employee" data-entity-2="ITEmployee" data-source-line="26" data-uid="lnk16" id="link_Employee_ITEmployee"><path codeLine="26" d="M183.2981,285.8283 C170.4681,303.5083 163.46,313.13 150.63,330.79" fill="none" id="Employee-backto-ITEmployee" style="stroke:#181818;stroke-width:1;"/><polygon fill="none" points="193.87,271.26,178.442,282.3043,188.1542,289.3523,193.87,271.26" style="stroke:#181818;stroke-width:1;"/></g><!--reverse link Employee to UniEmployee--><g class="link" data-entity-1="Employee" data-entity-2="UniEmployee" data-source-line="27" data-uid="lnk17" id="link_Employee_UniEmployee"><path codeLine="27" d="M238.2473,285.8244 C251.0873,303.5044 258.08,313.13 270.91,330.79" fill="none" id="Employee-backto-UniEmployee" style="stroke:#181818;stroke-width:1;"/><polygon fill="none" points="227.67,271.26,233.3925,289.3501,243.1021,282.2986,227.67,271.26" style="stroke:#181818;stroke-width:1;"/></g><!--link ITEmployee to ITPosition--><g class="link" data-entity-1="ITEmployee" data-entity-2="ITPosition" data-source-line="29" data-uid="lnk18" id="link_ITEmployee_ITPosition"><path codeLine="29" d="M133.77,379.26 C133.77,396.94 133.77,415.13 133.77,432.79" fill="none" id="ITEmployee-to-ITPosition" style="stroke:#181818;stroke-width:1;"/><polygon fill="#181818" points="133.77,438.79,137.77,429.79,133.77,433.79,129.77,429.79,133.77,438.79" style="stroke:#181818;stroke-width:1;"/></g><!--link UniEmployee to UniPosition--><g class="link" data-entity-1="UniEmployee" data-entity-2="UniPosition" data-source-line="30" data-uid="lnk19" id="link_UniEmployee_UniPosition"><path codeLine="30" d="M287.77,379.26 C287.77,396.94 287.77,415.13 287.77,432.79" fill="none" id="UniEmployee-to-UniPosition" style="stroke:#181818;stroke-width:1;"/><polygon fill="#181818" points="287.77,438.79,291.77,429.79,287.77,433.79,283.77,429.79,287.77,438.79" style="stroke:#181818;stroke-width:1;"/></g><!--reverse link EmployeeFactory to EmployeeFactoryImpl--><g class="link" data-entity-1="EmployeeFactory" data-entity-2="EmployeeFactoryImpl" data-source-line="32" data-uid="lnk20" id="link_EmployeeFactory_EmployeeFactoryImpl"><path codeLine="32" d="M615.77,73.26 C615.77,90.94 615.77,97.13 615.77,114.79" fill="none" id="EmployeeFactory-backto-EmployeeFactoryImpl" style="stroke:#181818;stroke-width:1;stroke-dasharray:7,7;"/><polygon fill="none" points="615.77,55.26,609.77,73.26,621.77,73.26,615.77,55.26" style="stroke:#181818;stroke-width:1;"/></g><!--reverse link FileService to EmployeeFileService--><g class="link" data-entity-1="FileService" data-entity-2="EmployeeFileService" data-source-line="33" data-uid="lnk21" id="link_FileService_EmployeeFileService"><path codeLine="33" d="M210.77,73.26 C210.77,90.94 210.77,97.13 210.77,114.79" fill="none" id="FileService-backto-EmployeeFileService" style="stroke:#181818;stroke-width:1;stroke-dasharray:7,7;"/><polygon fill="none" points="210.77,55.26,204.77,73.26,216.77,73.26,210.77,55.26" style="stroke:#181818;stroke-width:1;"/></g><!--reverse link ListIterator to EmployeeIterator--><g class="link" data-entity-1="ListIterator" data-entity-2="EmployeeIterator" data-source-line="34" data-uid="lnk22" id="link_ListIterator_EmployeeIterator"><path codeLine="34" d="M375.7999,71.116 C385.2999,88.796 389.8,97.13 399.29,114.79" fill="none" id="ListIterator-backto-EmployeeIterator" style="stroke:#181818;stroke-width:1;stroke-dasharray:7,7;"/><polygon fill="none" points="367.28,55.26,370.5146,73.9559,381.0852,68.276,367.28,55.26" style="stroke:#181818;stroke-width:1;"/></g><!--link EmployeeFileService to Employee--><g class="link" data-entity-1="EmployeeFileService" data-entity-2="Employee" data-source-line="36" data-uid="lnk23" id="link_EmployeeFileService_Employee"><path codeLine="36" d="M210.77,163.26 C210.77,180.94 210.77,199.13 210.77,216.79" fill="none" id="EmployeeFileService-to-Employee" style="stroke:#181818;stroke-width:1;"/><polygon fill="#181818" points="210.77,222.79,214.77,213.79,210.77,217.79,206.77,213.79,210.77,222.79" style="stroke:#181818;stroke-width:1;"/></g><!--link EmployeeIterator to Employee--><g class="link" data-entity-1="EmployeeIterator" data-entity-2="Employee" data-source-line="37" data-uid="lnk24" id="link_EmployeeIterator_Employee"><path codeLine="37" d="M367.66,163.26 C334.26,180.87 293.8872,202.1712 260.4372,219.8112" fill="none" id="EmployeeIterator-to-Employee" style="stroke:#181818;stroke-width:1;"/><polygon fill="#181818" points="255.13,222.61,264.9567,221.95,259.5527,220.2777,261.225,214.8737,255.13,222.61" style="stroke:#181818;stroke-width:1;"/></g><!--link App to EmployeeFactoryImpl--><g class="link" data-entity-1="App" data-entity-2="EmployeeFactoryImpl" data-source-line="39" data-uid="lnk25" id="link_App_EmployeeFactoryImpl"><path codeLine="39" d="M503.89,54.48 C527.66,72.23 555.9016,93.3112 579.9116,111.2312" fill="none" id="App-to-EmployeeFactoryImpl" style="stroke:#181818;stroke-width:1;"/><polygon fill="#181818" points="584.72,114.82,579.8999,106.2312,580.713,111.8294,575.1149,112.6424,584.72,114.82" style="stroke:#181818;stroke-width:1;"/></g><!--link App to EmployeeFileService--><g class="link" data-entity-1="App" data-entity-2="EmployeeFileService" data-source-line="40" data-uid="lnk26" id="link_App_EmployeeFileService"><path codeLine="40" d="M443.62,47.24 C438.05,49.92 432.27,52.6 426.77,55 C376.87,76.75 324.9114,96.6593 281.7514,112.5293" fill="none" id="App-to-EmployeeFileService" style="stroke:#181818;stroke-width:1;"/><polygon fill="#181818" points="276.12,114.6,285.9475,115.2483,280.8128,112.8744,283.1866,107.7398,276.12,114.6" style="stroke:#181818;stroke-width:1;"/></g><!--link App to EmployeeIterator--><g class="link" data-entity-1="App" data-entity-2="EmployeeIterator" data-source-line="41" data-uid="lnk27" id="link_App_EmployeeIterator"><path codeLine="41" d="M460.17,55.26 C449.83,72.94 438.7094,91.9509 428.3794,109.6109" fill="none" id="App-to-EmployeeIterator" style="stroke:#181818;stroke-width:1;"/><polygon fill="#181818" points="425.35,114.79,433.3468,109.041,427.8745,110.4741,426.4414,105.0018,425.35,114.79" style="stroke:#181818;stroke-width:1;"/></g><!--SRC=[RL51QiCm4Bpx5RhbvBmWBUGGWsaAXhGF469RbiYMa9o2Ip_H9_IOSvvW-gzk7LjQAV79Epipp8vMuc7wn5PBAup_xCSVFPZZ31TAI-z50ywRRXvshTLc09Z7-YK3NZiCIB5Q_7VTgOssG1Cf6-EnHtAUPX8680gViQDCHp6UlK3oXHR-0ONZ9TWH1ToRL132LLBrnWrPv1cjQIoOg48D1t0Vg20Ni0qJxD7tDGsIt395WEC5rU-tTURToJPjTMijOpr9gxpHf0rdNMiNcw-oZAqlFrUOjPykabU8B56MZxnuHfjMoHjajP7nUdstIrPJHcBzyT9ILkpiZcwATNDaC4gs1LMQ83papOvbotUB_Hy0]--></g></svg>